<?xml version="1.0" standalone="no"?>
<!DOCTYPE svg PUBLIC "-//W3C//DTD SVG 20010904//EN"
 "http://www.w3.org/TR/2001/REC-SVG-20010904/DTD/svg10.dtd">
<svg version="1.0" xmlns="http://www.w3.org/2000/svg"
 width="512.000000pt" height="512.000000pt" viewBox="0 0 512.000000 512.000000"
 preserveAspectRatio="xMidYMid meet">

<g transform="translate(0.000000,512.000000) scale(0.100000,-0.100000)"
fill="#000000" stroke="none">
<path d="M905 4759 c-102 -13 -268 -56 -365 -95 -46 -19 -174 -82 -283 -142
-230 -124 -252 -144 -252 -228 0 -86 60 -148 142 -148 42 0 74 14 257 114 232
126 349 172 502 195 245 37 467 3 691 -105 70 -34 154 -89 270 -177 192 -144
256 -187 401 -268 203 -111 459 -209 685 -259 214 -48 326 -60 577 -60 322 -1
444 18 856 130 111 29 207 54 214 54 7 0 3 -11 -9 -26 -30 -38 -43 -93 -31
-133 23 -82 73 -116 157 -109 70 6 82 18 257 262 143 199 157 229 137 296 -19
65 -63 96 -285 207 -194 97 -215 105 -257 101 -26 -3 -60 -15 -77 -27 -39 -27
-67 -97 -58 -146 8 -39 56 -100 88 -111 11 -3 16 -10 12 -14 -13 -12 -495
-137 -597 -155 -315 -54 -637 -43 -952 31 -333 80 -605 215 -937 466 -231 175
-382 254 -588 309 -168 45 -384 59 -555 38z"/>
<path d="M965 4268 c-154 -29 -327 -163 -399 -308 -69 -142 -66 -40 -66 -1835
0 -1550 1 -1622 19 -1660 22 -49 69 -91 119 -105 25 -8 181 -10 473 -8 l435 3
42 28 c23 15 52 46 64 70 l23 42 3 1615 c3 1757 4 1697 -52 1823 -111 248
-385 387 -661 335z"/>
<path d="M2468 3525 c-207 -51 -384 -230 -433 -437 -13 -54 -15 -247 -15
-1323 0 -1201 1 -1262 19 -1300 22 -49 69 -91 119 -105 25 -8 179 -10 472 -8
l435 3 41 28 c22 15 51 46 65 70 l24 42 0 1275 c0 1210 -1 1278 -18 1335 -65
211 -226 368 -432 420 -72 18 -200 18 -277 0z"/>
<path d="M3960 3205 c-165 -46 -308 -162 -380 -310 -63 -127 -60 -73 -60
-1286 0 -758 3 -1117 11 -1136 15 -40 57 -82 104 -104 37 -17 73 -19 470 -19
395 0 433 2 470 19 51 23 102 81 110 123 3 18 5 537 3 1153 l-3 1120 -22 59
c-66 173 -200 308 -366 366 -82 29 -257 37 -337 15z"/>
</g>
</svg>
