<?xml version="1.0" encoding="UTF-8"?>
<svg version="1.1" xmlns="http://www.w3.org/2000/svg" width="512" height="512">
<path d="M0 0 C7.77499984 0.59009893 15.29401587 1.92452297 22.92822266 3.48095703 C24.81377869 3.85932961 24.81377869 3.85932961 26.73742676 4.24534607 C30.16540431 4.93342378 33.59213045 5.62755144 37.01862764 6.32295847 C40.6464833 7.0582815 44.27538568 7.78840523 47.90414429 8.51925659 C54.01929437 9.75168368 60.13366882 10.98789921 66.24755859 12.2265625 C73.22514606 13.64017924 80.20374926 15.04868176 87.18299067 16.45410836 C93.9761552 17.82212961 100.76869136 19.19324607 107.56092453 20.56588364 C110.40912976 21.14146871 113.25750552 21.71619743 116.10603714 22.29016495 C136.11695132 26.32411379 156.0710716 30.58010295 176 35 C176.1853833 36.02335449 176.3707666 37.04670898 176.56176758 38.10107422 C176.81808928 39.46069366 177.07486808 40.82022697 177.33203125 42.1796875 C177.45259888 42.85217529 177.5731665 43.52466309 177.6973877 44.2175293 C179.17057902 51.89498745 182.3252315 57.43367238 188.75 61.9375 C196.20299155 65.92668395 204.51473298 66.30582193 212.8125 66.265625 C213.70686768 66.26753845 214.60123535 66.2694519 215.52270508 66.27142334 C217.39827763 66.27277367 219.27385991 66.26915855 221.14941406 66.26074219 C223.9930555 66.25002617 226.83606532 66.26067703 229.6796875 66.2734375 C231.51562637 66.2721157 233.35156485 66.26955289 235.1875 66.265625 C236.02321533 66.26967346 236.85893066 66.27372192 237.7199707 66.27789307 C247.72537554 66.19981159 256.32752564 64.76089325 264 58 C269.96732709 51.73505061 270.61960552 43.18385492 272 35 C290.77897435 30.92461644 309.58584865 27.01918081 328.42684126 23.24027467 C331.92381001 22.53843252 335.4203317 21.83436974 338.91690063 21.13053894 C345.50410134 19.80488668 352.09162429 18.4808442 358.67930186 17.15756387 C370.49202189 14.78470322 382.30432897 12.40978975 394.11627924 10.03310031 C398.24014081 9.20341324 402.36419382 8.37468688 406.48841643 7.54679644 C409.66347474 6.90923374 412.83830746 6.27054922 416.01318359 5.63208008 C417.12510574 5.40917297 418.23702789 5.18626587 419.38264465 4.956604 C426.24381988 3.57547373 433.07976937 2.11017307 439.90578651 0.56371593 C442.69492562 0.05557965 445.17585349 -0.11258884 448 0 C448.09361663 20.26296686 448.16406392 40.52588957 448.20724869 60.78902817 C448.22783686 70.19845579 448.25588553 79.60774871 448.30175781 89.01708984 C448.34174059 97.22231556 448.36746001 105.42744367 448.37635398 113.6327641 C448.38154943 117.9737922 448.39368173 122.31454117 448.42292023 126.65547943 C448.4502706 130.74964962 448.45840583 134.84342832 448.45243073 138.9376812 C448.45352226 140.43234072 448.46135868 141.92701469 448.4768219 143.42159462 C448.63351414 159.36172007 444.58786454 171.00125803 433.6875 182.75 C422.32136861 193.50723149 409.87771863 195.45496849 394.75564575 195.38768005 C393.22113782 195.39185836 391.68663298 195.39733859 390.15213382 195.40399987 C385.95644706 195.4184081 381.76095751 195.41422428 377.56526017 195.40683305 C373.03208481 195.4020922 368.49895155 195.41461935 363.96578979 195.42485046 C355.09305246 195.4420259 346.22038599 195.44288107 337.34763636 195.43763756 C330.13401137 195.43359225 322.92040729 195.43504371 315.70678329 195.44038582 C314.16536108 195.44150845 314.16536108 195.44150845 312.59279903 195.44265376 C310.50503914 195.44418528 308.41727926 195.44572363 306.32951938 195.44726873 C286.7612242 195.46098926 267.19296904 195.45555925 247.62467478 195.44408352 C229.73403229 195.43415189 211.84349323 195.44709141 193.95286669 195.47101771 C175.56943966 195.49541727 157.1860608 195.50501445 138.80261791 195.49836498 C128.48704513 195.49487464 118.17155188 195.49709266 107.85599136 195.51461601 C99.07452226 195.52934869 90.2931887 195.52995948 81.51172222 195.5125451 C77.03424205 195.50404149 72.5570039 195.5018699 68.07953644 195.51719666 C63.97491132 195.53107282 59.87073491 195.52624327 55.76613556 195.50695742 C54.28709341 195.50320605 52.80801507 195.50609436 51.32900526 195.51656907 C35.4285539 195.6211073 23.93029027 191.52435574 12.25 180.6875 C1.41670823 169.24100304 -0.45762033 156.61436218 -0.34057617 141.45263672 C-0.33972847 139.90438351 -0.34020782 138.3561291 -0.34190369 136.80787659 C-0.3427595 132.63287458 -0.32520134 128.45813458 -0.30418181 124.28319311 C-0.28534551 119.90968521 -0.28365912 115.53617038 -0.28010559 111.16262817 C-0.27080546 102.89327532 -0.24621938 94.62404238 -0.21605712 86.35474217 C-0.18244962 76.93511756 -0.16601118 67.51548703 -0.15097082 58.09581733 C-0.11966787 38.73047707 -0.06694717 19.3652482 0 0 Z " fill="#000000" transform="translate(32,269)"/>
<path d="M0 0 C1.67039841 -0.01029488 1.67039841 -0.01029488 3.37454224 -0.02079773 C7.02863586 -0.03898795 10.68229691 -0.03523894 14.33642578 -0.02954102 C16.89413593 -0.0341067 19.45184485 -0.03941343 22.009552 -0.04542542 C27.36059134 -0.05434144 32.71147535 -0.05218712 38.0625 -0.04199219 C44.21902194 -0.03052067 50.37510773 -0.04458137 56.53157222 -0.07138866 C62.48923592 -0.09634422 68.44676587 -0.09870192 74.4044838 -0.0922718 C76.92329763 -0.09211911 79.44212006 -0.09812059 81.96090317 -0.11056328 C85.49248816 -0.12555218 89.02313064 -0.11473698 92.5546875 -0.09765625 C94.09343536 -0.1121582 94.09343536 -0.1121582 95.66326904 -0.12695312 C109.46756076 0.01184169 120.1673339 5.4484839 130.15673828 14.71655273 C139.2254225 24.2985587 142.93188582 35.56625398 142.69970703 48.56811523 C142.69546219 49.48619965 142.69121735 50.40428406 142.68684387 51.35018921 C142.67023325 54.24345952 142.63261603 57.13599784 142.59423828 60.02905273 C142.57916861 62.00690716 142.56548423 63.98477266 142.55322266 65.96264648 C142.52038781 70.77672476 142.46873066 75.59026524 142.40673828 80.40405273 C144.05805756 80.39072906 144.05805756 80.39072906 145.74273682 80.37713623 C156.15797096 80.29576832 166.57313994 80.23595251 176.98862076 80.19680405 C182.34232158 80.17600024 187.69576416 80.14781519 193.04931641 80.10229492 C198.22351339 80.058579 203.39746322 80.03486153 208.57183075 80.02454376 C210.53804154 80.01719837 212.50424003 80.00285546 214.47034454 79.98113251 C232.10657314 79.79416536 244.82025911 82.3431016 258.15673828 94.71655273 C269.28651926 106.47632132 270.86240873 119.45139853 270.69970703 134.91186523 C270.69410062 136.48940627 270.68983547 138.06695258 270.68684387 139.64450073 C270.67547726 143.7643517 270.64608232 147.88387726 270.61273193 152.00360107 C270.58185289 156.22037354 270.56830071 160.43719941 270.55322266 164.65405273 C270.52120329 172.90420082 270.47010819 181.15408612 270.40673828 189.40405273 C266.12411689 190.91756157 261.9068814 192.00488228 257.45481873 192.89736938 C256.77943387 193.03383546 256.10404901 193.17030154 255.40819794 193.31090295 C253.15899762 193.76438404 250.90874474 194.2123981 248.65844727 194.66040039 C247.04001634 194.98549888 245.42165044 195.31092125 243.80334473 195.63664246 C239.417864 196.51823324 235.0314202 197.39493923 230.64473224 198.27050066 C226.98120958 199.00218243 223.31816685 199.73625086 219.65512139 200.47031724 C211.01515915 202.20170796 202.37441331 203.92914673 193.7331543 205.65405273 C184.81843001 207.43361057 175.90498555 209.21947344 166.99215645 211.00849688 C159.3366679 212.54493106 151.68043926 214.0776355 144.02359635 215.60730588 C139.45175052 216.5206888 134.88019101 217.43544663 130.30932426 218.3537178 C126.01332018 219.21658584 121.71640947 220.07478515 117.41875458 220.92939186 C115.84182047 221.24377598 114.26521217 221.55979947 112.68895912 221.87758064 C110.53739029 222.31107533 108.38472254 222.73862739 106.23167419 223.16470337 C105.02730933 223.40545908 103.82294447 223.64621479 102.5820837 223.89426613 C99.78082389 224.34399507 97.23469331 224.50969908 94.40673828 224.40405273 C94.25978516 223.4256543 94.11283203 222.44725586 93.96142578 221.43920898 C92.48406797 212.47435919 90.73386156 205.04380527 83.59033203 198.82202148 C75.86716309 193.40800204 66.47458631 193.09546438 57.34033203 193.13842773 C55.96192894 193.13555756 55.96192894 193.13555756 54.55567932 193.13262939 C52.62883223 193.13127881 50.70197568 193.13489574 48.77514648 193.14331055 C45.84809714 193.15403859 42.92165968 193.14337025 39.99462891 193.13061523 C38.10986195 193.13193679 36.22509536 193.1344991 34.34033203 193.13842773 C33.47758163 193.13437927 32.61483124 193.13033081 31.72593689 193.12615967 C21.92776229 193.20076793 13.95232672 194.87139349 6.40673828 201.40405273 C0.47290133 207.61834466 -0.28848081 216.25712801 -1.59326172 224.40405273 C-10.45475399 223.80860527 -19.06622652 222.0409848 -27.75146484 220.27709961 C-29.36535585 219.95304708 -30.97933125 219.62941461 -32.59338379 219.3061676 C-36.9490653 218.43254733 -41.303506 217.55288546 -45.65770912 216.67193031 C-50.22051088 215.74968433 -54.78433621 214.83252994 -59.34802246 213.91467285 C-67.0014107 212.37460645 -74.65402178 210.8307264 -82.30615234 209.28442383 C-91.15881551 207.49555994 -100.01256777 205.71217082 -108.86694384 203.93180609 C-117.39019663 202.21794275 -125.91278946 200.50082088 -134.43504333 198.78199768 C-138.06160919 198.05059241 -141.68838316 197.32023198 -145.31532288 196.59068298 C-149.57747264 195.73316673 -153.83903154 194.87277297 -158.10014343 194.01011467 C-159.66651583 193.69347323 -161.23308703 193.37781346 -162.79986572 193.06318855 C-164.93178014 192.63490527 -167.06295424 192.20311617 -169.19396973 191.77038574 C-170.38853035 191.52925301 -171.58309097 191.28812027 -172.8138504 191.03968048 C-175.59326172 190.40405273 -175.59326172 190.40405273 -177.59326172 189.40405273 C-177.68642496 180.35412059 -177.75725948 171.30435651 -177.80051041 162.25404739 C-177.82128106 158.05045744 -177.84940299 153.8471984 -177.89501953 149.64379883 C-177.93885714 145.57833407 -177.96247769 141.51318523 -177.97277069 137.44750214 C-177.98009474 135.90552557 -177.99439456 134.36356397 -178.01618195 132.82172394 C-178.23564344 116.62964773 -174.44908867 104.69161267 -163.28076172 92.65405273 C-150.20963799 80.28316778 -135.90380372 79.97119593 -118.92919922 80.11108398 C-116.9256726 80.11668712 -114.92214184 80.12095382 -112.91860962 80.12394714 C-107.67430039 80.13533944 -102.43024491 80.16475775 -97.18603516 80.19805908 C-91.82311433 80.22888164 -86.46015205 80.24247841 -81.09716797 80.25756836 C-70.5957551 80.28963328 -60.0945296 80.34076096 -49.59326172 80.40405273 C-49.62468262 78.5898584 -49.62468262 78.5898584 -49.65673828 76.73901367 C-49.72981012 72.19909777 -49.77530289 67.65923249 -49.81298828 63.11889648 C-49.83295211 61.16372907 -49.86013307 59.20862019 -49.89501953 57.25366211 C-50.20859337 39.21394384 -47.95151391 26.31097196 -35.28076172 12.65405273 C-25.1697376 3.08469062 -13.61279936 -0.05950209 0 0 Z M-13.53076172 38.15405273 C-21.49201267 50.69905423 -17.59326172 66.16791221 -17.59326172 80.40405273 C24.64673828 80.40405273 66.88673828 80.40405273 110.40673828 80.40405273 C112.75393338 57.77828199 112.75393338 57.77828199 104.65673828 36.46655273 C98.33086237 32.45205456 92.20354726 32.10843731 84.94238281 32.12939453 C84.01947449 32.1242836 83.09656616 32.11917267 82.14569092 32.11390686 C79.11024396 32.1000648 76.07502545 32.10096365 73.03955078 32.10327148 C70.91877153 32.09938148 68.79799305 32.09504618 66.67721558 32.09028625 C62.23725863 32.08283553 57.79738121 32.08310693 53.35742188 32.08837891 C47.68274524 32.09417064 42.00839531 32.07724393 36.33377266 32.05403423 C31.95500807 32.03926391 27.57632156 32.03842972 23.19753647 32.04154396 C21.10607125 32.04103237 19.01460148 32.03582516 16.92316055 32.02573204 C13.99185538 32.01332159 11.0611788 32.02018708 8.12988281 32.03173828 C6.84840866 32.02027267 6.84840866 32.02027267 5.54104614 32.00857544 C-1.25862551 32.06745712 -8.72042706 32.87026694 -13.53076172 38.15405273 Z " fill="#000000" transform="translate(209.59326171875,47.595947265625)"/>
<path d="M0 0 C10.56 0 21.12 0 32 0 C32 10.56 32 21.12 32 32 C21.44 32 10.88 32 0 32 C0 21.44 0 10.88 0 0 Z " fill="#000000" transform="translate(240,272)"/>
</svg>
