<?xml version="1.0" encoding="UTF-8"?>
<svg version="1.1" xmlns="http://www.w3.org/2000/svg" width="512" height="512">
<path d="M0 0 C0.98742187 -0.02835938 1.97484375 -0.05671875 2.9921875 -0.0859375 C9.68776767 0.89919774 14.44267623 5.24922312 19.06066895 9.91625977 C19.6145515 10.46405122 20.16843406 11.01184267 20.73910093 11.57623386 C22.57866037 13.39924811 24.40743236 15.23269892 26.23632812 17.06640625 C27.55856007 18.38129343 28.88141173 19.69555769 30.20483398 21.00924683 C33.78584223 24.56808539 37.35719769 28.1364612 40.92618752 31.70734787 C43.90617599 34.68745614 46.89049553 37.66320894 49.87470579 40.63908863 C56.90985392 47.65502305 63.93682042 54.67907968 70.95898438 61.70800781 C78.21047969 68.96615889 85.47664924 76.20938249 92.74995852 83.44566822 C98.99339125 89.65846693 105.22718125 95.88082658 111.45336485 102.11091137 C115.17274165 105.83236034 118.89583474 109.54989547 122.62843323 113.25808716 C126.13288327 116.74037393 129.62520062 120.23437843 133.10836792 123.73794937 C134.39123864 125.02424744 135.67842664 126.30625564 136.97010803 127.5837059 C138.72689219 129.32245646 140.46770721 131.07574397 142.2052002 132.83374023 C142.72472527 133.34074746 143.24425035 133.84775469 143.7795186 134.37012577 C147.10046308 137.77621179 147.10046308 137.77621179 147.20881367 140.42035198 C145.71871134 143.10773787 143.87429981 145.01041173 141.70378113 147.19062805 C141.240224 147.66027629 140.77666687 148.12992452 140.29906255 148.61380452 C138.74316763 150.18635482 137.17674555 151.74797208 135.61010742 153.30981445 C134.49270119 154.43455934 133.37592034 155.55992583 132.25971985 156.68586731 C129.22551371 159.74231475 126.18170661 162.78902606 123.13541579 165.83342385 C120.59536036 168.37335975 118.05965746 170.91761938 115.52383596 173.4617812 C109.54401944 179.46083967 103.55605298 185.4516785 97.56323242 191.43774414 C91.37361689 197.62071151 85.19892488 203.81830483 79.03119391 210.02309638 C73.73989422 215.34503755 68.43903269 220.65732086 63.13044053 225.96201295 C59.95779314 229.13258782 56.78907906 232.30686427 53.62969017 235.4906559 C50.66042157 238.48209849 47.67945575 241.46135759 44.6889019 244.43151665 C43.59127589 245.52571648 42.49793376 246.62423237 41.40916061 247.72724152 C39.92638967 249.22805986 38.42918504 250.71276904 36.9271698 252.19429016 C36.09148059 253.03069188 35.25579138 253.8670936 34.39477825 254.72884083 C32.125 256.375 32.125 256.375 29.99966908 256.29278851 C26.90504211 254.77774081 24.71934429 252.27683041 22.375 249.8125 C21.86839844 249.29236328 21.36179688 248.77222656 20.83984375 248.23632812 C19.59465595 246.95589916 18.35888498 245.66632446 17.125 244.375 C18.46503981 241.39568819 19.98121331 239.33454862 22.25 237 C24.43659325 234.49720822 25.09056503 233.55061834 25.75 230.1875 C24.95814727 226.62416273 24.16753011 225.40335341 21.125 223.375 C17.84261438 222.37133208 17.84261438 222.37133208 14.125 223.375 C10.84762426 225.77562554 7.97194673 228.48286364 5.125 231.375 C0.20564098 227.25880164 -4.40147956 222.97089638 -8.875 218.375 C-5.23344252 214.02289472 -1.5183682 209.94610648 2.609375 206.05078125 C5.42038572 202.94273074 6.1482441 201.03745692 6 196.8125 C5.3918512 193.41761001 5.3918512 193.41761001 3.5 191.375 C-0.0828607 189.86642707 -2.11872889 190.38691231 -5.875 191.375 C-8.66223007 193.44805663 -10.96015684 195.89099518 -13.3125 198.4375 C-13.94865234 199.10072266 -14.58480469 199.76394531 -15.24023438 200.44726562 C-16.79967612 202.07705813 -18.34334939 203.71913568 -19.875 205.375 C-23.63863368 203.61300109 -26.20104243 201.41298466 -29.1875 198.5 C-30.09113281 197.63632813 -30.99476562 196.77265625 -31.92578125 195.8828125 C-33.875 193.375 -33.875 193.375 -33.85546875 191.26953125 C-32.75771122 189.1483663 -31.52881542 187.65889922 -29.875 185.9375 C-27.40601289 183.14724709 -25.77263102 181.2650214 -25.875 177.375 C-27.0165919 175.0918162 -28.06512683 173.18487317 -29.875 171.375 C-33.07732099 170.70325825 -33.07732099 170.70325825 -36.875 171.375 C-39.11904492 173.04343488 -41.03014017 174.84178339 -42.98046875 176.84375 C-44.875 178.375 -44.875 178.375 -48.875 178.375 C-50.99349022 176.68020783 -52.80507406 175.04904004 -54.6875 173.125 C-55.20248047 172.63386719 -55.71746094 172.14273438 -56.24804688 171.63671875 C-57.70703125 170.171875 -57.70703125 170.171875 -59.875 167.375 C-59.4178668 162.74460981 -56.08143037 160.28650433 -52.875 157.25 C-47.72674454 152.72797562 -47.72674454 152.72797562 -45.5625 146.5 C-45.63446005 143.34081945 -45.63446005 143.34081945 -47.4375 141 C-50.95748343 138.65334438 -52.70610943 138.6107034 -56.875 139.375 C-59.87567451 141.38332546 -62.34260288 143.81292635 -64.875 146.375 C-65.555625 147.04273438 -66.23625 147.71046875 -66.9375 148.3984375 C-68.60060462 150.04142392 -70.24505533 151.69921314 -71.875 153.375 C-75.68816478 151.78543716 -78.247784 149.36739303 -81.1875 146.5 C-82.09113281 145.63632813 -82.99476562 144.77265625 -83.92578125 143.8828125 C-85.875 141.375 -85.875 141.375 -85.89453125 139.29296875 C-84.6525851 136.95658729 -83.14016852 135.41125048 -81.25 133.5625 C-78.46686736 130.49933964 -77.89923397 129.86775743 -77.6875 125.5625 C-78.66744372 122.4125265 -78.66744372 122.4125265 -80.5 120.375 C-84.15354101 118.83666694 -86.07437885 119.23481366 -89.875 120.375 C-92.76321971 122.49437663 -95.33736447 124.85054699 -97.875 127.375 C-103.14362479 125.02093361 -106.73209051 120.71785953 -108.875 115.375 C-109.17578125 112.5703125 -109.17578125 112.5703125 -109.1875 109.5 C-109.20425781 108.49195312 -109.22101563 107.48390625 -109.23828125 106.4453125 C-108.27489008 98.30310324 -102.42527479 93.49846155 -96.89306641 88.00488281 C-95.51457268 86.61850365 -95.51457268 86.61850365 -94.10823059 85.20411682 C-91.59653382 82.67878644 -89.07549189 80.16298631 -86.55221224 77.64923573 C-83.90883505 75.01347338 -81.27280737 72.37037699 -78.6355896 69.72845459 C-74.20742822 65.29484193 -69.77299382 60.8675774 -65.33496094 56.44384766 C-60.20730287 51.33252495 -55.09055523 46.21047097 -49.97932112 41.08272862 C-45.58559006 36.67537684 -41.18603118 32.27390673 -36.78156221 27.87728572 C-34.15311136 25.25350685 -31.52671749 22.62775518 -28.90556717 19.99668121 C-25.98415928 17.06498583 -23.05062927 14.14572083 -20.11572266 11.22753906 C-19.25009201 10.35583572 -18.38446136 9.48413239 -17.49259949 8.58601379 C-16.69071701 7.79259079 -15.88883453 6.99916779 -15.06265259 6.18170166 C-14.37059534 5.49077549 -13.67853809 4.79984932 -12.96550941 4.08798599 C-8.94891707 0.79674685 -5.10126008 0.06625013 0 0 Z " fill="#000000" transform="translate(108.875,-0.375)"/>
<path d="M0 0 C3.00647344 1.592739 5.22828882 3.85376661 7.59460258 6.2512722 C8.1430996 6.79508925 8.69159662 7.33890629 9.25671476 7.89920264 C11.09631788 9.72682157 12.92499063 11.56499954 14.75388908 13.40332603 C16.06917001 14.7145427 17.38508847 16.02512011 18.70159721 17.33510399 C22.27875629 20.89856376 25.84633285 24.47147627 29.41189313 28.04653716 C33.14294365 31.78517389 36.88129797 35.51649558 40.61849785 39.24898338 C46.89592769 45.5209513 53.16699708 51.79922675 59.43455315 58.08106041 C66.67936424 65.34218458 73.9349004 72.59245709 81.19613081 79.83715886 C87.42849291 86.05590161 93.65498255 92.28047872 99.87661356 98.50995761 C103.59312372 102.23114362 107.31162801 105.95027605 111.03543091 109.6641655 C114.53799138 113.15805266 118.03311746 116.65921133 121.52267075 120.1660881 C122.80400775 121.45138857 124.08789846 122.73414906 125.37452507 124.01415443 C127.13192402 125.76334223 128.87980076 127.52153203 130.62560844 129.28227806 C131.13552851 129.78550596 131.64544858 130.28873387 132.17082077 130.8072111 C136.98499904 135.70147436 139.47555018 140.18036345 139.42161369 147.08423424 C139.42934807 148.07423424 139.43708244 149.06423424 139.44505119 150.08423424 C138.3695336 158.18224903 132.58793306 162.96966559 127.0646801 168.45435143 C126.14568428 169.3786042 125.22668846 170.30285698 124.27984428 171.25511742 C121.76814751 173.7804478 119.24710558 176.29624792 116.72382593 178.80999851 C114.08044875 181.44576086 111.44442106 184.08885725 108.80720329 186.73077965 C104.37904191 191.16439231 99.94460751 195.59165683 95.50657463 200.01538658 C90.37891657 205.12670929 85.26216893 210.24876327 80.15093482 215.37650561 C75.75720375 219.7838574 71.35764488 224.18532751 66.9531759 228.58194852 C64.32472505 231.20572739 61.69833118 233.83147906 59.07718086 236.46255302 C56.15577297 239.39424841 53.22224296 242.31351341 50.28733635 245.23169518 C49.4217057 246.10339851 48.55607506 246.97510185 47.66421318 247.87322044 C46.46138947 249.06335495 46.46138947 249.06335495 45.23426628 250.27753258 C44.19618041 251.31392183 44.19618041 251.31392183 43.13712311 252.37124825 C38.23075856 256.39157635 33.18094512 256.56885454 27.05833244 256.47095299 C20.72400914 255.6575963 16.19915247 251.75584036 12.04661369 247.08423424 C13.24041081 244.26253196 14.50693687 242.57900149 16.60911369 240.27173424 C19.35761365 237.05019868 20.04661369 234.37314988 20.04661369 230.08423424 C19.21328036 227.58423424 19.21328036 227.58423424 17.04661369 226.08423424 C13.82919144 224.64678881 13.82919144 224.64678881 10.04661369 225.08423424 C7.76912106 226.68612738 5.88697905 228.43074461 3.94114494 230.42017174 C1.85638605 232.25132079 0.77797629 232.77015492 -1.95338631 233.08423424 C-4.24355097 231.1648864 -6.18620328 229.32075565 -8.20338631 227.14673424 C-8.75768318 226.56987877 -9.31198006 225.9930233 -9.88307381 225.39868736 C-11.25132775 223.97145695 -12.60389011 222.52921366 -13.95338631 221.08423424 C-12.14189583 216.49081196 -8.49744734 213.5789955 -4.94166756 210.32642174 C-1.62963078 207.1653357 0.13389056 204.59234648 1.04661369 200.08423424 C-0.4825071 195.75807144 -0.4825071 195.75807144 -3.95338631 193.08423424 C-6.69642527 192.41256717 -6.69642527 192.41256717 -9.95338631 193.08423424 C-13.68661378 195.63615646 -16.79917534 198.85042251 -19.87916756 202.14282799 C-20.48115974 202.78349205 -21.08315193 203.42415611 -21.70338631 204.08423424 C-22.23448006 204.68235924 -22.76557381 205.28048424 -23.31276131 205.89673424 C-24.95338631 207.08423424 -24.95338631 207.08423424 -26.79713631 207.11939049 C-30.02995431 205.56740358 -32.2652121 203.08469689 -34.70338631 200.52173424 C-35.20998787 200.00159752 -35.71658943 199.4814608 -36.23854256 198.94556236 C-37.48373036 197.6651334 -38.71950132 196.37555869 -39.95338631 195.08423424 C-38.6133465 192.10492243 -37.09717299 190.04378286 -34.82838631 187.70923424 C-32.64179306 185.20644246 -31.98782128 184.25985258 -31.32838631 180.89673424 C-32.10036792 177.42281696 -33.12450529 176.205895 -35.95338631 174.08423424 C-37.79606499 172.9985492 -37.79606499 172.9985492 -39.95338631 173.08423424 C-43.66455363 174.50553236 -45.82234706 175.94695503 -48.57838631 178.83423424 C-50.95338631 181.08423424 -50.95338631 181.08423424 -52.74244881 181.07251549 C-56.0413682 179.59791018 -58.25137337 177.0992439 -60.70338631 174.52173424 C-61.20998787 174.00159752 -61.71658943 173.4814608 -62.23854256 172.94556236 C-63.48373036 171.6651334 -64.71950132 170.37555869 -65.95338631 169.08423424 C-64.11354213 164.23583983 -59.98010566 161.13771529 -56.20924568 157.76978111 C-53.23378948 154.95378906 -52.05429445 153.45790969 -50.95338631 149.38110924 C-50.63763886 145.93572456 -50.63763886 145.93572456 -53.01588631 143.14673424 C-56.49112813 140.70667083 -57.79698599 140.5698797 -61.95338631 141.08423424 C-64.57690301 142.804005 -64.57690301 142.804005 -66.89088631 145.20923424 C-67.74295662 146.0252108 -68.59502693 146.84118736 -69.47291756 147.68189049 C-70.29147224 148.47466393 -71.11002693 149.26743736 -71.95338631 150.08423424 C-73.31781526 151.28386538 -74.69124868 152.47343527 -76.07838631 153.64673424 C-77.50151131 154.85329674 -77.50151131 154.85329674 -78.95338631 156.08423424 C-83.24338631 151.79423424 -87.53338631 147.50423424 -91.95338631 143.08423424 C-90.56119881 141.53735924 -90.56119881 141.53735924 -89.14088631 139.95923424 C-86.48806241 136.82751577 -84.29295538 134.01921838 -82.95338631 130.08423424 C-83.70783848 126.51773306 -84.37332354 124.664297 -86.95338631 122.08423424 C-90.20139191 121.52423327 -91.85691092 121.25347255 -94.95338631 122.08423424 C-97.99364313 124.44429801 -100.48354004 127.14143869 -102.95338631 130.08423424 C-106.76655109 128.4946714 -109.32617031 126.07662727 -112.26588631 123.20923424 C-113.16951912 122.34556236 -114.07315193 121.48189049 -115.00416756 120.59204674 C-116.95338631 118.08423424 -116.95338631 118.08423424 -116.85153866 116.22847271 C-115.61220275 113.26969658 -113.79542469 111.54197542 -111.53216743 109.26860619 C-111.0686103 108.79895795 -110.60505317 108.32930972 -110.12744886 107.84542972 C-108.57155394 106.27287941 -107.00513185 104.71126215 -105.43849373 103.14941978 C-104.3210875 102.0246749 -103.20430664 100.89930841 -102.08810616 99.77336693 C-99.05390002 96.71691949 -96.01009292 93.67020818 -92.9638021 90.62581038 C-90.42374666 88.08587448 -87.88804377 85.54161486 -85.35222226 82.99745303 C-79.37240574 76.99839457 -73.38443929 71.00755574 -67.39161873 65.0214901 C-61.2020032 58.83852273 -55.02731119 52.64092941 -48.85958022 46.43613786 C-43.56828053 41.11419668 -38.267419 35.80191337 -32.95882684 30.49722129 C-29.78617945 27.32664642 -26.61746537 24.15236996 -23.45807648 20.96857834 C-20.48880788 17.97713575 -17.50784206 14.99787664 -14.51728821 12.02771759 C-13.41966219 10.93351775 -12.32632007 9.83500187 -11.23754692 8.73199272 C-9.75477597 7.23117438 -8.25757134 5.74646519 -6.75555611 4.26494408 C-5.9198669 3.42854236 -5.08417768 2.59214064 -4.22316456 1.73039341 C-1.95338631 0.08423424 -1.95338631 0.08423424 0 0 Z " fill="#000000" transform="translate(372.9533863067627,255.9157657623291)"/>
<path d="M0 0 C3.1929565 1.52201154 5.34843698 3.10424819 7.85058594 5.62353516 C8.59105164 6.36415192 9.33151733 7.10476868 10.09442139 7.86782837 C10.88310608 8.66683563 11.67179077 9.4658429 12.484375 10.2890625 C13.29996887 11.10748627 14.11556274 11.92591003 14.95587158 12.76913452 C17.55864562 15.38309973 20.15437762 18.00393505 22.75 20.625 C24.5138634 22.39889454 26.2781809 24.17233766 28.04296875 25.9453125 C32.36726136 30.29165142 36.6857933 34.64365081 41 39 C35.67445901 45.46350289 29.80030819 51.33688573 23.87637329 57.24388123 C22.74078633 58.3799047 21.60541932 59.51614809 20.47025239 60.65259129 C17.36201831 63.76305456 14.25068633 66.87040263 11.13882709 69.97723854 C7.7792141 73.33252455 4.42250031 76.69070883 1.06542969 80.04853821 C-4.74743424 85.86192594 -10.5621232 91.67348302 -16.3780632 97.48379326 C-24.78688717 105.88448289 -33.19294155 114.2879394 -41.59832712 122.69206918 C-55.23628428 136.32783887 -68.87647214 149.96137489 -82.51806641 163.59350586 C-95.76793727 176.83419474 -109.01675523 190.07593571 -122.26416016 203.3190918 C-123.0810206 204.13568952 -123.89788105 204.95228724 -124.73949485 205.79363035 C-128.83752377 209.89035422 -132.93553202 213.98709877 -137.03353 218.0838536 C-171.01914867 252.05910913 -205.00838917 286.03073958 -239 320 C-242.1929565 318.47798846 -244.34843698 316.89575181 -246.85058594 314.37646484 C-247.59105164 313.63584808 -248.33151733 312.89523132 -249.09442139 312.13217163 C-249.88310608 311.33316437 -250.67179077 310.5341571 -251.484375 309.7109375 C-252.29996887 308.89251373 -253.11556274 308.07408997 -253.95587158 307.23086548 C-256.55864562 304.61690027 -259.15437762 301.99606495 -261.75 299.375 C-263.5138634 297.60110546 -265.2781809 295.82766234 -267.04296875 294.0546875 C-271.36726136 289.70834858 -275.6857933 285.35634919 -280 281 C-274.67445901 274.53649711 -268.80030819 268.66311427 -262.87637329 262.75611877 C-261.74078633 261.6200953 -260.60541932 260.48385191 -259.47025239 259.34740871 C-256.36201831 256.23694544 -253.25068633 253.12959737 -250.13882709 250.02276146 C-246.7792141 246.66747545 -243.42250031 243.30929117 -240.06542969 239.95146179 C-234.25256576 234.13807406 -228.4378768 228.32651698 -222.6219368 222.51620674 C-214.21311283 214.11551711 -205.80705845 205.7120606 -197.40167288 197.30793082 C-183.76371572 183.67216113 -170.12352786 170.03862511 -156.48193359 156.40649414 C-143.23206273 143.16580526 -129.98324477 129.92406429 -116.73583984 116.6809082 C-115.9189794 115.86431048 -115.10211895 115.04771276 -114.26050515 114.20636965 C-110.16247623 110.10964578 -106.06446798 106.01290123 -101.96647 101.9161464 C-67.98085133 67.94089087 -33.99161083 33.96926042 0 0 Z " fill="#000000" transform="translate(420,103)"/>
<path d="M0 0 C1.12358213 0.95822028 2.24648016 1.91724275 3.36908817 2.87660408 C3.99447517 3.41057371 4.61986216 3.94454334 5.26420027 4.49469388 C7.19145006 6.16602776 9.02374607 7.9032159 10.82397461 9.71044922 C11.48413071 10.37068085 12.1442868 11.03091248 12.82444763 11.71115112 C13.51015335 12.40201813 14.19585907 13.09288513 14.90234375 13.8046875 C15.6249086 14.5286673 16.34747345 15.25264709 17.0919342 15.99856567 C19.37616922 18.28835265 21.65688312 20.58160993 23.9375 22.875 C25.49521039 24.43773161 27.05315087 26.0002339 28.61132812 27.5625 C32.41021631 31.37235339 36.2060206 35.18525901 40 39 C34.67445901 45.46350289 28.80030819 51.33688573 22.87637329 57.24388123 C21.74078633 58.3799047 20.60541932 59.51614809 19.47025239 60.65259129 C16.36201831 63.76305456 13.25068633 66.87040263 10.13882709 69.97723854 C6.7792141 73.33252455 3.42250031 76.69070883 0.06542969 80.04853821 C-5.74743424 85.86192594 -11.5621232 91.67348302 -17.3780632 97.48379326 C-25.78688717 105.88448289 -34.19294155 114.2879394 -42.59832712 122.69206918 C-56.23628428 136.32783887 -69.87647214 149.96137489 -83.51806641 163.59350586 C-96.76793727 176.83419474 -110.01675523 190.07593571 -123.26416016 203.3190918 C-124.0810206 204.13568952 -124.89788105 204.95228724 -125.73949485 205.79363035 C-129.83752377 209.89035422 -133.93553202 213.98709877 -138.03353 218.0838536 C-172.01914867 252.05910913 -206.00838917 286.03073958 -240 320 C-243.14940547 318.49667312 -245.29085016 316.95358047 -247.75878906 314.46826172 C-248.83945648 313.38736771 -248.83945648 313.38736771 -249.94195557 312.28463745 C-250.70876648 311.50750397 -251.47557739 310.73037048 -252.265625 309.9296875 C-253.05902283 309.13345978 -253.85242065 308.33723206 -254.66986084 307.51687622 C-257.20130703 304.97424052 -259.72570803 302.42473652 -262.25 299.875 C-263.96568617 298.14928247 -265.68182662 296.42401645 -267.3984375 294.69921875 C-271.60424248 290.47136968 -275.80428507 286.23786131 -280 282 C-278.45316038 278.31784881 -276.22368755 275.97506137 -273.41227531 273.16617966 C-272.94059974 272.6921964 -272.46892417 272.21821313 -271.9829554 271.72986674 C-270.39519852 270.13680009 -268.80038616 268.55098984 -267.20553589 266.96502686 C-266.05668791 265.81530701 -264.90827941 264.66514789 -263.76027405 263.51458669 C-260.59964254 260.34947392 -257.43279307 257.19064659 -254.26491761 254.03278637 C-250.85163005 250.62811978 -247.44410778 247.21769184 -244.03588867 243.80795288 C-238.12854976 237.89956426 -232.21755423 231.99485431 -226.30407333 226.09261322 C-217.75413351 217.55891379 -209.20970868 209.01971007 -200.66662838 200.47914425 C-186.80656274 186.62345801 -172.94203482 172.77224582 -159.07470703 158.92382812 C-145.60231495 145.46978851 -132.1320209 132.01365406 -118.66455078 118.5546875 C-117.83469146 117.72535362 -117.00483213 116.89601975 -116.14982556 116.04155454 C-111.98676064 111.88109966 -107.82373702 107.72060347 -103.66073394 103.56008673 C-69.11355637 69.03364928 -34.55913915 34.51446425 0 0 Z " fill="#000000" transform="translate(369,51)"/>
<path d="M0 0 C5.48332769 4.57105419 10.56298829 9.42594541 15.59741211 14.48388672 C16.42748779 15.31381638 17.25756348 16.14374603 18.11279297 16.99882507 C20.83668894 19.72341379 23.55703263 22.45151995 26.27734375 25.1796875 C28.17284179 27.07705199 30.06853607 28.97421834 31.9644928 30.87112427 C36.43222586 35.34195434 40.89740564 39.81532534 45.36165386 44.28963482 C50.44799929 49.38719227 55.53721486 54.48188019 60.62666309 59.57633948 C71.08761876 70.04772258 81.54499952 80.52267093 92 91 C91.04779929 92.11592148 90.09488072 93.23123043 89.1416626 94.34628296 C88.34579428 95.27801362 88.34579428 95.27801362 87.53384781 96.22856712 C84.1065279 100.18676111 80.41856399 103.89227988 76.75 107.625 C75.55697266 108.87410156 75.55697266 108.87410156 74.33984375 110.1484375 C68.33519458 116.24039175 61.85075707 121.81618259 52.98828125 122.59375 C35.54490245 122.14886042 27.15766684 113.47587996 15.23828125 101.5390625 C14.11847656 100.4231537 12.99845195 99.30746557 11.8782196 98.19198608 C9.54260512 95.86379329 7.21085039 93.53181651 4.8815918 91.19726562 C1.91125335 88.22112534 -1.07031842 85.2565291 -4.05511761 82.29490089 C-6.36735136 79.99746528 -8.67255052 77.69306898 -10.97583961 75.38666916 C-12.07180901 74.2912095 -13.17011162 73.19807853 -14.27087975 72.10744095 C-23.00913155 63.43982093 -30.11159035 56.30865313 -30.375 43.4375 C-30.41238281 42.77169922 -30.44976563 42.10589844 -30.48828125 41.41992188 C-30.63815205 32.68578488 -26.53194168 26.37155865 -20.68243408 20.22087097 C-17.89714415 17.39018956 -15.04766114 14.62967155 -12.1875 11.875 C-11.00469886 10.71733035 -9.82304811 9.55848412 -8.64257812 8.3984375 C-5.7747953 5.58522408 -2.89193677 2.78836879 0 0 Z " fill="#000000" transform="translate(30,390)"/>
<path d="M0 0 C2.64122424 0.95901786 3.97579774 2.23061275 5.96744823 4.21077728 C6.71483761 4.94681686 7.46222698 5.68285645 8.23226452 6.44120026 C9.04231945 7.25418579 9.85237438 8.06717133 10.68697643 8.90479279 C11.54748104 9.75682785 12.40798565 10.60886292 13.29456615 11.48671722 C15.65131393 13.82406801 18.0010394 16.16804371 20.34714818 18.51604676 C22.30551903 20.47453724 24.26821135 22.42866896 26.2308051 24.38292617 C30.85868151 28.99156946 35.4783383 33.60834198 40.09322643 38.2299881 C44.85839015 43.00180086 49.63813913 47.7586424 54.42511588 52.50856382 C58.53263626 56.58543487 62.6304763 60.67186176 66.72075051 64.76603526 C69.16475182 67.21210812 71.61241176 69.65422169 74.06963062 72.08702278 C76.80642078 74.79751007 79.52294042 77.52775754 82.23775768 80.26026154 C83.05793377 81.06717438 83.87810986 81.87408722 84.72313976 82.70545197 C85.82307514 83.82220055 85.82307514 83.82220055 86.94523144 84.9615097 C87.58990022 85.60546597 88.234569 86.24942225 88.89877319 86.91289234 C90.13888073 88.77661896 90.13888073 88.77661896 89.91955471 90.91144466 C88.98953735 93.13342787 87.89253562 94.3843445 86.17965221 96.07642365 C85.55908443 96.69676483 84.93851665 97.31710602 84.29914379 97.95624542 C83.62621792 98.61368744 82.95329205 99.27112946 82.25997448 99.94849396 C81.57331203 100.63091156 80.88664959 101.31332916 80.17917919 102.01642609 C77.98518658 104.19363092 75.78099157 106.36017177 73.57638073 108.52661896 C72.08676439 110.00118867 70.59782353 111.47644109 69.10958385 112.95240021 C65.46047265 116.56844072 61.80217694 120.17495183 58.13888073 123.77661896 C54.93065901 122.36269248 52.78638014 120.67168265 50.31704235 118.19528961 C49.57109814 117.45209473 48.82515392 116.70889984 48.05660534 115.9431839 C46.84387951 114.71967224 46.84387951 114.71967224 45.60665417 113.47144318 C44.31830669 112.18353378 44.31830669 112.18353378 43.003932 110.86960602 C40.65348737 108.51800752 38.30756614 106.16206164 35.96354485 103.80407095 C33.51143273 101.33944904 31.05364866 98.8804967 28.5964613 96.42093658 C23.94599883 91.76426009 19.30065776 87.10250922 14.6571362 82.43891251 C9.36968154 77.12909647 4.07654089 71.82496416 -1.21708441 66.52130103 C-12.10476738 55.6127178 -22.98528978 44.6970209 -33.86111927 33.77661896 C-32.48604231 30.92523136 -31.16414961 28.81900015 -28.9436388 26.552742 C-28.35607807 25.94919388 -27.76851734 25.34564575 -27.16315174 24.72380829 C-26.21313786 23.76575035 -26.21313786 23.76575035 -25.24393177 22.78833771 C-24.26358463 21.79444786 -24.26358463 21.79444786 -23.2634325 20.78047943 C-21.88255579 19.38511887 -20.49887053 17.99253287 -19.11258411 16.60254669 C-16.98851027 14.46652341 -14.88380018 12.31256009 -12.77908802 10.15747833 C-11.43518783 8.80411998 -10.09017307 7.45186729 -8.74393177 6.10083771 C-8.11463764 5.45201126 -7.48534351 4.80318481 -6.83697987 4.13469696 C-5.94618229 3.25301598 -5.94618229 3.25301598 -5.0373888 2.35352325 C-4.26034092 1.5688694 -4.26034092 1.5688694 -3.4675951 0.76836395 C-1.86111927 -0.22338104 -1.86111927 -0.22338104 0 0 Z " fill="#000000" transform="translate(76.8611192703247,345.22338104248047)"/>
<path d="M0 0 C2.1265564 1.46472168 2.1265564 1.46472168 4.25537109 3.54492188 C5.05905121 4.31993042 5.86273132 5.09493896 6.69076538 5.89343262 C7.54304718 6.74328735 8.39532898 7.59314209 9.2734375 8.46875 C10.5981456 9.77205261 10.5981456 9.77205261 11.94961548 11.10168457 C13.81356998 12.9447004 15.67086769 14.79446926 17.52197266 16.65039062 C19.41912445 18.55242779 21.33134704 20.43681857 23.26025391 22.30664062 C26.0378993 25.00489756 28.78386053 27.73190874 31.5234375 30.46875 C32.38786469 31.30241089 33.25229187 32.13607178 34.14291382 32.99499512 C39.91730404 38.88313175 39.91730404 38.88313175 40.27758789 43.74902344 C39.90441808 45.18079511 39.46993957 46.5970094 39 48 C38.73352661 48.97042236 38.46705322 49.94084473 38.19250488 50.94067383 C37.20008764 54.49643251 36.12540666 58.01992118 35.03515625 61.546875 C34.63733829 62.84850838 34.24000262 64.15028925 33.84312439 65.45220947 C33.01417574 68.16651797 32.18082367 70.87941968 31.34399414 73.59130859 C30.27336751 77.06142907 29.2117726 80.53423065 28.15317631 84.00803757 C27.33499965 86.69065563 26.51315534 89.37213839 25.69009209 92.0532608 C25.10700783 93.95389244 24.52614951 95.8552065 23.94532776 97.75653076 C23.40983559 99.48918182 23.40983559 99.48918182 22.86352539 101.25683594 C22.39505943 102.7795108 22.39505943 102.7795108 21.91712952 104.33294678 C21.10706871 106.68863945 20.17887756 108.81037384 19 111 C15.83522451 109.59895711 13.69706859 107.94811421 11.25408936 105.50805664 C10.1604155 104.42284225 10.1604155 104.42284225 9.04464722 103.31570435 C8.25486481 102.52187347 7.4650824 101.7280426 6.65136719 100.91015625 C5.39228043 99.65632645 5.39228043 99.65632645 4.10775757 98.37716675 C1.8108882 96.08758744 -0.48142716 93.7935697 -2.7714777 91.49717331 C-5.16812411 89.09546121 -7.56964874 86.698635 -9.97039795 84.30102539 C-13.99884478 80.27621513 -18.02306027 76.24721023 -22.04492188 72.21582031 C-26.69913954 67.55070392 -31.36053851 62.89285623 -36.02570462 58.23869038 C-40.02943421 54.24402484 -44.02926803 50.2454899 -48.0258472 46.24367046 C-50.41363583 43.85275917 -52.80276623 41.4632308 -55.19541168 39.07717896 C-57.85811266 36.41952919 -60.51436472 33.75560112 -63.16894531 31.08984375 C-63.96682465 30.29601288 -64.76470398 29.50218201 -65.58676147 28.68429565 C-66.30459808 27.9608194 -67.02243469 27.23734314 -67.76202393 26.49194336 C-68.39102222 25.86219101 -69.02002052 25.23243866 -69.66807938 24.58360291 C-71 23 -71 23 -71 21 C-58.83252407 16.41853154 -46.42334177 12.61161742 -34.00170898 8.78686523 C-30.4122314 7.67970601 -26.82624693 6.56168339 -23.24023438 5.44335938 C-20.95072597 4.73631457 -18.66101944 4.02991092 -16.37109375 3.32421875 C-15.30338242 2.98992355 -14.23567108 2.65562836 -13.13560486 2.311203 C-12.14009109 2.00700943 -11.14457733 1.70281586 -10.11889648 1.3894043 C-9.248452 1.12024704 -8.37800751 0.85108978 -7.48118591 0.57377625 C-4.7914459 -0.04822831 -2.74623272 -0.34624498 0 0 Z " fill="#000000" transform="translate(454,18)"/>
<path d="M0 0 C2.63442784 2.04358506 3.47986009 3.65122066 3.90234375 6.93359375 C4.39491993 13.02598335 2.47703189 18.34774851 0.5625 24.0625 C0.22412109 25.11888672 -0.11425781 26.17527344 -0.46289062 27.26367188 C-1.29312553 29.84792418 -2.13897893 32.42587582 -3 35 C-7.07637122 33.37724852 -9.82612042 30.46284177 -12.859375 27.40625 C-13.40861633 26.85892212 -13.95785767 26.31159424 -14.52374268 25.74768066 C-15.67925859 24.5935222 -16.83226685 23.43684833 -17.98291016 22.27783203 C-19.750735 20.49926054 -21.5290213 18.73165237 -23.30859375 16.96484375 C-24.43032971 15.84178692 -25.55144551 14.71811024 -26.671875 13.59375 C-27.20617126 13.0635022 -27.74046753 12.53325439 -28.29095459 11.98693848 C-32 8.22993854 -32 8.22993854 -32 6 C-28.36320428 4.78352499 -24.71454616 3.60731344 -21.0625 2.4375 C-19.53012695 1.92413086 -19.53012695 1.92413086 -17.96679688 1.40039062 C-11.9474019 -0.50350747 -6.18332363 -2.12846971 0 0 Z " fill="#000000" transform="translate(504,5)"/>
</svg>
