<?xml version="1.0" encoding="UTF-8"?>
<svg version="1.1" xmlns="http://www.w3.org/2000/svg" width="512" height="512">
<path d="M0 0 C1.41886348 -0.004178 2.83772362 -0.00965806 4.25657761 -0.01631981 C8.13721529 -0.0307322 12.01763983 -0.02654294 15.89828897 -0.019153 C20.09062949 -0.01441316 24.28292444 -0.0269384 28.47525024 -0.03717041 C36.68136628 -0.05434792 44.88740571 -0.05520058 53.09353505 -0.04995751 C59.765145 -0.04591253 66.43673234 -0.04736326 73.10834122 -0.05270576 C74.05867012 -0.05345419 75.00899903 -0.05420261 75.98812578 -0.05497371 C77.91885693 -0.05650522 79.84958808 -0.05804357 81.78031923 -0.05958868 C99.87784276 -0.07331 117.97532305 -0.06787867 136.07284559 -0.05640347 C152.61919296 -0.04647205 169.16542848 -0.05941083 185.7117586 -0.08333766 C202.71314485 -0.10773675 219.71447902 -0.1173345 236.71588242 -0.11068493 C246.2562276 -0.10719444 255.79648678 -0.10941353 265.3368187 -0.12693596 C273.45848601 -0.14166808 281.58000676 -0.14228019 289.70167123 -0.12486505 C293.84283321 -0.11636089 297.9837335 -0.11419108 302.12488174 -0.1295166 C305.92110348 -0.14339133 309.71684002 -0.13856528 313.51303388 -0.11927737 C315.52558755 -0.11375786 317.53816608 -0.12776563 319.55067241 -0.14263147 C330.25538505 -0.05613735 338.89211816 1.99381155 347.08059692 9.1181488 C352.82934476 16.16460975 355.56359992 24.52688745 358.30957603 33.07084656 C359.04550562 35.36009095 359.79267415 37.64542026 360.54246521 39.93016052 C361.38927219 42.51115476 362.23525062 45.09239853 363.07807064 47.67469788 C366.68535549 58.72374587 370.38039131 69.74346052 374.06658554 80.76637268 C375.9690048 86.45757226 377.86766978 92.15002307 379.76630616 97.84248543 C380.84595617 101.07943607 381.92578235 104.31632794 383.00564575 107.5532074 C383.22076093 108.19801969 383.4358761 108.84283197 383.65750992 109.50718403 C385.18760367 114.09338533 386.71852599 118.67930957 388.24978638 123.26512146 C390.40475143 129.71881158 392.55805424 136.17305454 394.71042824 142.62760925 C395.51465421 145.03847522 396.31939696 147.44916889 397.12473106 149.85966492 C397.50403078 150.99506714 397.8833305 152.13046936 398.27412415 153.30027771 C398.64793465 154.41667004 399.02174515 155.53306236 399.40688324 156.68328476 C400.15226305 158.9294893 400.88703319 161.17924118 401.61138153 163.43231583 C403.36102603 168.85216539 405.20613677 174.13300019 407.45677185 179.36637878 C416.99542171 202.72218164 415.16551649 227.63508678 414.97643113 252.42623997 C414.93881628 258.37785937 414.94116234 264.32943028 414.94188055 270.28113899 C414.94169569 282.05421477 414.89885162 293.82673136 414.83084106 305.59959412 C414.76505605 316.99420857 414.72989671 328.3883807 414.728302 339.78318787 C414.72814765 340.84068705 414.72814765 340.84068705 414.72799019 341.91954985 C414.72789193 342.62340547 414.72779366 343.32726108 414.72769243 344.05244565 C414.72561077 357.75256354 414.69273303 371.45246438 414.64967895 385.15251064 C414.63920553 389.08522611 414.63413715 393.01791851 414.63016701 396.95064545 C414.62225345 403.12018619 414.59371512 409.28930477 414.54923058 415.45868683 C414.53596675 417.71935077 414.52941531 419.98006568 414.53010559 422.24076843 C414.5298286 425.32852921 414.50492342 428.41514977 414.47373962 431.50273132 C414.47925191 432.39415683 414.4847642 433.28558234 414.49044353 434.20402074 C414.3860715 440.65020137 412.95728308 446.03065177 408.555857 450.91498494 C401.63850972 457.13536939 393.81996264 456.75288921 385.05715942 456.76268005 C383.91118286 456.78717224 382.7652063 456.81166443 381.58450317 456.8368988 C374.07523246 456.86282264 368.15318338 456.32362841 362.41751099 450.97532654 C349.52141011 436.51697367 356.93215942 413.21606746 356.93215942 396.38768005 C225.59215942 396.38768005 94.25215942 396.38768005 -41.06784058 396.38768005 C-41.06784058 411.23768005 -41.06784058 426.08768005 -41.06784058 441.38768005 C-46.53026229 452.31252348 -46.53026229 452.31252348 -53.49362183 455.49705505 C-58.78485602 456.81552652 -63.94744457 456.75632207 -69.38034058 456.76268005 C-70.47024292 456.78717224 -71.56014526 456.81166443 -72.68307495 456.8368988 C-80.08867067 456.86361773 -86.96890546 456.1363977 -92.65084839 450.93992615 C-97.41476175 445.4804883 -98.40344001 441.02623315 -98.71209717 433.9306488 C-98.756226 433.06622713 -98.80035483 432.20180545 -98.8458209 431.31118917 C-98.99026828 428.39958985 -99.11961542 425.48757155 -99.24703979 422.57518005 C-99.29413314 421.55184224 -99.34122649 420.52850443 -99.3897469 419.47415638 C-100.68766263 391.14875092 -101.42600879 362.80556212 -101.90746677 334.45572233 C-101.94273919 332.39360716 -101.97930707 330.33151791 -102.01603794 328.26942825 C-103.44855998 246.6314466 -96.94457499 173.42996136 -68.44284058 95.88768005 C-68.09028544 94.92455399 -67.73773031 93.96142792 -67.37449169 92.96911621 C-60.12826298 73.19678281 -52.52980096 53.57296319 -44.25680542 34.20603943 C-43.98252897 33.56005924 -43.70825252 32.91407906 -43.42566466 32.24852371 C-34.57156677 11.49495763 -34.57156677 11.49495763 -27.75534058 6.45018005 C-27.07858276 5.92553162 -26.40182495 5.40088318 -25.70455933 4.8603363 C-17.36616319 0.20318765 -9.40861525 -0.04333815 0 0 Z M-0.06784058 44.38768005 C-25.55136671 101.8355486 -25.55136671 101.8355486 -38.06784058 161.38768005 C91.29215942 161.38768005 220.65215942 161.38768005 353.93215942 161.38768005 C345.03683496 121.35871995 328.89921169 83.28883685 315.93215942 44.38768005 C211.65215942 44.38768005 107.37215942 44.38768005 -0.06784058 44.38768005 Z M-7.75534058 251.70018005 C-16.3609082 261.70124513 -19.74833551 270.40737516 -19.40377808 283.6728363 C-18.44197857 294.30854942 -13.8413897 301.24103005 -6.06784058 308.38768005 C2.83665534 315.76658052 12.00583856 318.02156212 23.46731567 317.7353363 C35.14217133 316.56390208 43.987509 310.41145373 51.39309692 301.6025238 C57.60771812 292.65914762 59.36208928 281.40982893 57.47122192 270.80174255 C54.62734445 260.19575244 48.88390263 251.76285244 39.93215942 245.38768005 C23.34084459 236.21459733 6.21531432 239.67891886 -7.75534058 251.70018005 Z M266.99465942 254.70799255 C259.33891179 264.88375712 257.78064506 274.77458087 258.93215942 287.38768005 C261.01710387 298.25719043 268.23456325 305.94602288 276.93215942 312.38768005 C279.20575513 313.63768025 279.20575513 313.63768025 281.49465942 314.57518005 C282.23844849 314.89873474 282.98223755 315.22228943 283.74856567 315.5556488 C293.09722784 319.11784029 303.46925968 318.33845194 312.59622192 314.5243988 C317.93975384 311.92411822 321.90019224 308.72204477 325.93215942 304.38768005 C326.42844849 303.9081488 326.92473755 303.42861755 327.43606567 302.93455505 C333.48397647 296.68959454 336.05535259 288.55393609 336.43215942 279.95018005 C335.86215975 267.20792933 330.74703581 257.56708715 321.49465942 249.07518005 C304.15470479 235.07132408 281.06717369 237.85502184 266.99465942 254.70799255 Z " fill="#000000" transform="translate(98.06784057617188,27.612319946289063)"/>
</svg>
