<?xml version="1.0" standalone="no"?>
<!DOCTYPE svg PUBLIC "-//W3C//DTD SVG 20010904//EN"
 "http://www.w3.org/TR/2001/REC-SVG-20010904/DTD/svg10.dtd">
<svg version="1.0" xmlns="http://www.w3.org/2000/svg"
 width="512.000000pt" height="512.000000pt" viewBox="0 0 512.000000 512.000000"
 preserveAspectRatio="xMidYMid meet">

<g transform="translate(0.000000,512.000000) scale(0.100000,-0.100000)"
fill="#000000" stroke="none">
<path d="M663 4782 c-94 -33 -166 -106 -198 -201 -14 -42 -15 -245 -13 -1951
l3 -1905 30 -54 c37 -68 102 -125 171 -151 54 -20 73 -20 1150 -20 l1096 0
-31 38 c-384 459 -370 1095 32 1519 97 102 182 164 312 228 133 66 267 103
398 112 l97 6 -2 1086 -3 1086 -23 43 c-35 66 -88 119 -150 149 l-57 28 -1380
2 c-1304 2 -1383 2 -1432 -15z m2698 -311 l24 -19 0 -557 0 -557 -24 -19 c-23
-18 -57 -19 -1278 -19 -799 0 -1261 4 -1273 10 -37 20 -40 57 -40 592 0 438 2
523 15 548 8 15 20 30 27 33 7 3 578 6 1269 6 1223 1 1257 0 1280 -18z m-1932
-1656 c16 -8 31 -22 35 -30 3 -9 6 -97 6 -196 0 -178 0 -180 -25 -204 l-24
-25 -250 0 c-265 0 -290 4 -310 47 -15 32 -15 344 0 377 6 13 21 29 33 34 12
6 119 11 264 11 195 1 249 -2 271 -14z m920 0 c16 -8 31 -22 35 -30 3 -9 6
-97 6 -196 0 -178 0 -180 -25 -204 l-24 -25 -250 0 c-265 0 -290 4 -310 47
-15 32 -15 344 0 377 6 13 21 29 33 34 12 6 119 11 264 11 195 1 249 -2 271
-14z m920 0 c16 -8 31 -22 35 -30 3 -9 6 -97 6 -196 0 -178 0 -180 -25 -204
l-24 -25 -250 0 c-162 0 -259 4 -274 11 -41 19 -47 48 -47 230 l0 171 29 29
29 29 247 0 c196 0 252 -3 274 -15z m-1823 -728 c23 -27 24 -32 24 -208 0
-178 0 -180 -25 -204 l-24 -25 -261 0 -261 0 -24 25 c-25 24 -25 26 -25 202 0
191 5 213 54 233 11 5 133 8 269 7 l249 -2 24 -28z m918 4 l26 -24 0 -184 c0
-182 0 -184 -25 -208 l-24 -25 -261 0 -261 0 -24 25 c-25 24 -25 26 -25 202 0
191 5 213 54 233 11 5 132 8 268 7 246 -2 247 -2 272 -26z m-915 -717 c19 -25
21 -40 21 -204 0 -164 -2 -179 -21 -204 l-20 -26 -265 0 -265 0 -24 25 c-25
24 -25 26 -25 205 0 179 0 181 25 205 l24 25 265 0 265 0 20 -26z m920 0 c19
-25 21 -40 21 -204 0 -164 -2 -179 -21 -204 l-20 -26 -265 0 -265 0 -24 25
c-25 24 -25 26 -25 205 0 179 0 181 25 205 l24 25 265 0 265 0 20 -26z"/>
<path d="M930 3895 l0 -435 1150 0 1150 0 0 435 0 435 -1150 0 -1150 0 0 -435z
m261 374 c30 -15 351 -665 343 -693 -18 -58 -76 -83 -122 -50 -28 19 -342 643
-342 679 0 54 70 92 121 64z m398 -175 c23 -17 191 -343 191 -373 0 -50 -64
-90 -113 -70 -24 10 -44 42 -118 192 -95 192 -98 203 -53 245 30 26 61 28 93
6z"/>
<path d="M1010 2595 l0 -75 150 0 150 0 0 75 0 75 -150 0 -150 0 0 -75z"/>
<path d="M1930 2595 l0 -75 150 0 150 0 0 75 0 75 -150 0 -150 0 0 -75z"/>
<path d="M2850 2595 l0 -75 150 0 150 0 0 75 0 75 -150 0 -150 0 0 -75z"/>
<path d="M1010 1885 l0 -75 150 0 150 0 0 75 0 75 -150 0 -150 0 0 -75z"/>
<path d="M1930 1885 l0 -75 150 0 150 0 0 75 0 75 -150 0 -150 0 0 -75z"/>
<path d="M1010 1170 l0 -70 150 0 150 0 0 70 0 70 -150 0 -150 0 0 -70z"/>
<path d="M1930 1170 l0 -70 150 0 150 0 0 70 0 70 -150 0 -150 0 0 -70z"/>
<path d="M3510 2221 c-312 -68 -575 -288 -691 -578 -115 -286 -81 -618 89
-884 91 -140 233 -270 377 -341 261 -130 596 -129 859 4 168 84 312 227 406
400 77 143 109 261 117 428 11 254 -64 472 -230 663 -114 132 -310 253 -482
298 -116 31 -330 35 -445 10z m521 -365 c67 -21 126 -53 133 -71 12 -33 5 -66
-19 -90 -30 -31 -54 -31 -125 -3 -44 18 -76 22 -160 23 -98 0 -110 -2 -172
-32 -67 -32 -148 -89 -148 -105 0 -4 59 -8 132 -8 121 0 134 -2 155 -22 29
-27 30 -77 4 -109 -19 -23 -24 -24 -205 -27 l-186 -3 -7 -27 c-10 -35 -10
-169 0 -204 l7 -28 183 0 c182 0 184 0 207 -25 32 -34 30 -83 -5 -113 -24 -20
-36 -22 -158 -22 l-132 -1 44 -39 c119 -108 308 -136 461 -69 74 33 130 4 130
-66 0 -44 -31 -69 -125 -100 -99 -34 -233 -38 -335 -11 -134 36 -274 133 -341
236 l-32 50 -89 0 c-93 0 -140 14 -152 45 -12 33 -5 66 19 90 20 21 34 25 87
25 l63 0 0 130 0 130 -52 0 c-63 0 -97 14 -112 47 -17 37 -13 62 14 88 22 23
31 25 122 25 l98 0 28 44 c40 63 142 155 214 194 101 53 191 73 308 68 55 -3
121 -12 146 -20z"/>
</g>
</svg>
