<?xml version="1.0" encoding="UTF-8"?>
<svg version="1.1" xmlns="http://www.w3.org/2000/svg" width="512" height="512">
<path d="M0 0 C1.39489222 1.18860534 2.79060557 2.37624838 4.1875 3.5625 C15.89489084 13.94729857 25.46724062 25.55896047 34.1875 38.5 C34.60854004 39.1197168 35.02958008 39.73943359 35.46337891 40.37792969 C37.48617841 43.42920401 39.24994821 46.4119997 40.69921875 49.77734375 C43.89141348 56.94322487 46.66880728 60.41731896 53.93359375 63.40600586 C57.44186644 64.69912754 60.97414358 65.91111374 64.51708984 67.10546875 C100.78066652 80.17034043 130.15523535 114.92414372 146.25 148.6171875 C156.02076898 170.05714984 160.43878445 192.9168037 160.375 216.375 C160.37368576 217.55970383 160.37368576 217.55970383 160.37234497 218.76834106 C160.20540005 264.56497247 141.63909492 304.82448319 109.35644531 337.01245117 C97.91732317 348.12470344 85.16464142 356.74867139 71 364 C70.38302246 364.31807617 69.76604492 364.63615234 69.13037109 364.96386719 C46.19624506 376.62900597 21.05498111 382.16416835 -4.6415863 382.14044189 C-5.66578 382.14341302 -6.68997369 382.14638414 -7.74520355 382.1494453 C-11.15232841 382.15806656 -14.55941786 382.15963495 -17.96655273 382.16113281 C-20.41992771 382.1657657 -22.87330198 382.17079099 -25.32667542 382.17617798 C-31.97590859 382.18925994 -38.62512807 382.19577653 -45.27437091 382.20018864 C-49.43585063 382.20296188 -53.59732806 382.20720117 -57.75880623 382.21169281 C-69.30821683 382.22387808 -80.85762562 382.23417842 -92.4070425 382.2375679 C-93.51360322 382.23789725 -93.51360322 382.23789725 -94.6425187 382.23823325 C-95.75154695 382.23856067 -95.75154695 382.23856067 -96.88297981 382.2388947 C-98.38088954 382.23933815 -99.87879926 382.23978471 -101.37670898 382.24023438 C-102.11970499 382.2404558 -102.862701 382.24067723 -103.62821204 382.24090537 C-115.64897438 382.24484767 -127.6696759 382.26228763 -139.69041478 382.2855939 C-152.06785133 382.30939559 -164.44525747 382.32177376 -176.82271725 382.32293582 C-183.75764826 382.32384771 -190.69250001 382.32947627 -197.62740898 382.34775543 C-204.15854471 382.36491115 -210.68957081 382.36634368 -217.22072411 382.35761642 C-219.6041784 382.3568513 -221.98764106 382.36111855 -224.37107468 382.37107468 C-260.74070135 382.51396404 -290.57952847 374.17078272 -317.125 348.375 C-341.68542696 323.65221242 -352.4662606 290.65106543 -352.36914062 256.36923218 C-352.28295994 246.2988095 -351.83350904 236.72874015 -349 227 C-348.81195801 226.34531738 -348.62391602 225.69063477 -348.43017578 225.01611328 C-343.89479537 209.68530073 -336.56868334 195.33816746 -327.0625 182.5 C-326.40096924 181.60365845 -326.40096924 181.60365845 -325.72607422 180.68920898 C-323.39003768 177.66758751 -321.13895416 175.11591581 -318.18896484 172.6550293 C-313.88749292 169.03430474 -310.46143778 166.03151253 -309.16430664 160.32080078 C-309.04805826 156.83590904 -309.0909785 153.48237904 -309.34292603 150.01104736 C-309.61199047 146.24498156 -309.68664748 142.47275279 -309.79296875 138.69921875 C-309.83232796 137.57664673 -309.83232796 137.57664673 -309.8724823 136.43139648 C-310.81041719 106.81111573 -300.97892132 76.78919005 -287 51 C-286.15308594 49.43185547 -286.15308594 49.43185547 -285.2890625 47.83203125 C-278.6433992 36.02271876 -270.77856479 25.43327392 -261.46484375 15.6171875 C-259.49356705 13.52407278 -257.6338744 11.4086883 -255.8125 9.1875 C-252.55628127 5.36258955 -248.87465868 2.18541651 -245 -1 C-243.989375 -1.83660156 -242.97875 -2.67320313 -241.9375 -3.53515625 C-214.01884646 -26.26822195 -180.64052921 -40.23370168 -145 -45 C-144.07960937 -45.13148437 -143.15921875 -45.26296875 -142.2109375 -45.3984375 C-91.44164117 -51.36181516 -37.81758215 -34.1227609 0 0 Z M-217 63 C-231.44083901 80.21181156 -240.51229394 101.92854673 -244 124 C-244.13148438 124.78375 -244.26296875 125.5675 -244.3984375 126.375 C-247.08437271 145.53951067 -243.41532497 164.70891726 -238.53833008 183.19799805 C-238.3245874 184.02984619 -238.11084473 184.86169434 -237.890625 185.71875 C-237.69500977 186.45029297 -237.49939453 187.18183594 -237.29785156 187.93554688 C-236.9454532 190.3780719 -237.00819233 191.7306883 -238 194 C-239.92675781 195.45703125 -239.92675781 195.45703125 -242.453125 196.8125 C-243.37649658 197.32417725 -244.29986816 197.83585449 -245.2512207 198.36303711 C-246.73561646 199.17333374 -246.73561646 199.17333374 -248.25 200 C-266.43119456 210.37651289 -279.9923064 223.25542226 -286.19140625 243.8046875 C-289.97982582 260.7106641 -286.84321161 278.46547971 -278.12011719 293.27734375 C-270.95104401 304.30284077 -260.83678458 312.74395428 -248 316 C-247.33337184 316.17330212 -246.66674368 316.34660423 -245.97991467 316.52515793 C-241.70924736 317.20567826 -237.49884422 317.14446365 -233.18074036 317.14044189 C-232.18461454 317.14341302 -231.18848872 317.14638414 -230.16217726 317.1494453 C-226.82010513 317.15812524 -223.47806885 317.15964 -220.13598633 317.16113281 C-217.74083886 317.16576173 -215.34569213 317.17078649 -212.95054626 317.17617798 C-206.43744607 317.18930268 -199.92435274 317.19578502 -193.41124177 317.20018864 C-189.33740436 317.20295567 -185.26356932 317.20719408 -181.18973351 317.21169281 C-169.89272746 317.22388799 -158.5957233 317.23418401 -147.29871082 317.2375679 C-146.57588218 317.23778747 -145.85305353 317.23800703 -145.10832099 317.23823325 C-144.38382255 317.23845153 -143.65932412 317.23866981 -142.91287118 317.2388947 C-141.44492519 317.23933816 -139.9769792 317.23978472 -138.5090332 317.24023438 C-137.78089106 317.2404558 -137.05274893 317.24067723 -136.30254187 317.24090537 C-124.53297997 317.24484408 -112.76348033 317.26226854 -100.99394242 317.2855939 C-88.88674189 317.30939282 -76.77957247 317.32177377 -64.6723482 317.32293582 C-57.88436823 317.32384826 -51.09646922 317.32949022 -44.30851173 317.34775543 C-37.91203706 317.36433134 -31.51571506 317.36634566 -25.11922646 317.35761642 C-22.783733 317.35685094 -20.44823102 317.36112342 -18.11275864 317.37107468 C15.13797568 317.50433013 42.97540611 310.1157408 67.6875 286.75 C88.27362465 265.1835837 95.59200096 239.3675225 95.2734375 210.08984375 C94.58416095 184.20785043 81.45437342 161.94498845 63.78515625 143.71484375 C48.77125366 129.65154207 30.61013432 122.35084888 10.8125 118.04296875 C10.00047119 117.85508789 9.18844238 117.66720703 8.35180664 117.47363281 C6.03388549 116.95393106 6.03388549 116.95393106 3.77124023 116.84667969 C1.40837368 116.59135415 0.00640457 116.29240868 -2 115 C-4.30618377 111.18862306 -5.57233289 107.0983666 -6.9375 102.875 C-7.7799529 100.49285249 -8.63153163 98.11391277 -9.4921875 95.73828125 C-9.91081055 94.58021973 -10.32943359 93.4221582 -10.76074219 92.22900391 C-15.14637356 80.80182492 -21.8890407 71.10182693 -30 62 C-31.06154297 60.74123047 -31.06154297 60.74123047 -32.14453125 59.45703125 C-52.72038915 35.54454774 -82.87782322 21.9535302 -114 19 C-154.02046357 16.29790421 -190.66028131 33.46403845 -217 63 Z " fill="#fff" transform="translate(352,88)"/>
<path d="M0 0 C21.45 0 42.9 0 65 0 C65 28.05 65 56.1 65 85 C82.82 85 100.64 85 119 85 C117.07545658 88.84908683 115.21988495 91.13335457 112.3125 94.25 C111.39921125 95.23779303 110.48645231 96.22607617 109.57421875 97.21484375 C108.29998047 98.59349609 108.29998047 98.59349609 107 100 C103.70736839 103.68000003 100.4887909 107.42275993 97.2890625 111.18359375 C91.94561163 117.45736588 86.53959835 123.63788196 80.93017578 129.67529297 C78.03251776 132.81503117 75.29653427 136.04166489 72.625 139.375 C68.53583224 144.45883019 64.16834621 149.22550484 59.69189453 153.96630859 C56.47956963 157.37338007 53.40533574 160.84494215 50.44458008 164.47412109 C45.54409687 169.65039624 39.25253528 171.1390951 32.375 171.375 C23.91934199 171.27213311 17.98211758 168.16924881 11.9375 162.375 C8.25775008 158.44602399 4.91688465 154.25214286 1.55078125 150.0546875 C-1.34856868 146.58257166 -4.39854501 143.29073726 -7.5 140 C-11.32225967 135.94141929 -15.01439198 131.85701003 -18.5 127.5 C-23.06041926 121.80368295 -28.01734663 116.52680934 -33.00390625 111.20703125 C-36.43101478 107.54997208 -39.73849985 103.80508351 -43 100 C-44.02839103 98.81358117 -45.05706512 97.62740767 -46.0859375 96.44140625 C-47.20337284 95.14865169 -48.32055848 93.85568124 -49.4375 92.5625 C-49.982854 91.93408203 -50.52820801 91.30566406 -51.09008789 90.65820312 C-55 86.11420066 -55 86.11420066 -55 85 C-36.85 85 -18.7 85 0 85 C0 56.95 0 28.9 0 0 Z " fill="#fff" transform="translate(213,192)"/>
</svg>
