<?xml version="1.0" standalone="no"?>
<!DOCTYPE svg PUBLIC "-//W3C//DTD SVG 20010904//EN"
 "http://www.w3.org/TR/2001/REC-SVG-20010904/DTD/svg10.dtd">
<svg version="1.0" xmlns="http://www.w3.org/2000/svg"
 width="512.000000pt" height="512.000000pt" viewBox="0 0 512.000000 512.000000"
 preserveAspectRatio="xMidYMid meet">

<g transform="translate(0.000000,512.000000) scale(0.100000,-0.100000)"
fill="#000000" stroke="none">
<path d="M3146 5109 c-462 -67 -851 -412 -971 -859 -42 -159 -47 -260 -42
-860 5 -600 7 -627 63 -795 59 -178 159 -345 289 -483 l75 -80 0 -230 0 -230
-202 -87 c-123 -52 -235 -108 -284 -141 -138 -91 -246 -226 -305 -379 -54
-138 -59 -182 -59 -508 0 -328 1 -337 67 -399 65 -62 -44 -58 1629 -58 1179 0
1536 3 1568 12 56 17 119 82 135 139 10 35 12 122 9 345 -4 290 -5 302 -31
387 -54 174 -143 312 -272 416 -86 70 -137 97 -352 191 l-193 83 0 231 0 231
71 75 c131 139 237 318 293 499 56 176 57 204 53 893 -3 614 -4 636 -25 716
-125 472 -501 817 -969 887 -108 16 -446 19 -547 4z"/>
<path d="M1395 4678 c-137 -25 -275 -81 -400 -163 -84 -54 -262 -235 -325
-329 -70 -105 -153 -280 -185 -391 -53 -183 -57 -240 -53 -756 4 -474 4 -474
30 -569 67 -246 168 -427 327 -585 l61 -60 0 -126 0 -127 -157 -67 c-227 -97
-301 -136 -384 -204 -140 -113 -230 -254 -286 -451 -22 -75 -31 -629 -12 -699
16 -57 79 -122 135 -139 31 -9 188 -12 606 -12 l565 0 -16 53 c-13 43 -16 111
-16 407 0 310 2 366 19 440 54 248 164 455 333 631 106 110 226 196 373 267
63 30 117 56 119 58 1 1 -33 51 -77 109 -140 187 -236 387 -292 608 -49 195
-52 249 -48 947 4 619 5 649 26 742 26 114 82 279 122 359 25 49 27 58 14 63
-25 9 -424 5 -479 -6z"/>
</g>
</svg>
