<?xml version="1.0" standalone="no"?>
<!DOCTYPE svg PUBLIC "-//W3C//DTD SVG 20010904//EN"
 "http://www.w3.org/TR/2001/REC-SVG-20010904/DTD/svg10.dtd">
<svg version="1.0" xmlns="http://www.w3.org/2000/svg"
 width="512.000000pt" height="512.000000pt" viewBox="0 0 512.000000 512.000000"
 preserveAspectRatio="xMidYMid meet">

<g transform="translate(0.000000,512.000000) scale(0.100000,-0.100000)"
fill="#000000" stroke="none">
<path d="M2856 4539 c-330 -35 -648 -224 -837 -497 -69 -99 -142 -257 -176
-377 l-28 -100 -5 -981 -5 -980 -37 -76 c-45 -91 -103 -147 -196 -191 -61 -29
-76 -32 -162 -32 -86 0 -101 3 -162 32 -93 44 -151 100 -196 191 l-37 76 -5
1321 -5 1320 -32 66 c-39 80 -111 150 -191 187 -50 24 -69 27 -157 27 -92 0
-106 -3 -167 -32 -115 -54 -194 -157 -218 -282 -14 -73 -14 -2464 0 -2586 57
-500 418 -908 906 -1020 569 -133 1156 181 1362 729 78 206 75 163 81 1186 l6
915 28 58 c56 114 166 195 296 219 167 31 345 -62 423 -220 l33 -67 3 -709 3
-709 -53 47 c-29 26 -82 61 -118 79 -60 30 -73 32 -165 32 -93 0 -105 -2 -166
-32 -80 -39 -150 -111 -187 -191 -24 -50 -27 -69 -27 -162 0 -171 -11 -155
454 -623 218 -219 416 -411 441 -427 111 -71 257 -78 379 -19 59 28 108 74
472 438 342 342 410 415 432 462 135 291 -89 600 -404 557 -77 -10 -146 -44
-220 -109 l-58 -50 -3 768 -4 768 -26 101 c-130 493 -531 841 -1028 894 -107
11 -132 11 -244 -1z"/>
</g>
</svg>
