<?xml version="1.0" encoding="UTF-8"?>
<svg version="1.1" xmlns="http://www.w3.org/2000/svg" width="512" height="512">
<path d="M0 0 C25.08 0 50.16 0 76 0 C80.49990281 11.24975704 80.49990281 11.24975704 81.86740112 15.36842346 C82.18081955 16.30737457 82.49423798 17.24632568 82.81715393 18.21372986 C83.145457 19.20740067 83.47376007 20.20107147 83.81201172 21.22485352 C84.17049698 22.30162354 84.52898224 23.37839355 84.89833069 24.48779297 C86.07821741 28.03391724 87.25389865 31.58142138 88.4296875 35.12890625 C89.2645109 37.63966588 90.09960583 40.15033347 90.93508911 42.66087341 C93.13864836 49.28419552 95.3384974 55.90874538 97.53753662 62.53356934 C101.22277187 73.63554449 104.91207168 84.73616962 108.60420322 95.8358531 C109.02973727 97.11519013 109.45522283 98.39454329 109.88066006 99.67391253 C116.26618949 118.87606567 122.72299745 138.05197533 129.30034828 157.18928814 C131.67981626 164.11664472 134.0452261 171.04870402 136.38232422 177.99047852 C136.64499147 178.7636312 136.90765873 179.53678389 137.1782856 180.33336544 C139 185.76949138 139 185.76949138 139 188 C140.19753906 187.95359375 141.39507812 187.9071875 142.62890625 187.859375 C163.21483867 187.29811442 182.47410464 192.94530844 198 207 C198.66 207.56847656 199.32 208.13695312 200 208.72265625 C209.33930507 217.31408729 215.97653985 229.05584575 220 241 C220.31839844 241.94488281 220.63679688 242.88976562 220.96484375 243.86328125 C226.72173366 264.31748459 223.2265253 285.90149641 213.19921875 304.3046875 C202.55450436 322.76816984 185.69550931 334.32887978 165.59375 340.08984375 C144.7411582 345.37098928 123.23752388 341.85322403 104.77783203 331.10302734 C86.51576295 319.77261975 75.48717603 302.34729652 70 282 C65.37918231 261.11745852 70.01549895 239.99753346 81 222 C86.94208628 213.44508145 94.39956302 205.91392731 103 200 C103.66 200 104.32 200 105 200 C104.78794922 199.34402832 104.57589844 198.68805664 104.35742188 198.01220703 C103.40194793 195.05076278 102.45092126 192.08790909 101.5 189.125 C101.16613281 188.09246094 100.83226562 187.05992187 100.48828125 185.99609375 C100.17246094 185.00996094 99.85664063 184.02382813 99.53125 183.0078125 C99.23798828 182.09660645 98.94472656 181.18540039 98.64257812 180.24658203 C98 178 98 178 98 176 C72.11413082 191.77769836 54.63182911 213.40358205 47 243 C43.94648963 255.72849161 44.49889392 269.02875803 44 282 C17.93 282 -8.14 282 -35 282 C-35.66 284.97 -36.32 287.94 -37 291 C-42.41717533 309.15558265 -56.28155979 323.44311389 -72.21484375 332.91015625 C-90.84253064 342.96014539 -112.49395802 345.20588128 -132.8984375 339.38671875 C-152.96254834 332.96524557 -169.29968287 319.35613404 -179.20703125 300.73828125 C-188.11379646 282.92002577 -190.43131788 260.65518824 -184.390625 241.5546875 C-180.09963894 230.58615571 -175.01873519 220.7434146 -167 212 C-166.37480469 211.29488281 -165.74960938 210.58976563 -165.10546875 209.86328125 C-152.67892626 196.57624499 -134.42179689 188.51532722 -116.37109375 187.68359375 C-93.82544699 187.05112216 -73.92982945 192.55468918 -57 208 C-56.3915625 208.51691406 -55.783125 209.03382813 -55.15625 209.56640625 C-44.81838901 218.94096656 -37.2679318 233.3924092 -35 247 C-25.1 246.505 -25.1 246.505 -15 246 C-15.81791016 243.55674316 -16.63582031 241.11348633 -17.47851562 238.59619141 C-20.17544344 230.53849453 -22.86908244 222.47970108 -25.56108856 214.42035866 C-27.19392244 209.53231015 -28.82787444 204.64464129 -30.46435547 199.7578125 C-32.04254703 195.04491158 -33.61783579 190.33104974 -35.19108582 185.61649704 C-35.79290201 183.81475406 -36.39577711 182.01336442 -36.99971008 180.21232986 C-37.8430775 177.69666964 -38.68272759 175.17979821 -39.52148438 172.66259766 C-39.77395432 171.91237839 -40.02642426 171.16215912 -40.2865448 170.38920593 C-42 165.22810432 -42 165.22810432 -42 163 C-89.85 163 -137.7 163 -187 163 C-187 151.45 -187 139.9 -187 128 C-143.11 128 -99.22 128 -54 128 C-57.63 117.44 -61.26 106.88 -65 96 C-77.21 95.67 -89.42 95.34 -102 95 C-102 83.45 -102 71.9 -102 60 C-68.01 60 -34.02 60 1 60 C1 71.55 1 83.1 1 95 C-8.24 95 -17.48 95 -27 95 C-13.14 136.58 0.72 178.16 15 221 C18.88679914 212.58191468 18.88679914 212.58191468 22.765625 204.16015625 C34.50319616 179.66569853 54.10705405 160.08673384 77.5 146.5625 C78.41797363 146.03064087 78.41797363 146.03064087 79.35449219 145.48803711 C83.75160863 143 83.75160863 143 86 143 C84.10888934 137.1442988 82.2122002 131.29042012 80.3125 125.4375 C80.01486755 124.52026154 79.71723511 123.60302307 79.4105835 122.6579895 C75.13071349 109.48138518 70.78683322 96.32697141 66.39453125 83.1875 C66.15596972 82.47356646 65.91740818 81.75963291 65.67161751 81.02406502 C63.27346431 73.8475563 60.87240901 66.67203838 58.46303463 59.49928856 C57.55529044 56.79515899 56.64987387 54.09025382 55.74495506 51.38517761 C55.11350224 49.50048029 54.47881715 47.6168669 53.84407043 45.73327637 C53.46836411 44.60949585 53.09265778 43.48571533 52.70556641 42.32788086 C52.37473053 41.34283066 52.04389465 40.35778046 51.70303345 39.34288025 C51 37 51 37 51 35 C34.17 35 17.34 35 0 35 C0 23.45 0 11.9 0 0 Z " fill="#000000" transform="translate(238,85)"/>
</svg>
