<?xml version="1.0" standalone="no"?>
<!DOCTYPE svg PUBLIC "-//W3C//DTD SVG 20010904//EN"
 "http://www.w3.org/TR/2001/REC-SVG-20010904/DTD/svg10.dtd">
<svg version="1.0" xmlns="http://www.w3.org/2000/svg"
 width="512.000000pt" height="512.000000pt" viewBox="0 0 512.000000 512.000000"
 preserveAspectRatio="xMidYMid meet">

<g transform="translate(0.000000,512.000000) scale(0.100000,-0.100000)"
fill="#000000" stroke="none">
<path d="M244 5111 c-48 -12 -133 -62 -160 -94 -14 -17 -37 -53 -52 -81 l-27
-51 0 -2325 0 -2325 27 -51 c40 -76 70 -107 140 -145 l63 -34 2325 0 2325 0
52 27 c66 35 116 85 151 151 l27 52 0 725 0 725 -34 63 c-38 70 -69 100 -145
140 l-51 27 -362 3 -362 3 -3 -430 c-3 -416 -4 -430 -24 -457 -32 -44 -68 -66
-116 -71 -58 -7 -108 15 -144 63 l-29 37 -3 429 -3 428 -319 0 -319 0 -3 -429
c-3 -416 -4 -430 -24 -457 -32 -44 -68 -66 -116 -71 -58 -7 -108 15 -144 63
l-29 37 -3 429 -3 428 -319 0 -319 0 -3 -429 c-3 -416 -4 -430 -24 -457 -32
-44 -68 -66 -116 -71 -58 -7 -108 15 -144 63 l-29 37 -3 429 -3 428 -415 0
c-461 0 -460 0 -510 66 -24 31 -29 47 -29 95 0 62 17 94 69 133 27 20 41 21
457 24 l429 3 0 319 0 320 -415 0 c-462 0 -461 0 -511 66 -24 31 -29 47 -29
95 0 62 17 94 69 133 27 20 41 21 457 24 l429 3 0 318 0 318 -417 8 c-452 8
-459 8 -506 64 -65 78 -40 194 53 241 37 19 61 20 455 20 l416 0 -3 358 c-3
342 -4 359 -25 404 -27 60 -94 127 -158 158 l-50 25 -705 2 c-388 1 -719 -2
-736 -6z"/>
</g>
</svg>
