<?xml version="1.0" standalone="no"?>
<!DOCTYPE svg PUBLIC "-//W3C//DTD SVG 20010904//EN"
 "http://www.w3.org/TR/2001/REC-SVG-20010904/DTD/svg10.dtd">
<svg version="1.0" xmlns="http://www.w3.org/2000/svg"
 width="512.000000pt" height="512.000000pt" viewBox="0 0 512.000000 512.000000"
 preserveAspectRatio="xMidYMid meet">

<g transform="translate(0.000000,512.000000) scale(0.100000,-0.100000)"
fill="#000000" stroke="none">
<path d="M1065 4873 c-28 -166 -107 -278 -245 -346 -61 -30 -70 -32 -180 -32
-105 0 -120 2 -174 28 -33 15 -79 43 -103 63 -51 42 -29 54 -221 -115 l-143
-125 48 -49 c65 -66 181 -141 277 -178 308 -119 647 -57 891 164 l65 59 56
-51 c77 -70 131 -106 227 -151 111 -51 192 -70 322 -77 230 -11 444 68 619
228 l56 51 56 -51 c77 -70 131 -106 227 -151 111 -51 192 -70 322 -77 231 -11
444 68 619 228 l57 52 42 -40 c101 -97 236 -176 369 -214 92 -26 269 -36 364
-20 169 29 325 105 441 214 l65 63 -143 124 c-80 69 -152 131 -161 138 -15 12
-23 9 -61 -22 -24 -19 -70 -48 -103 -63 -54 -26 -69 -28 -174 -28 -110 0 -119
2 -180 32 -137 67 -221 185 -245 346 l-6 37 -208 0 -209 0 -12 -67 c-16 -95
-54 -169 -121 -236 -168 -168 -430 -168 -598 0 -67 67 -105 141 -121 236 l-12
67 -208 0 -208 0 -12 -67 c-16 -95 -54 -169 -121 -236 -168 -168 -430 -168
-598 0 -67 67 -105 141 -121 236 l-12 67 -209 0 -208 0 -6 -37z"/>
<path d="M1065 3593 c-28 -166 -107 -278 -245 -346 -61 -30 -70 -32 -180 -32
-105 0 -120 2 -174 28 -33 15 -79 43 -103 63 -51 42 -29 54 -221 -115 l-143
-125 48 -49 c65 -66 181 -141 277 -178 308 -119 647 -57 891 164 l65 59 56
-51 c77 -70 131 -106 227 -151 111 -51 192 -70 322 -77 230 -11 444 68 619
228 l56 51 56 -51 c77 -70 131 -106 227 -151 111 -51 192 -70 322 -77 231 -11
444 68 619 228 l57 52 42 -40 c101 -97 236 -176 369 -214 92 -26 269 -36 364
-20 169 29 325 105 441 214 l65 63 -143 124 c-80 69 -152 131 -161 139 -15 11
-23 8 -60 -23 -171 -147 -419 -137 -577 21 -67 67 -105 141 -121 236 l-12 67
-208 0 -208 0 -12 -67 c-16 -95 -54 -169 -121 -236 -168 -168 -430 -168 -598
0 -67 67 -105 141 -121 236 l-12 67 -208 0 -208 0 -12 -67 c-16 -95 -54 -169
-121 -236 -168 -168 -430 -168 -598 0 -67 67 -105 141 -121 236 l-12 67 -209
0 -208 0 -6 -37z"/>
<path d="M1065 2313 c-28 -166 -107 -278 -245 -346 -61 -30 -70 -32 -180 -32
-105 0 -120 2 -174 28 -33 15 -79 43 -103 63 -51 42 -29 54 -221 -115 l-143
-125 48 -49 c65 -66 181 -141 277 -178 308 -119 647 -57 891 164 l65 59 56
-51 c77 -70 131 -106 227 -151 111 -51 192 -70 322 -77 230 -11 444 68 619
228 l56 51 56 -51 c77 -70 131 -106 227 -151 111 -51 192 -70 322 -77 231 -11
444 68 619 228 l57 52 42 -40 c101 -97 236 -175 369 -214 101 -29 277 -36 383
-16 164 31 334 118 438 224 l48 49 -143 125 c-192 169 -170 157 -221 115 -24
-20 -70 -48 -103 -63 -54 -26 -69 -28 -174 -28 -110 0 -119 2 -180 32 -137 67
-221 185 -245 346 l-6 37 -208 0 -209 0 -12 -67 c-16 -95 -54 -169 -121 -236
-168 -168 -430 -168 -598 0 -67 67 -105 141 -121 236 l-12 67 -208 0 -208 0
-12 -67 c-16 -95 -54 -169 -121 -236 -168 -168 -430 -168 -598 0 -67 67 -105
141 -121 236 l-12 67 -209 0 -208 0 -6 -37z"/>
<path d="M1065 1033 c-28 -166 -107 -278 -245 -346 -61 -30 -70 -32 -180 -32
-105 0 -120 2 -174 28 -33 15 -79 43 -103 63 -51 42 -29 54 -221 -115 l-143
-125 48 -49 c65 -66 181 -141 277 -178 308 -119 647 -57 891 164 l65 59 56
-51 c77 -70 131 -106 227 -151 111 -51 192 -70 322 -77 230 -11 444 68 619
228 l56 51 56 -51 c77 -70 131 -106 227 -151 111 -51 192 -70 322 -77 231 -11
444 68 619 228 l57 52 42 -40 c101 -97 236 -176 369 -214 92 -26 269 -36 364
-20 169 29 325 105 441 214 l65 63 -143 124 c-80 69 -152 131 -161 139 -15 11
-23 8 -60 -23 -171 -147 -419 -137 -577 21 -67 67 -105 141 -121 236 l-12 67
-208 0 -208 0 -12 -67 c-16 -95 -54 -169 -121 -236 -168 -168 -430 -168 -598
0 -67 67 -105 141 -121 236 l-12 67 -208 0 -208 0 -12 -67 c-16 -95 -54 -169
-121 -236 -168 -168 -430 -168 -598 0 -67 67 -105 141 -121 236 l-12 67 -209
0 -208 0 -6 -37z"/>
</g>
</svg>
