<?xml version="1.0" standalone="no"?>
<!DOCTYPE svg PUBLIC "-//W3C//DTD SVG 20010904//EN"
 "http://www.w3.org/TR/2001/REC-SVG-20010904/DTD/svg10.dtd">
<svg version="1.0" xmlns="http://www.w3.org/2000/svg"
 width="512.000000pt" height="512.000000pt" viewBox="0 0 512.000000 512.000000"
 preserveAspectRatio="xMidYMid meet">

<g transform="translate(0.000000,512.000000) scale(0.100000,-0.100000)"
fill="#000000" stroke="none">
<path d="M1531 5062 c-19 -10 -43 -34 -53 -53 -17 -32 -18 -100 -18 -1536 l0
-1503 135 0 135 0 0 1503 c0 1436 -1 1504 -18 1536 -21 40 -73 71 -117 71 -17
0 -46 -8 -64 -18z"/>
<path d="M3064 4491 c-214 -52 -403 -203 -502 -397 -32 -62 -60 -70 -173 -48
-78 15 -106 16 -178 7 -95 -12 -200 -50 -261 -94 l-40 -29 0 -185 0 -185 1384
0 1384 0 -15 58 c-70 268 -335 459 -609 438 -96 -8 -114 2 -163 89 -64 114
-216 248 -346 304 -136 60 -337 78 -481 42z m165 -266 c75 -38 44 -165 -39
-165 -42 0 -67 15 -85 51 -13 25 -14 37 -5 65 20 60 71 79 129 49z m-915 -335
c58 -22 69 -110 19 -150 -60 -47 -143 -8 -143 68 0 71 56 108 124 82z m575 -5
c33 -16 41 -33 41 -81 0 -72 -85 -110 -143 -64 -34 27 -43 70 -22 110 25 48
73 62 124 35z m680 0 c79 -40 46 -165 -44 -165 -39 0 -65 18 -81 55 -17 43 -3
90 35 110 34 18 55 18 90 0z m564 3 c34 -18 46 -39 47 -81 0 -77 -87 -114
-147 -63 -22 19 -28 32 -28 66 0 70 67 111 128 78z"/>
<path d="M1912 3243 l3 -138 1445 0 c1364 0 1447 1 1477 18 43 23 64 57 70
110 6 52 -25 103 -77 129 -33 17 -124 18 -1478 18 l-1443 0 3 -137z"/>
<path d="M1910 2446 l0 -475 223 -3 c250 -3 274 -9 357 -84 71 -64 93 -120 99
-254 l6 -115 69 -8 c198 -22 371 -134 445 -290 42 -90 51 -148 51 -337 0 -164
-1 -170 -24 -197 -23 -26 -30 -28 -115 -31 l-91 -4 0 -304 0 -305 593 3 592 3
62 29 c75 34 144 104 180 182 23 51 36 154 169 1342 79 708 144 1295 144 1305
0 16 -72 17 -1380 17 l-1380 0 0 -474z"/>
<path d="M865 1776 c-16 -7 -41 -26 -55 -41 -22 -24 -25 -37 -28 -121 l-4 -94
817 0 817 0 -4 94 c-3 84 -6 97 -28 122 -52 55 -32 54 -787 54 -559 -1 -704
-3 -728 -14z"/>
<path d="M449 1311 c-108 -42 -192 -133 -223 -240 -10 -32 -16 -93 -16 -148
l0 -93 1385 0 1385 0 0 94 c0 196 -81 327 -240 387 -48 18 -94 19 -1148 19
-1036 -1 -1100 -2 -1143 -19z"/>
<path d="M440 345 l0 -305 155 0 155 0 0 305 0 305 -155 0 -155 0 0 -305z"/>
<path d="M940 345 l0 -305 155 0 155 0 0 305 0 305 -155 0 -155 0 0 -305z"/>
<path d="M1440 345 l0 -305 155 0 155 0 0 305 0 305 -155 0 -155 0 0 -305z"/>
<path d="M1940 345 l0 -305 155 0 155 0 0 305 0 305 -155 0 -155 0 0 -305z"/>
<path d="M2440 345 l0 -305 155 0 155 0 0 305 0 305 -155 0 -155 0 0 -305z"/>
</g>
</svg>
