<?xml version="1.0" standalone="no"?>
<!DOCTYPE svg PUBLIC "-//W3C//DTD SVG 20010904//EN"
 "http://www.w3.org/TR/2001/REC-SVG-20010904/DTD/svg10.dtd">
<svg version="1.0" xmlns="http://www.w3.org/2000/svg"
 width="512.000000pt" height="512.000000pt" viewBox="0 0 512.000000 512.000000"
 preserveAspectRatio="xMidYMid meet">

<g transform="translate(0.000000,512.000000) scale(0.100000,-0.100000)"
fill="#000000" stroke="none">
<path d="M420 5102 c0 -24 -408 -4967 -416 -5044 l-6 -58 191 0 191 0 0 25 c0
29 407 4969 415 5043 l6 52 -190 0 c-178 0 -191 -1 -191 -18z"/>
<path d="M1096 5063 c-9 -77 -416 -5020 -416 -5044 0 -18 53 -19 1880 -19
1827 0 1880 1 1880 19 0 23 -407 4966 -416 5044 l-6 57 -1458 0 -1458 0 -6
-57z m1614 -888 l0 -585 -150 0 -150 0 0 585 0 585 150 0 150 0 0 -585z m0
-1615 l0 -580 -150 0 -150 0 0 580 0 580 150 0 150 0 0 -580z m0 -1615 l0
-585 -150 0 -150 0 0 585 0 585 150 0 150 0 0 -585z"/>
<path d="M4325 5068 c8 -75 415 -5014 415 -5044 l0 -24 191 0 191 0 -6 58 c-8
76 -416 5020 -416 5044 0 17 -13 18 -191 18 l-190 0 6 -52z"/>
</g>
</svg>
