<?xml version="1.0" standalone="no"?>
<!DOCTYPE svg PUBLIC "-//W3C//DTD SVG 20010904//EN"
 "http://www.w3.org/TR/2001/REC-SVG-20010904/DTD/svg10.dtd">
<svg version="1.0" xmlns="http://www.w3.org/2000/svg"
 width="512.000000pt" height="512.000000pt" viewBox="0 0 512.000000 512.000000"
 preserveAspectRatio="xMidYMid meet">

<g transform="translate(0.000000,512.000000) scale(0.100000,-0.100000)"
fill="#000000" stroke="none">
<path d="M1435 3953 c-616 -432 -1120 -790 -1119 -797 2 -20 226 -336 238
-336 6 1 74 45 151 100 l140 98 3 -1294 2 -1294 1710 0 1710 0 2 1295 3 1295
142 -100 c78 -55 146 -100 151 -100 9 0 228 307 238 333 3 8 -442 325 -1120
800 -619 433 -1126 787 -1128 786 -2 0 -507 -354 -1123 -786z m1343 -754 c92
-62 168 -113 170 -114 2 -2 -69 -111 -157 -244 -89 -132 -161 -246 -161 -253
0 -7 92 -105 205 -218 113 -113 205 -208 205 -213 0 -7 -493 -752 -510 -770
-4 -5 -87 43 -184 107 l-176 115 164 248 164 248 -213 214 -213 214 259 389
c143 213 264 388 269 388 6 0 86 -50 178 -111z"/>
</g>
</svg>
