<?xml version="1.0" standalone="no"?>
<!DOCTYPE svg PUBLIC "-//W3C//DTD SVG 20010904//EN"
 "http://www.w3.org/TR/2001/REC-SVG-20010904/DTD/svg10.dtd">
<svg version="1.0" xmlns="http://www.w3.org/2000/svg"
 width="512.000000pt" height="512.000000pt" viewBox="0 0 512.000000 512.000000"
 preserveAspectRatio="xMidYMid meet">

<g transform="translate(0.000000,512.000000) scale(0.100000,-0.100000)"
fill="#fff" stroke="none">
<path d="M1004 4469 c-136 -23 -265 -91 -370 -194 -104 -103 -179 -247 -197
-380 l-6 -40 1065 -557 1064 -557 1063 556 c584 306 1064 557 1065 559 8 5
-21 123 -45 184 -76 195 -234 340 -448 412 l-70 23 -1535 1 c-844 1 -1558 -2
-1586 -7z"/>
<path d="M432 2553 l3 -938 23 -65 c41 -115 90 -190 181 -280 69 -68 103 -94
171 -127 152 -74 138 -73 959 -73 l731 0 21 42 c12 24 41 70 64 103 24 33 353
369 732 746 l688 686 92 46 c125 62 215 81 356 74 73 -3 134 -12 175 -25 l62
-20 0 384 c0 211 -2 384 -4 384 -2 0 -469 -244 -1037 -542 -1003 -526 -1036
-543 -1089 -543 -53 0 -88 18 -1087 543 -568 298 -1035 542 -1038 542 -3 0 -4
-422 -3 -937z"/>
<path d="M4306 2544 c-138 -33 -128 -24 -867 -763 l-687 -686 -40 -85 c-28
-59 -57 -154 -96 -312 -31 -125 -56 -241 -56 -257 0 -114 110 -224 225 -224
76 0 485 106 575 149 72 35 101 62 767 728 672 671 693 693 727 766 61 129 66
260 16 393 -68 179 -264 310 -459 306 -25 0 -72 -7 -105 -15z"/>
</g>
</svg>
