<?xml version="1.0" standalone="no"?>
<!DOCTYPE svg PUBLIC "-//W3C//DTD SVG 20010904//EN"
 "http://www.w3.org/TR/2001/REC-SVG-20010904/DTD/svg10.dtd">
<svg version="1.0" xmlns="http://www.w3.org/2000/svg"
 width="128.000000pt" height="128.000000pt" viewBox="0 0 128.000000 128.000000"
 preserveAspectRatio="xMidYMid meet">

<g transform="translate(0.000000,128.000000) scale(0.100000,-0.100000)"
fill="#000000" stroke="none">
<path d="M97 1239 c-20 -11 -49 -38 -65 -61 l-27 -42 -3 -390 c-2 -346 -1
-396 14 -435 22 -56 73 -113 121 -134 54 -24 633 -157 680 -157 50 0 102 33
125 80 16 31 18 69 18 325 0 160 -4 305 -10 324 -16 58 -58 108 -113 135 -29
15 -178 61 -332 102 -154 42 -288 80 -297 86 -23 11 -23 57 -1 65 9 4 58 -4
107 -18 86 -23 110 -24 445 -29 323 -5 355 -7 365 -22 8 -13 8 -23 0 -35 -10
-16 -31 -18 -168 -21 -86 -1 -156 -7 -156 -12 0 -4 24 -19 53 -33 29 -13 69
-38 89 -56 31 -27 43 -31 95 -31 69 0 96 -15 91 -51 -3 -21 -9 -24 -48 -27
l-45 -3 3 -237 c2 -130 5 -243 8 -251 3 -10 16 -12 56 -7 84 12 132 46 163
118 22 55 22 671 0 725 -20 48 -41 71 -87 94 -35 18 -66 19 -540 19 -482 -1
-505 -2 -541 -21z m674 -685 c93 -48 55 -194 -50 -194 -104 0 -146 137 -57
191 38 23 67 24 107 3z"/>
</g>
</svg>
