<?xml version="1.0" standalone="no"?>
<!DOCTYPE svg PUBLIC "-//W3C//DTD SVG 20010904//EN"
 "http://www.w3.org/TR/2001/REC-SVG-20010904/DTD/svg10.dtd">
<svg version="1.0" xmlns="http://www.w3.org/2000/svg"
 width="512.000000pt" height="538.000000pt" viewBox="0 0 512.000000 538.000000"
 preserveAspectRatio="xMidYMid meet">

<g transform="translate(0.000000,538.000000) scale(0.100000,-0.100000)"
fill="#fff" stroke="none">
<path d="M1580 5249 c-550 -34 -827 -140 -1121 -429 -288 -284 -394 -542 -441
-1080 -18 -206 -18 -1865 0 -2075 30 -342 73 -528 163 -707 152 -302 478 -594
774 -696 154 -52 315 -81 580 -104 211 -18 1839 -18 2050 0 556 48 814 155
1105 458 183 191 292 384 348 614 62 256 73 426 79 1275 8 1141 -14 1489 -112
1785 -106 320 -389 637 -710 797 -193 96 -399 139 -780 163 -186 12 -1750 11
-1935 -1z m-98 -2170 c118 -25 221 -105 273 -214 26 -54 29 -70 30 -160 0 -88
-3 -107 -27 -157 -84 -180 -286 -270 -468 -208 -280 95 -356 449 -138 645 98
88 209 119 330 94z m1150 0 c120 -25 225 -108 276 -217 24 -50 27 -69 27 -162
0 -98 -2 -109 -32 -165 -42 -81 -104 -141 -183 -179 -59 -28 -74 -31 -160 -31
-86 0 -101 3 -160 31 -78 38 -147 105 -186 182 -27 52 -29 66 -29 162 0 93 3
112 27 162 50 106 148 186 263 214 65 16 93 16 157 3z m1149 1 c157 -30 282
-159 308 -319 27 -168 -60 -330 -217 -404 -61 -29 -76 -32 -162 -32 -82 0
-103 4 -152 27 -80 37 -152 107 -191 187 -30 61 -32 73 -32 166 0 90 3 106 29
160 52 105 141 178 259 210 64 17 89 18 158 5z"/>
</g>
</svg>
