<?xml version="1.0" standalone="no"?>
<!DOCTYPE svg PUBLIC "-//W3C//DTD SVG 20010904//EN"
 "http://www.w3.org/TR/2001/REC-SVG-20010904/DTD/svg10.dtd">
<svg version="1.0" xmlns="http://www.w3.org/2000/svg"
 width="512.000000pt" height="512.000000pt" viewBox="0 0 512.000000 512.000000"
 preserveAspectRatio="xMidYMid meet">

<g transform="translate(0.000000,512.000000) scale(0.100000,-0.100000)"
fill="#fff" stroke="none">
<path d="M1480 4605 c-128 -33 -312 -126 -417 -210 -204 -163 -343 -390 -399
-649 -46 -214 -19 -603 66 -936 258 -1017 1066 -1824 2083 -2081 334 -84 722
-111 932 -65 222 48 415 153 570 311 138 139 240 320 289 509 58 222 11 373
-141 453 -32 17 -272 122 -533 234 l-475 203 -80 0 c-102 0 -110 -4 -430 -217
l-249 -167 -56 31 c-180 101 -368 261 -484 412 -61 80 -156 235 -156 255 0 7
73 124 162 260 209 321 212 326 213 427 l0 80 -204 475 c-112 261 -217 501
-234 533 -80 152 -232 199 -457 142z"/>
<path d="M3092 4460 c-92 -56 -98 -207 -10 -264 13 -8 72 -31 132 -51 447
-149 782 -484 931 -931 39 -115 60 -148 112 -170 99 -42 208 21 220 127 9 79
-88 332 -192 504 -220 365 -559 637 -958 769 -123 41 -186 46 -235 16z"/>
<path d="M2975 3860 c-47 -10 -84 -39 -106 -81 -26 -52 -24 -103 6 -154 26
-45 49 -59 155 -94 233 -76 424 -270 506 -514 16 -48 37 -88 55 -107 100 -99
269 -28 269 113 0 40 -37 151 -79 239 -123 259 -354 467 -622 562 -111 39
-143 46 -184 36z"/>
</g>
</svg>
