<?xml version="1.0" standalone="no"?>
<!DOCTYPE svg PUBLIC "-//W3C//DTD SVG 20010904//EN"
 "http://www.w3.org/TR/2001/REC-SVG-20010904/DTD/svg10.dtd">
<svg version="1.0" xmlns="http://www.w3.org/2000/svg"
 width="512.000000pt" height="512.000000pt" viewBox="0 0 512.000000 512.000000"
 preserveAspectRatio="xMidYMid meet">

<g transform="translate(0.000000,512.000000) scale(0.100000,-0.100000)"
fill="#0075d2" stroke="none">
<path d="M2335 4785 c-917 -130 -1569 -907 -1532 -1825 25 -592 278 -1174 772
-1772 206 -249 561 -589 827 -791 137 -104 179 -103 326 7 251 190 612 536
817 784 623 754 878 1526 735 2220 -79 382 -312 757 -625 1009 -213 171 -504
303 -777 354 -148 27 -405 34 -543 14z m360 -1120 c287 -60 505 -329 505 -625
0 -297 -218 -565 -510 -626 -277 -58 -575 85 -699 337 -126 255 -80 541 118
740 156 155 370 219 586 174z"/>
</g>
</svg>
