<?xml version="1.0" standalone="no"?>
<!DOCTYPE svg PUBLIC "-//W3C//DTD SVG 20010904//EN"
 "http://www.w3.org/TR/2001/REC-SVG-20010904/DTD/svg10.dtd">
<svg version="1.0" xmlns="http://www.w3.org/2000/svg"
 width="512.000000pt" height="512.000000pt" viewBox="0 0 512.000000 512.000000"
 preserveAspectRatio="xMidYMid meet">

<g transform="translate(0.000000,512.000000) scale(0.100000,-0.100000)"
fill="#000000" stroke="none">
<path d="M1355 5113 c-201 -24 -375 -76 -544 -163 -411 -213 -701 -605 -787
-1065 -18 -94 -19 -171 -19 -1325 0 -1154 1 -1231 19 -1325 115 -617 594
-1096 1211 -1211 94 -18 171 -19 1335 -19 l1235 0 105 23 c463 102 829 377
1039 782 68 130 109 247 143 400 l23 105 0 1235 c0 1164 -1 1241 -19 1335
-107 576 -532 1036 -1093 1185 -182 49 -210 50 -1453 48 -641 0 -1178 -3
-1195 -5z m962 -676 c90 -47 143 -131 143 -229 0 -31 -22 -174 -50 -318 -27
-144 -50 -264 -50 -266 0 -2 181 -4 403 -4 l402 0 63 331 c34 182 70 345 78
362 96 191 364 193 458 5 36 -73 34 -114 -24 -418 -28 -144 -50 -266 -50 -270
0 -5 91 -10 203 -12 185 -3 205 -5 243 -25 93 -50 150 -149 142 -250 -5 -70
-27 -119 -75 -166 -69 -69 -80 -72 -360 -75 -227 -3 -252 -5 -257 -20 -10 -33
-196 -1023 -196 -1042 0 -19 9 -20 246 -20 160 0 260 -4 286 -12 55 -16 126
-83 154 -143 58 -123 5 -270 -121 -338 -38 -21 -54 -22 -356 -25 l-315 -3 -59
-307 c-70 -369 -76 -392 -122 -443 -123 -136 -334 -110 -415 50 -39 77 -37
123 22 431 28 144 50 264 50 266 0 2 -181 3 -402 2 l-403 -3 -62 -325 c-34
-178 -68 -338 -75 -355 -7 -16 -28 -47 -47 -68 -121 -134 -335 -106 -415 55
-36 73 -34 114 24 418 28 144 50 266 50 270 0 5 -91 10 -202 12 -186 3 -206 5
-244 25 -158 85 -192 297 -67 418 69 67 81 70 360 73 227 3 252 5 257 20 10
33 196 1023 196 1042 0 19 -9 20 -246 20 -160 0 -260 4 -286 12 -55 16 -126
83 -154 143 -58 123 -5 270 121 338 38 21 54 22 356 25 l315 3 59 307 c32 169
64 329 72 355 22 75 90 141 173 168 37 12 142 4 177 -14z"/>
<path d="M2257 3078 c-12 -47 -197 -1029 -197 -1043 0 -13 56 -15 399 -15
l399 0 5 23 c11 44 197 1030 197 1043 0 12 -65 14 -399 14 l-399 0 -5 -22z"/>
</g>
</svg>
