<?xml version="1.0" standalone="no"?>
<!DOCTYPE svg PUBLIC "-//W3C//DTD SVG 20010904//EN"
 "http://www.w3.org/TR/2001/REC-SVG-20010904/DTD/svg10.dtd">
<svg version="1.0" xmlns="http://www.w3.org/2000/svg"
 width="512.000000pt" height="512.000000pt" viewBox="0 0 512.000000 512.000000"
 preserveAspectRatio="xMidYMid meet">

<g transform="translate(0.000000,512.000000) scale(0.100000,-0.100000)"
fill="#000000" stroke="none">
<path d="M684 4741 c-148 -42 -270 -167 -308 -316 -14 -52 -16 -265 -16 -1865
0 -1600 2 -1813 16 -1865 39 -151 161 -275 312 -317 64 -17 149 -18 1872 -18
1600 0 1813 2 1865 16 109 28 201 96 266 197 73 113 69 -13 69 1994 0 1968 3
1860 -57 1963 -38 64 -103 130 -165 167 -111 67 16 63 -1983 62 -1696 0 -1814
-2 -1871 -18z m546 -538 c102 -42 161 -168 129 -280 -18 -66 -96 -144 -162
-162 -171 -48 -335 104 -297 277 34 149 185 225 330 165z m2875 -13 c122 -66
156 -232 71 -343 -87 -114 -243 -128 -348 -29 -135 126 -80 350 99 398 62 16
116 8 178 -26z m-1285 -419 c242 -55 444 -166 615 -336 174 -174 287 -385 341
-635 25 -118 25 -362 0 -480 -108 -501 -475 -868 -976 -976 -118 -25 -362 -25
-480 0 -250 54 -461 167 -635 341 -174 174 -287 386 -341 635 -25 119 -26 363
0 480 52 241 162 452 323 617 204 210 443 328 758 377 67 10 312 -4 395 -23z
m-1607 -2417 c60 -20 129 -95 147 -159 58 -207 -179 -378 -359 -260 -152 101
-136 324 28 408 63 31 115 35 184 11z m2883 -12 c142 -73 172 -263 59 -377
-113 -112 -304 -83 -376 57 -27 53 -34 119 -18 175 15 57 95 143 149 161 49
16 139 8 186 -16z"/>
<path d="M2393 3486 c-361 -69 -648 -335 -745 -691 -31 -116 -31 -355 0 -470
91 -331 347 -586 679 -677 113 -31 353 -31 468 0 329 90 587 348 677 677 31
115 31 355 0 470 -90 329 -351 590 -677 676 -102 27 -300 34 -402 15z m324
-487 c121 -46 202 -118 258 -232 69 -140 69 -277 -1 -416 -88 -176 -293 -284
-481 -253 -128 21 -262 107 -326 208 -51 81 -70 152 -70 254 0 101 19 173 69
252 65 102 196 188 324 212 50 9 170 -4 227 -25z"/>
</g>
</svg>
