<?xml version="1.0" standalone="no"?>
<!DOCTYPE svg PUBLIC "-//W3C//DTD SVG 20010904//EN"
 "http://www.w3.org/TR/2001/REC-SVG-20010904/DTD/svg10.dtd">
<svg version="1.0" xmlns="http://www.w3.org/2000/svg"
 width="512.000000pt" height="512.000000pt" viewBox="0 0 512.000000 512.000000"
 preserveAspectRatio="xMidYMid meet">

<g transform="translate(0.000000,512.000000) scale(0.100000,-0.100000)"
fill="#000000" stroke="none">
<path d="M1011 4690 c-78 -33 -121 -97 -121 -181 0 -66 31 -132 75 -162 18
-12 361 -166 762 -342 l729 -320 -915 -5 -916 -5 -57 -23 c-106 -43 -193 -135
-223 -236 -23 -76 -22 -2657 0 -2733 34 -113 128 -207 244 -243 62 -20 96 -20
1785 -20 1912 0 1778 -5 1884 67 66 45 119 117 143 194 18 57 19 103 19 733
l0 673 108 6 c119 6 153 15 195 55 66 62 67 69 67 412 0 343 -1 350 -67 412
-42 40 -76 49 -195 55 l-106 6 -4 181 c-3 175 -4 183 -32 244 -37 80 -122 161
-203 193 -56 22 -73 24 -408 29 l-350 5 -745 329 c-410 180 -837 368 -950 418
-113 49 -293 129 -400 176 -200 88 -265 105 -319 82z m2825 -1499 c54 -25 101
-83 114 -143 13 -65 13 -353 -1 -418 -13 -60 -54 -112 -110 -141 -37 -18 -68
-19 -986 -19 l-948 0 -137 137 -138 138 -138 -138 -138 -138 -216 3 -215 3
-40 28 c-22 15 -50 46 -64 70 -23 40 -24 52 -27 243 -2 127 1 217 8 243 14 52
63 109 115 132 38 18 108 19 1460 19 1360 0 1422 -1 1461 -19z m-2270 -1122
c88 -27 125 -46 200 -103 145 -109 234 -289 234 -476 0 -252 -166 -487 -403
-570 -77 -27 -246 -38 -329 -21 -31 7 -92 29 -135 50 -243 117 -381 391 -329
652 46 227 219 414 439 474 82 22 242 19 323 -6z m2247 8 c86 -37 139 -119
139 -216 0 -70 -24 -123 -81 -174 -165 -149 -432 22 -371 237 16 57 72 123
124 147 49 22 143 25 189 6z"/>
<path d="M1290 1693 c-165 -87 -164 -324 2 -407 121 -60 258 -13 314 108 31
65 31 126 0 191 -57 124 -195 171 -316 108z"/>
</g>
</svg>
