<?xml version="1.0" standalone="no"?>
<!DOCTYPE svg PUBLIC "-//W3C//DTD SVG 20010904//EN"
 "http://www.w3.org/TR/2001/REC-SVG-20010904/DTD/svg10.dtd">
<svg version="1.0" xmlns="http://www.w3.org/2000/svg"
 width="512.000000pt" height="512.000000pt" viewBox="0 0 512.000000 512.000000"
 preserveAspectRatio="xMidYMid meet">

<g transform="translate(0.000000,512.000000) scale(0.100000,-0.100000)"
fill="#000000" stroke="none">
<path d="M2430 5104 c-221 -47 -408 -236 -455 -459 -8 -38 -15 -82 -15 -97 l0
-28 -95 0 c-51 0 -118 -5 -147 -11 -124 -27 -244 -118 -303 -232 l-30 -57
-176 0 c-97 0 -200 -5 -230 -10 -180 -34 -325 -179 -359 -359 -14 -74 -14
-3408 0 -3482 34 -180 179 -325 359 -359 74 -14 3088 -14 3162 0 180 34 325
179 359 359 14 74 14 3408 0 3482 -34 180 -179 325 -359 359 -30 5 -133 10
-230 10 l-176 0 -30 57 c-59 114 -179 205 -303 232 -29 6 -96 11 -147 11 l-95
0 0 28 c-1 58 -31 170 -66 242 -27 55 -58 96 -113 151 -149 149 -347 207 -551
163z m252 -312 c25 -11 65 -39 88 -62 80 -80 105 -179 75 -299 -20 -81 -12
-121 33 -164 44 -42 72 -47 273 -47 170 0 194 -2 229 -20 45 -23 80 -80 80
-130 0 -50 -35 -107 -80 -130 -38 -20 -57 -20 -820 -20 -763 0 -782 0 -820 20
-45 23 -80 80 -80 130 0 50 35 107 80 130 35 18 59 20 230 20 211 0 238 6 282
58 36 43 42 79 24 150 -20 74 -20 115 -2 176 52 173 244 261 408 188z m-1259
-1498 c18 -9 78 -62 135 -117 l102 -101 103 101 c109 107 147 133 198 133 72
0 149 -77 149 -149 0 -54 -27 -90 -179 -245 -159 -162 -217 -206 -268 -206
-56 0 -91 26 -247 179 -163 160 -206 216 -206 269 0 106 121 183 213 136z
m2407 -304 c45 -23 80 -80 80 -130 0 -50 -35 -107 -80 -130 -38 -19 -58 -20
-670 -20 -612 0 -632 1 -670 20 -45 23 -80 80 -80 130 0 48 35 107 78 129 36
19 60 20 670 21 615 0 634 -1 672 -20z m-2407 -596 c18 -9 78 -62 135 -117
l102 -101 103 101 c109 107 147 133 198 133 72 0 149 -77 149 -149 0 -54 -27
-90 -179 -245 -159 -162 -217 -206 -268 -206 -56 0 -91 26 -247 179 -163 160
-206 216 -206 269 0 106 121 183 213 136z m2407 -304 c45 -23 80 -80 80 -130
0 -50 -35 -107 -80 -130 -38 -19 -58 -20 -670 -20 -612 0 -632 1 -670 20 -45
23 -80 80 -80 130 0 48 35 107 78 129 36 19 60 20 670 21 615 0 634 -1 672
-20z m-2407 -596 c18 -9 78 -62 135 -117 l102 -101 103 101 c109 107 147 133
198 133 72 0 149 -77 149 -149 0 -54 -27 -90 -179 -245 -159 -162 -217 -206
-268 -206 -56 0 -91 26 -247 179 -163 160 -206 216 -206 269 0 106 121 183
213 136z m2407 -304 c45 -23 80 -80 80 -130 0 -50 -35 -107 -80 -130 -38 -19
-58 -20 -670 -20 -612 0 -632 1 -670 20 -45 23 -80 80 -80 130 0 48 35 107 78
129 36 19 60 20 670 21 615 0 634 -1 672 -20z"/>
</g>
</svg>
