<?xml version="1.0" encoding="UTF-8"?>
<svg version="1.1" xmlns="http://www.w3.org/2000/svg" width="512" height="512">
<path d="M0 0 C1.15435547 -0.03673828 1.15435547 -0.03673828 2.33203125 -0.07421875 C14.26875566 -0.13321409 24.92201718 5.66667677 35.34339905 10.91436768 C36.67376721 11.57688354 38.0044815 12.23870472 39.33550733 12.89989829 C42.96206477 14.70392278 46.5836255 16.51777584 50.20438063 18.33341146 C54.12179622 20.29563205 58.04381523 22.2486131 61.96522522 24.20283508 C69.63491919 28.02688764 77.30025906 31.85958889 84.96400816 35.69553933 C91.19559705 38.8144897 97.42867335 41.93044796 103.66280937 45.04430389 C104.55167386 45.48828531 105.44053835 45.93226673 106.35633812 46.38970213 C108.16232843 47.29177163 109.96832098 48.19383663 111.77431577 49.09589717 C128.69115146 57.54603473 145.60292436 66.00626448 162.51307523 74.46976969 C177.96796685 82.20456357 193.42869253 89.9276116 208.89228673 97.64499035 C224.79017797 105.57922361 240.68435645 113.52084655 256.57445902 121.4706676 C258.37330254 122.37060061 260.17215164 123.27052247 261.97100639 124.17043304 C262.85596221 124.61314915 263.74091803 125.05586525 264.6526907 125.511997 C270.8734415 128.6234524 277.09656625 131.7301258 283.32066536 134.83487701 C290.91176377 138.62164864 298.49927247 142.41550058 306.08231599 146.21837816 C309.94751106 148.15653207 313.81420719 150.09150943 317.68535614 152.01774788 C321.23585489 153.78454494 324.78152536 155.56067336 328.3237279 157.34404215 C329.59907428 157.98414079 330.87608024 158.620947 332.15497673 159.25392285 C347.079655 166.64622944 360.18246208 175.1616121 366 191.5234375 C369.7205529 205.66928966 369.80992914 220.18175742 362.75 233.375 C354.10598446 246.83625336 341.95641139 253.26871618 328.03759766 260.12060547 C326.13548323 261.06985428 324.23398982 262.02034834 322.33306885 262.97198486 C317.18988105 265.54245159 312.03829268 268.09564722 306.8850522 270.6458869 C301.47024055 273.32943075 296.06359961 276.02933595 290.65609741 278.72756958 C280.4032668 283.84054005 270.14356119 288.93954856 259.88113534 294.03322804 C244.87390322 301.48275445 229.87732733 308.95367848 214.88043785 316.42399788 C212.65397023 317.53301145 210.42749742 318.6420146 208.20101929 319.75100708 C206.568058 320.5644114 206.568058 320.5644114 204.9021076 321.39424813 C198.48568652 324.58979977 192.06740563 327.78157572 185.64733624 330.96979117 C181.62734796 332.96635291 177.60817206 334.96454669 173.58908844 336.96292877 C171.74624428 337.87869515 169.90302151 338.79370014 168.0593605 339.70782089 C158.04857342 344.67161959 148.09021357 349.71240612 138.23370898 354.97730529 C133.30662361 357.5996316 128.32046914 360.04240811 123.25 362.375 C117.76367578 364.92099831 112.38463193 367.58650226 107.0546875 370.4453125 C92.62711879 378.10048112 78.01162152 385.39297655 63.41455078 392.71777344 C60.04128123 394.41112102 56.67103538 396.11027925 53.30322266 397.81445312 C49.17499049 399.90337401 45.04182474 401.98221099 40.90504074 404.054142 C39.35103613 404.8344654 37.79871117 405.61814459 36.24824905 406.40548325 C19.60557764 414.84963506 3.6698278 420.96880074 -15.125 415.8125 C-29.41481625 410.71026848 -38.47173644 401.87320812 -45.0234375 388.3671875 C-47.65287636 381.95269652 -48.63648608 376.23353822 -48.6875 369.375 C-48.72037109 368.62605469 -48.75324219 367.87710937 -48.78710938 367.10546875 C-48.93171317 351.25163474 -39.35151481 334.34596979 -33.53125 319.9609375 C-32.58588466 317.61472162 -31.64094612 315.26833373 -30.69641113 312.92178345 C-28.47454543 307.40449433 -26.24888628 301.88874639 -24.02116251 296.3738209 C-19.79905203 285.92099356 -15.58691135 275.46414515 -11.3735199 265.00780106 C-9.99840335 261.59698908 -8.62152674 258.18689233 -7.2442627 254.77694702 C-3.16587326 244.67236544 0.891052 234.5658324 4.75 224.375 C5.72348987 224.37141747 5.72348987 224.37141747 6.71664619 224.36776257 C22.51633259 224.30859744 38.31584296 224.23303779 54.11535835 224.13928509 C61.75592799 224.09434109 69.39645116 224.05492325 77.03710938 224.02856445 C83.69758882 224.00557301 90.35792106 223.97216229 97.01828372 223.92629844 C100.54412378 223.9023815 104.06981817 223.88364278 107.59573746 223.87738609 C111.53420225 223.87020196 115.47230235 223.83975355 119.41064453 223.80737305 C120.57661667 223.80880814 121.74258881 223.81024323 122.94389343 223.8117218 C128.58557424 223.74603344 132.94122217 223.68402212 137.75 220.375 C142.00980684 215.6546735 143.02429644 212.84059685 142.984375 206.6328125 C142.67523462 203.65476013 141.49207659 201.77035531 139.75 199.375 C139.75 198.715 139.75 198.055 139.75 197.375 C138.96625 197.065625 138.1825 196.75625 137.375 196.4375 C134.75 195.375 134.75 195.375 132.75 194.375 C131.05245546 194.27015463 129.35085531 194.22843052 127.65011597 194.21678162 C126.0304744 194.20209839 126.0304744 194.20209839 124.37811279 194.18711853 C123.18840881 194.18136307 121.99870483 194.1756076 120.77294922 194.16967773 C119.52420013 194.15977814 118.27545105 194.14987854 116.98886108 194.13967896 C113.55934188 194.11345517 110.12984641 194.09160803 106.7002883 194.07167697 C103.11812915 194.04983406 99.53601268 194.02243709 95.95388794 193.99562073 C89.16827854 193.94567088 82.38264548 193.90074057 75.59698975 193.85759836 C67.87275751 193.80824555 60.14856806 193.75332018 52.4243772 193.69791877 C36.53295767 193.58406355 20.64149881 193.47723224 4.75 193.375 C-0.70192168 179.69111551 -6.15302431 166.00690497 -11.60320187 152.32232571 C-14.13491379 145.9656295 -16.66687476 139.60903272 -19.19946289 133.25268555 C-21.65104129 127.09965624 -24.10187167 120.94632931 -26.55227852 114.79283333 C-27.47961032 112.46444217 -28.40717809 110.13614496 -29.33500481 107.80795097 C-32.31375133 100.33310126 -35.28682991 92.85603916 -38.25 85.375 C-38.67984821 84.28986744 -39.10969643 83.20473488 -39.55257034 82.08671951 C-40.81498489 78.89506885 -42.07339576 75.70187203 -43.33032227 72.50805664 C-43.90231432 71.0621208 -43.90231432 71.0621208 -44.48586178 69.58697414 C-44.83543721 68.69609632 -45.18501265 67.80521849 -45.54518127 66.88734436 C-45.85153283 66.10938035 -46.15788439 65.33141634 -46.47351933 64.52987766 C-50.23754783 54.08400152 -49.64527083 40.27976892 -45.5703125 30.078125 C-39.2622547 17.16340311 -30.59817257 8.07748461 -17.25 2.375 C-11.40611748 0.60302316 -6.08948037 0.00999915 0 0 Z " fill="#0075d2" transform="translate(128.25,47.625)"/>
<path d="M0 0 C0.71256454 -0.0049649 1.42512909 -0.00992981 2.1592865 -0.01504517 C4.51660123 -0.02964949 6.87384864 -0.03646622 9.23120117 -0.04199219 C10.871638 -0.04774549 12.5120748 -0.0535032 14.1525116 -0.05926514 C17.59321404 -0.06977049 21.03389315 -0.07561606 24.47460938 -0.07910156 C28.87624608 -0.08458242 33.27757284 -0.10860352 37.67911243 -0.13707352 C41.06866853 -0.15572927 44.45815043 -0.16090708 47.84775352 -0.16243744 C49.47001526 -0.16545835 51.09227586 -0.17346792 52.71448708 -0.18662262 C54.98828082 -0.20374346 57.26132359 -0.20178843 59.53515625 -0.1953125 C60.82738602 -0.19895813 62.11961578 -0.20260376 63.45100403 -0.20635986 C67.90925112 0.26032458 71.27898491 1.62633223 74.60620117 4.66113281 C78.8361411 10.09356402 79.75793071 14.42095343 78.96166992 21.16113281 C77.14597642 26.48370862 73.82337922 29.47167661 68.96166992 32.16113281 C65.50472169 33.31344889 62.78639475 33.30936805 59.13867188 33.33813477 C58.10390465 33.34799156 58.10390465 33.34799156 57.04823303 33.35804749 C54.76547124 33.37775433 52.48277526 33.38943905 50.19995117 33.39941406 C49.02753907 33.40552735 49.02753907 33.40552735 47.83144188 33.41176414 C43.6919926 33.43261676 39.55257636 33.44692026 35.41308594 33.45629883 C31.15054976 33.46734351 26.88853844 33.50172278 22.62618732 33.54147053 C19.33777438 33.56769922 16.04948512 33.57599632 12.76097679 33.57958031 C11.19058894 33.58443252 9.6202061 33.5960074 8.04992104 33.6146183 C-7.36070817 33.78586713 -7.36070817 33.78586713 -14.03833008 29.16113281 C-18.20747665 23.92297431 -19.58560432 19.83787859 -19.03833008 13.16113281 C-17.22840396 7.88873934 -14.80380626 4.21592524 -10.03833008 1.16113281 C-6.51765614 -0.01242517 -3.7166106 0.01967451 0 0 Z " fill="#0075d2" transform="translate(34.038330078125,239.8388671875)"/>
<path d="M0 0 C1.33022942 -0.01210762 1.33022942 -0.01210762 2.68733215 -0.02445984 C4.56603039 -0.03829056 6.44475365 -0.04901724 8.32348633 -0.05688477 C11.17904174 -0.0740505 14.03342481 -0.11793953 16.88867188 -0.16210938 C18.71743944 -0.17224108 20.54621681 -0.18075569 22.375 -0.1875 C23.64418526 -0.21376213 23.64418526 -0.21376213 24.93901062 -0.24055481 C30.75199772 -0.21957399 35.17439059 0.94011361 40.01953125 4.23828125 C44.08742438 8.72339418 45.2789486 13.29243566 45.01953125 19.23828125 C43.27699289 25.04674243 40.41035718 29.23686306 35.12277222 32.35783386 C32.84611029 33.3108778 31.26242663 33.49719645 28.80517578 33.51293945 C27.57337082 33.52723747 27.57337082 33.52723747 26.31668091 33.54182434 C25.43744965 33.54091293 24.55821838 33.54000153 23.65234375 33.5390625 C22.28382767 33.54549019 22.28382767 33.54549019 20.88766479 33.55204773 C18.95946074 33.55778502 17.03123505 33.55829572 15.10302734 33.55395508 C12.16205633 33.55080005 9.22209634 33.57424451 6.28125 33.59960938 C4.40494918 33.60188301 2.52864567 33.60258557 0.65234375 33.6015625 C-0.22283905 33.61077225 -1.09802185 33.61998199 -1.99972534 33.62947083 C-7.7776331 33.58597953 -12.22266729 32.81266598 -16.625 28.703125 C-21.18888359 22.73496953 -21.74143626 18.71055948 -20.98046875 11.23828125 C-18.79520533 6.78681874 -16.04101665 4.0494298 -11.98046875 1.23828125 C-7.99955311 -0.08869063 -4.15307816 0.03582914 0 0 Z " fill="#0075d2" transform="translate(35.98046875,303.76171875)"/>
<path d="M0 0 C1.36427124 -0.00430527 1.36427124 -0.00430527 2.75610352 -0.00869751 C4.67236964 -0.01073216 6.58865682 -0.00524437 8.50488281 0.00732422 C11.42820943 0.02338645 14.35015359 0.00745516 17.2734375 -0.01171875 C19.14062803 -0.00973621 21.00781771 -0.00589232 22.875 0 C23.74390869 -0.00607269 24.61281738 -0.01214539 25.50805664 -0.0184021 C30.56539381 0.03984586 34.05239868 0.60554559 38.4375 3.3984375 C42.21569519 7.28158255 44.21308064 11.04461488 44.578125 16.5 C44.37766766 22.33330848 42.30056558 25.52185019 38.421875 29.76953125 C33.57618344 33.74719539 28.64828824 33.70599137 22.6640625 33.69921875 C21.8220932 33.70350388 20.9801239 33.707789 20.11264038 33.71220398 C18.3358449 33.71793266 16.55902596 33.71845834 14.78222656 33.71411133 C12.07836425 33.71095601 9.37560186 33.73441203 6.671875 33.75976562 C4.94010554 33.76203939 3.20833315 33.76274175 1.4765625 33.76171875 C0.27466782 33.77553337 0.27466782 33.77553337 -0.95150757 33.78962708 C-6.77551207 33.74215357 -11.77602532 32.85378403 -16.3046875 28.86328125 C-20.92190917 22.63799272 -21.43231714 18.12794894 -20.5625 10.3984375 C-18.91864632 6.33131675 -16.75041519 4.13883138 -13.05517578 1.83569336 C-8.56516029 -0.01197344 -4.80475416 -0.03357982 0 0 Z " fill="#0075d2" transform="translate(36.5625,175.6015625)"/>
</svg>
