<?xml version="1.0" standalone="no"?>
<!DOCTYPE svg PUBLIC "-//W3C//DTD SVG 20010904//EN"
 "http://www.w3.org/TR/2001/REC-SVG-20010904/DTD/svg10.dtd">
<svg version="1.0" xmlns="http://www.w3.org/2000/svg"
 width="512.000000pt" height="512.000000pt" viewBox="0 0 512.000000 512.000000"
 preserveAspectRatio="xMidYMid meet">

<g transform="translate(0.000000,512.000000) scale(0.100000,-0.100000)"
fill="#000000" stroke="none">
<path d="M531 4539 c-56 -11 -124 -51 -155 -92 -59 -78 -56 41 -56 -1886 0
-1944 -4 -1815 60 -1893 17 -20 56 -49 88 -65 l57 -28 2035 0 2035 0 53 24
c29 13 68 42 87 64 70 81 65 -60 65 1897 0 1957 5 1816 -65 1897 -19 22 -58
51 -87 64 l-53 24 -2010 1 c-1105 1 -2030 -2 -2054 -7z m3804 -394 l25 -24 0
-996 0 -996 -25 -24 -24 -25 -1751 0 -1751 0 -24 25 -25 24 0 996 0 996 25 24
24 25 1751 0 1751 0 24 -25z m-3346 -2295 c31 -16 46 -65 31 -100 -34 -83
-160 -60 -160 29 0 64 70 103 129 71z m268 -12 c49 -46 14 -138 -52 -138 -47
0 -64 8 -81 42 -19 37 -10 82 19 103 32 22 87 19 114 -7z m254 3 c18 -14 24
-29 24 -61 0 -53 -30 -80 -85 -80 -70 0 -106 86 -58 137 27 29 86 31 119 4z
m256 -3 c51 -48 15 -138 -54 -138 -46 0 -68 13 -83 50 -14 34 0 83 29 100 29
17 83 11 108 -12z m885 -39 c216 -46 358 -260 319 -479 -40 -222 -223 -364
-448 -347 -263 20 -442 285 -363 538 66 213 273 334 492 288z m1353 -144 c33
-33 32 -70 -4 -106 l-29 -29 -257 0 c-205 0 -262 3 -284 15 -48 24 -56 81 -16
120 l24 25 271 0 271 0 24 -25z m-3015 -55 c53 -28 40 -128 -19 -148 -82 -29
-144 63 -90 132 22 28 73 36 109 16z m269 -16 c56 -71 -12 -164 -95 -129 -85
35 -59 155 35 155 31 0 44 -6 60 -26z m251 6 c45 -45 33 -112 -24 -135 -83
-35 -151 58 -95 129 26 33 88 37 119 6z m257 -2 c31 -29 32 -87 1 -115 -33
-29 -53 -34 -89 -21 -58 20 -71 108 -22 146 27 20 84 15 110 -10z m-777 -238
c53 -28 40 -128 -19 -148 -82 -29 -144 63 -90 132 22 28 73 36 109 16z m269
-16 c45 -57 7 -139 -63 -137 -67 2 -102 62 -72 121 18 35 28 40 78 41 28 1 41
-5 57 -25z m236 20 c25 -10 47 -62 40 -94 -9 -39 -37 -62 -81 -63 -70 -2 -108
80 -63 137 21 26 65 35 104 20z m274 -20 c54 -69 -8 -161 -90 -132 -40 14 -64
64 -48 105 14 38 36 53 80 53 29 0 42 -6 58 -26z m2237 -107 c29 -34 31 -66 3
-101 l-20 -26 -279 0 -279 0 -20 26 c-36 46 -23 102 30 123 14 6 130 9 282 8
l259 -2 24 -28z m-3016 -127 c23 -12 40 -61 33 -92 -17 -71 -105 -88 -150 -29
-19 25 -15 76 8 105 22 28 73 36 109 16z m269 -16 c67 -85 -40 -188 -121 -117
-25 23 -32 67 -14 101 18 35 28 40 78 41 28 1 41 -5 57 -25z m236 20 c25 -10
47 -62 40 -94 -8 -35 -33 -58 -73 -66 -26 -5 -36 -1 -62 24 -70 71 0 172 95
136z m274 -20 c56 -71 -9 -166 -92 -135 -37 14 -61 69 -46 108 14 38 36 53 80
53 29 0 42 -6 58 -26z"/>
<path d="M920 3125 l0 -885 509 0 509 0 4 168 c4 149 7 175 31 245 36 103 95
195 170 262 33 30 65 55 70 55 5 0 -13 24 -39 53 -91 100 -134 210 -134 345 0
148 53 276 160 382 105 105 213 150 360 150 147 0 255 -45 360 -150 205 -204
216 -519 26 -727 -26 -29 -43 -53 -38 -53 21 0 130 -111 170 -172 22 -35 53
-99 68 -143 25 -72 28 -97 32 -247 l4 -168 509 0 509 0 0 885 0 885 -1640 0
-1640 0 0 -885z"/>
<path d="M2443 3722 c-158 -57 -252 -203 -241 -376 9 -137 80 -239 206 -299
59 -28 77 -32 152 -32 76 0 93 4 152 33 84 41 158 120 188 200 32 83 26 205
-13 284 -36 73 -101 139 -174 174 -74 37 -193 44 -270 16z"/>
<path d="M2320 2852 c-61 -40 -141 -127 -169 -185 -40 -83 -51 -144 -51 -289
l0 -138 460 0 460 0 0 138 c-1 152 -8 198 -47 281 -31 66 -119 162 -182 199
-41 24 -47 25 -90 13 -74 -20 -162 -24 -226 -11 -107 22 -108 22 -155 -8z"/>
<path d="M2477 1636 c-62 -23 -113 -64 -141 -116 -70 -129 -28 -287 93 -354
130 -70 288 -28 356 95 26 46 30 64 30 129 0 64 -4 83 -29 127 -44 81 -133
132 -226 132 -25 0 -62 -6 -83 -13z"/>
</g>
</svg>
