<?xml version="1.0" standalone="no"?>
<!DOCTYPE svg PUBLIC "-//W3C//DTD SVG 20010904//EN"
 "http://www.w3.org/TR/2001/REC-SVG-20010904/DTD/svg10.dtd">
<svg version="1.0" xmlns="http://www.w3.org/2000/svg"
 width="64.000000pt" height="64.000000pt" viewBox="0 0 64.000000 64.000000"
 preserveAspectRatio="xMidYMid meet">

<g transform="translate(0.000000,64.000000) scale(0.100000,-0.100000)"
fill="#000000" stroke="none">
<path d="M90 321 l0 -278 31 -7 c60 -12 69 -8 69 24 0 27 2 29 29 24 16 -3 38
-1 50 5 28 15 28 57 1 66 -26 8 -16 25 15 25 16 0 25 7 29 25 4 14 10 25 14
25 5 0 16 6 25 13 16 11 15 16 -13 57 -22 32 -30 57 -30 88 0 90 -60 172 -144
197 -27 8 -56 15 -63 15 -10 0 -13 -55 -13 -279z"/>
<path d="M509 253 c0 -16 -4 -37 -8 -47 -7 -19 -8 -19 -15 0 -7 19 -8 19 -22
-1 -13 -17 -16 -18 -24 -5 -5 8 -10 22 -10 30 -1 8 -7 0 -15 -17 -11 -25 -20
-33 -40 -33 -14 0 -25 -4 -25 -10 0 -5 11 -10 25 -10 20 0 29 -8 39 -31 l13
-31 7 26 c7 30 21 34 31 9 6 -17 7 -17 17 2 11 19 11 19 19 0 4 -11 8 -32 8
-47 1 -35 21 -37 21 -3 0 14 5 25 10 25 6 0 10 -5 10 -11 0 -5 5 -7 10 -4 6 3
10 15 10 26 0 13 10 24 30 30 36 13 39 26 6 35 -16 4 -29 18 -36 37 -7 18 -14
26 -17 20 -8 -22 -23 -14 -23 12 0 34 -20 32 -21 -2z"/>
</g>
</svg>
