<?xml version="1.0" standalone="no"?>
<!DOCTYPE svg PUBLIC "-//W3C//DTD SVG 20010904//EN"
 "http://www.w3.org/TR/2001/REC-SVG-20010904/DTD/svg10.dtd">
<svg version="1.0" xmlns="http://www.w3.org/2000/svg"
 width="512.000000pt" height="512.000000pt" viewBox="0 0 512.000000 512.000000"
 preserveAspectRatio="xMidYMid meet">

<g transform="translate(0.000000,512.000000) scale(0.100000,-0.100000)"
fill="#000000" stroke="none">
<path d="M2108 4961 l-33 -29 -3 -211 -3 -211 -427 0 c-269 0 -441 -4 -465
-11 -26 -7 -44 -21 -57 -42 -19 -31 -20 -56 -20 -680 0 -694 0 -690 49 -717
13 -6 180 -10 470 -10 l451 0 0 -245 0 -245 -659 0 c-646 0 -659 0 -684 -20
-43 -34 -556 -659 -563 -685 -3 -14 -3 -36 0 -50 9 -36 551 -684 582 -695 15
-6 283 -10 674 -10 l649 0 3 -456 3 -456 33 -29 32 -29 420 0 420 0 32 29 33
29 3 456 3 455 454 3 455 3 27 28 28 27 3 666 2 666 -34 34 -34 34 -451 0
-451 0 0 245 0 245 663 0 c612 0 664 2 683 18 18 14 476 561 542 646 26 34 28
81 4 117 -9 14 -136 168 -281 342 -226 271 -269 318 -300 327 -22 6 -280 10
-673 10 l-637 0 -3 211 -3 211 -33 29 -32 29 -420 0 -420 0 -32 -29z"/>
</g>
</svg>
