<?xml version="1.0" standalone="no"?>
<!DOCTYPE svg PUBLIC "-//W3C//DTD SVG 20010904//EN"
 "http://www.w3.org/TR/2001/REC-SVG-20010904/DTD/svg10.dtd">
<svg version="1.0" xmlns="http://www.w3.org/2000/svg"
 width="512.000000pt" height="512.000000pt" viewBox="0 0 512.000000 512.000000"
 preserveAspectRatio="xMidYMid meet">

<g transform="translate(0.000000,512.000000) scale(0.100000,-0.100000)"
fill="#000000" stroke="none">
<path d="M360 4941 c-69 -21 -130 -73 -166 -141 -18 -34 -19 -109 -19 -2240
l0 -2205 22 -40 c25 -47 74 -95 123 -121 34 -18 109 -19 2240 -19 l2205 0 40
22 c47 25 95 74 121 123 18 34 19 109 19 2240 0 2131 -1 2206 -19 2240 -26 49
-74 98 -121 123 l-40 22 -2190 2 c-1204 1 -2201 -2 -2215 -6z m4241 -177 c39
-12 67 -29 101 -63 84 -84 79 21 76 -1482 l-3 -1324 -29 -53 c-16 -28 -44 -64
-63 -78 -76 -58 74 -54 -2127 -54 l-2024 0 -53 28 c-59 30 -111 95 -129 160
-6 24 -10 485 -10 1343 0 1467 -5 1373 73 1456 29 30 60 51 97 63 53 19 119
19 2046 20 1802 0 1996 -2 2045 -16z m-3221 -3260 c150 -47 279 -161 349 -307
46 -96 61 -161 61 -260 -1 -321 -276 -597 -595 -597 -175 0 -368 97 -474 237
-76 100 -113 204 -118 328 -8 174 43 316 158 439 161 173 390 232 619 160z
m2731 0 c191 -60 348 -231 395 -432 22 -92 15 -235 -15 -322 -63 -181 -212
-325 -396 -383 -97 -30 -243 -30 -340 0 -184 58 -334 203 -395 383 -31 89 -37
232 -16 324 45 189 194 358 376 424 128 46 254 48 391 6z m-1357 -248 c50 -25
97 -72 122 -122 15 -32 20 -65 22 -175 2 -79 -1 -154 -8 -177 -16 -60 -68
-122 -129 -154 -51 -27 -59 -28 -201 -28 -142 0 -150 1 -201 28 -60 31 -113
93 -129 150 -15 57 -13 282 4 330 27 76 78 126 161 159 19 8 80 11 175 10 120
-2 152 -5 184 -21z"/>
<path d="M560 4597 c-13 -7 -30 -24 -37 -37 -18 -35 -19 -2600 -1 -2633 6 -12
18 -27 27 -34 12 -10 459 -12 2012 -13 1991 0 1995 0 2017 20 12 11 24 31 27
43 3 12 4 606 3 1319 l-3 1297 -23 23 -23 23 -1987 2 c-1581 2 -1992 0 -2012
-10z m1223 -691 c22 -11 51 -37 65 -59 l27 -40 3 -283 c3 -297 -1 -340 -40
-389 -47 -60 -75 -65 -375 -65 l-273 0 0 -255 0 -255 314 0 315 0 27 -24 c39
-33 39 -89 0 -122 l-27 -24 -330 0 c-256 0 -337 3 -362 14 -42 17 -83 66 -97
114 -13 49 -13 545 0 594 12 41 50 91 84 111 15 8 107 14 306 17 l285 5 3 253
2 252 -292 0 c-334 0 -362 4 -384 56 -20 49 1 99 48 113 19 6 163 9 348 8 287
-2 318 -4 353 -21z m1110 0 c22 -11 51 -37 65 -59 l27 -41 3 -623 c2 -415 -1
-637 -8 -663 -13 -49 -54 -99 -97 -116 -47 -20 -599 -20 -646 0 -42 17 -83 66
-97 114 -14 51 -14 1233 1 1285 14 52 68 103 121 116 24 5 164 9 318 8 248 -2
279 -4 313 -21z m1106 -681 c41 -20 79 -69 91 -116 7 -26 10 -140 8 -317 -3
-309 -5 -316 -75 -369 -36 -28 -37 -28 -210 -31 -161 -3 -177 -2 -219 18 -30
15 -52 36 -69 64 l-25 43 0 297 c0 276 1 300 20 336 18 36 55 70 90 83 8 3 93
6 188 6 134 1 179 -2 201 -14z m-684 -626 c9 -16 15 -55 15 -89 0 -55 -3 -65
-29 -91 -38 -37 -82 -39 -116 -4 -22 21 -25 33 -25 98 0 59 4 79 20 100 36 45
109 38 135 -14z"/>
<path d="M2300 3155 l0 -595 260 0 260 0 0 595 0 595 -260 0 -260 0 0 -595z"/>
<path d="M3670 2815 l0 -255 130 0 130 0 0 255 0 255 -130 0 -130 0 0 -255z"/>
<path d="M1128 1358 c-130 -17 -252 -108 -315 -235 -31 -63 -37 -87 -41 -157
-7 -140 33 -240 133 -335 214 -202 550 -134 678 136 29 63 32 76 32 168 -1 80
-5 111 -24 158 -74 185 -261 292 -463 265z m209 -361 c98 -98 113 -117 113
-145 0 -46 -38 -82 -86 -82 -31 0 -45 9 -102 64 l-67 64 -68 -64 c-55 -52 -73
-64 -100 -64 -54 0 -96 53 -83 104 6 23 127 153 194 209 57 47 73 40 199 -86z"/>
<path d="M3870 1359 c-281 -34 -451 -338 -331 -595 126 -269 465 -334 680
-129 96 92 138 200 128 337 -16 242 -231 416 -477 387z m-21 -314 c37 -36 71
-65 76 -65 5 0 39 29 76 65 78 75 104 82 150 36 20 -21 29 -39 29 -62 0 -29
-15 -48 -108 -141 -100 -100 -111 -108 -146 -108 -35 0 -47 8 -133 93 -132
129 -148 164 -94 218 46 46 72 39 150 -36z"/>
<path d="M2419 1081 c-29 -29 -29 -31 -29 -146 0 -110 1 -117 25 -140 23 -24
30 -25 145 -25 115 0 122 1 145 25 24 23 25 30 25 140 0 115 0 117 -29 146
-29 29 -31 29 -141 29 -110 0 -112 0 -141 -29z"/>
</g>
</svg>
