<?xml version="1.0" standalone="no"?>
<!DOCTYPE svg PUBLIC "-//W3C//DTD SVG 20010904//EN"
 "http://www.w3.org/TR/2001/REC-SVG-20010904/DTD/svg10.dtd">
<svg version="1.0" xmlns="http://www.w3.org/2000/svg"
 width="512.000000pt" height="512.000000pt" viewBox="0 0 512.000000 512.000000"
 preserveAspectRatio="xMidYMid meet">

<g transform="translate(0.000000,512.000000) scale(0.100000,-0.100000)"
fill="#000000" stroke="none">
<path d="M3426 4839 l-154 -149 -429 0 c-403 0 -433 -1 -503 -21 -137 -38
-160 -56 -506 -404 -285 -286 -326 -331 -355 -391 -31 -63 -34 -76 -34 -164 0
-87 3 -101 32 -161 39 -79 102 -140 181 -177 49 -23 70 -27 152 -27 158 0 171
9 504 345 l278 280 341 0 342 0 587 -587 588 -588 42 41 c36 34 577 534 616
569 11 10 -95 123 -529 566 -298 305 -645 658 -771 785 l-229 232 -153 -149z"/>
<path d="M890 3994 c-437 -492 -795 -896 -795 -897 0 -6 186 -355 198 -371 13
-18 16 -18 78 7 126 50 296 55 426 11 180 -60 336 -213 398 -391 l24 -68 58
-20 c188 -66 337 -217 402 -407 16 -48 21 -53 67 -68 185 -63 326 -199 398
-382 30 -77 34 -82 72 -93 83 -24 187 -89 259 -160 231 -229 248 -614 38 -854
l-47 -54 30 -24 c136 -112 356 -127 520 -36 73 40 155 128 194 205 31 64 34
67 59 60 14 -4 73 -7 131 -6 85 0 116 4 162 23 122 48 232 161 275 282 l18 49
91 0 c169 0 311 73 400 207 52 79 75 154 77 250 l2 83 60 20 c79 26 152 76
207 142 79 93 111 178 112 303 1 93 -15 158 -58 235 -27 49 -455 487 -1521
1558 l-72 72 -219 0 -219 1 -240 -245 c-144 -147 -262 -258 -296 -279 -130
-82 -253 -113 -413 -104 -302 16 -558 239 -617 538 -17 87 -7 259 20 339 48
140 83 184 419 522 173 174 312 320 308 326 -7 11 -191 122 -203 122 -4 0
-366 -403 -803 -896z"/>
<path d="M550 2470 c-98 -14 -137 -41 -322 -228 -97 -97 -182 -190 -190 -207
-122 -245 90 -532 356 -484 34 6 80 21 102 33 l42 23 -33 -43 c-132 -173 -68
-419 133 -512 45 -21 73 -26 133 -27 68 0 84 4 146 36 l70 36 -24 -35 c-86
-128 -61 -312 58 -424 64 -60 137 -88 230 -88 99 0 170 35 279 136 46 43 74
65 62 48 -33 -47 -55 -146 -47 -207 25 -196 204 -330 392 -296 91 17 130 43
259 173 147 148 169 190 162 321 -5 95 -33 158 -100 222 -112 108 -258 128
-394 54 l-54 -29 20 28 c35 49 52 111 52 187 0 128 -75 246 -192 302 -46 22
-69 26 -140 26 -75 0 -93 -4 -147 -30 l-61 -31 31 61 c28 53 31 70 31 145 1
71 -4 94 -25 140 -82 176 -285 246 -457 159 -31 -16 -58 -29 -60 -29 -2 0 5
12 16 28 40 57 55 117 50 199 -7 115 -52 197 -142 257 -75 50 -150 68 -236 56z"/>
</g>
</svg>
