<?xml version="1.0" standalone="no"?>
<!DOCTYPE svg PUBLIC "-//W3C//DTD SVG 20010904//EN"
 "http://www.w3.org/TR/2001/REC-SVG-20010904/DTD/svg10.dtd">
<svg version="1.0" xmlns="http://www.w3.org/2000/svg"
 width="512.000000pt" height="512.000000pt" viewBox="0 0 512.000000 512.000000"
 preserveAspectRatio="xMidYMid meet">

<g transform="translate(0.000000,512.000000) scale(0.100000,-0.100000)"
fill="#000000" stroke="none">
<path d="M965 4845 c-360 -68 -638 -355 -695 -715 -14 -89 -14 -3051 0 -3140
53 -331 284 -593 615 -697 l90 -28 1575 0 c1787 0 1634 -7 1825 85 221 107
375 289 452 535 l28 90 3 1535 c2 1079 0 1558 -8 1612 -40 281 -218 524 -475
648 -192 93 -25 84 -1785 87 -1260 1 -1568 -1 -1625 -12z m682 -823 c127 -65
189 -208 149 -345 -13 -44 -30 -71 -76 -121 -33 -35 -60 -66 -60 -69 0 -3 123
-7 273 -9 l272 -4 98 -33 c61 -21 128 -54 179 -87 81 -54 82 -54 102 -35 31
28 120 78 188 106 113 46 188 55 448 55 132 0 240 3 240 6 0 4 -27 35 -59 69
-73 78 -96 138 -89 230 6 72 44 152 93 192 16 15 54 37 84 51 45 21 64 24 125
20 46 -3 87 -13 116 -28 30 -15 148 -126 361 -339 352 -352 362 -365 363 -480
2 -127 1 -129 -362 -493 -363 -365 -373 -372 -492 -372 -111 1 -207 59 -258
158 -21 41 -26 65 -26 126 -1 93 20 142 93 223 l53 57 -226 0 c-205 0 -230 -2
-265 -19 -50 -26 -97 -81 -110 -128 -7 -25 -11 -343 -11 -945 0 -885 0 -909
-20 -961 -40 -108 -155 -187 -270 -187 -115 0 -230 79 -269 186 -21 54 -21 71
-21 961 0 650 -3 916 -11 944 -16 52 -64 108 -113 130 -36 16 -69 19 -265 19
l-223 0 53 -57 c73 -81 94 -130 93 -223 0 -61 -5 -85 -26 -125 -55 -105 -146
-160 -263 -159 -115 1 -129 11 -496 381 -314 317 -326 330 -344 387 -12 40
-16 75 -12 111 11 108 26 128 350 453 307 308 347 343 414 368 54 20 167 13
220 -14z"/>
</g>
</svg>
