<?xml version="1.0" standalone="no"?>
<!DOCTYPE svg PUBLIC "-//W3C//DTD SVG 20010904//EN"
 "http://www.w3.org/TR/2001/REC-SVG-20010904/DTD/svg10.dtd">
<svg version="1.0" xmlns="http://www.w3.org/2000/svg"
 width="512.000000pt" height="512.000000pt" viewBox="0 0 512.000000 512.000000"
 preserveAspectRatio="xMidYMid meet">

<g transform="translate(0.000000,512.000000) scale(0.100000,-0.100000)"
fill="#000000" stroke="none">
<path d="M1636 4601 c-483 -127 -892 -235 -908 -242 -51 -21 -114 -91 -137
-153 l-21 -57 0 -1649 0 -1649 -238 -3 c-263 -3 -272 -5 -312 -71 -18 -29 -20
-51 -20 -207 0 -197 8 -226 69 -267 l34 -23 1369 0 1368 0 -2 2173 -3 2172
-23 45 c-32 61 -68 97 -127 127 -102 52 -76 57 -1049 -196z m511 -1802 c41
-20 89 -75 107 -124 47 -124 5 -300 -88 -366 -81 -60 -158 -51 -231 24 -80 82
-105 196 -70 314 42 143 165 209 282 152z"/>
<path d="M3130 3975 l0 -285 425 0 425 0 0 -1705 0 -1705 518 0 c498 0 518 1
550 20 65 40 72 65 72 252 0 189 -10 232 -64 271 -30 21 -41 22 -268 25 l-238
3 0 1513 c0 1624 2 1565 -49 1665 -37 72 -117 148 -199 188 l-76 38 -548 3
-548 3 0 -286z"/>
</g>
</svg>
