<?xml version="1.0" encoding="iso-8859-1"?>
<!-- Generator: Adobe Illustrator 19.0.0, SVG Export Plug-In . SVG Version: 6.00 Build 0)  -->
<svg version="1.1" id="Layer_1" xmlns="http://www.w3.org/2000/svg" xmlns:xlink="http://www.w3.org/1999/xlink" x="0px" y="0px"
	 viewBox="0 0 512 512" style="enable-background:new 0 0 512 512;" xml:space="preserve">
<g>
	<g>
		<path d="M446.694,230.4V94.041c0-15.844-12.891-28.735-28.735-28.735H94.041c-15.844,0-28.735,12.891-28.735,28.735V230.4H0v47.02
			h65.306v140.539c0,15.844,12.891,28.735,28.735,28.735h323.918c15.844,0,28.735-12.891,28.735-28.735V277.42H512V230.4H446.694z
			 M65.306,261.747H15.673v-15.673h49.633V261.747z M431.02,417.959c0,7.203-5.859,13.061-13.061,13.061H94.041
			c-7.202,0-13.061-5.859-13.061-13.061V94.041c0-7.202,5.859-13.061,13.061-13.061h323.918c7.203,0,13.061,5.859,13.061,13.061
			V417.959z M496.327,261.747h-49.633v-15.673h49.633V261.747z"/>
	</g>
</g>
<g>
	<g>
		<path d="M413.007,379.759c-4.441-4.442-10.346-6.886-16.624-6.886c-6.281,0-12.185,2.446-16.623,6.886
			c-4.441,4.44-6.887,10.343-6.887,16.624c0,6.28,2.445,12.183,6.886,16.624c4.584,4.583,10.603,6.873,16.623,6.873
			s12.041-2.29,16.625-6.874C422.172,403.84,422.172,388.925,413.007,379.759z M401.924,401.923c-3.057,3.055-8.03,3.055-11.082,0
			c-1.481-1.48-2.296-3.448-2.296-5.541s0.815-4.061,2.296-5.542c1.48-1.48,3.448-2.295,5.541-2.295s4.061,0.815,5.541,2.296
			C404.979,393.897,404.978,398.868,401.924,401.923z"/>
	</g>
</g>
<g>
	<g>
		<path d="M132.241,98.993c-9.167-9.166-24.082-9.167-33.249,0.001c-9.166,9.168-9.166,24.082,0,33.248
			c4.441,4.442,10.346,6.886,16.624,6.886c6.281,0,12.185-2.446,16.623-6.886c4.441-4.44,6.887-10.343,6.887-16.624
			C139.127,109.337,136.682,103.433,132.241,98.993z M121.159,121.16c-1.48,1.48-3.448,2.295-5.541,2.295
			c-2.093,0-4.062-0.815-5.541-2.296c-3.056-3.056-3.055-8.027-0.001-11.082c1.529-1.528,3.535-2.292,5.542-2.292
			s4.014,0.765,5.541,2.292c1.481,1.48,2.296,3.448,2.296,5.541C123.455,117.711,122.64,119.68,121.159,121.16z"/>
	</g>
</g>
<g>
	<g>
		<path d="M413.006,98.993c-9.167-9.166-24.081-9.166-33.248,0c-4.441,4.441-6.886,10.344-6.886,16.624
			c0,6.281,2.446,12.185,6.886,16.623c4.44,4.442,10.343,6.887,16.624,6.887c6.28,0,12.183-2.445,16.624-6.886
			C422.172,123.075,422.172,108.161,413.006,98.993z M401.924,121.158c-1.48,1.481-3.448,2.296-5.541,2.296
			s-4.062-0.815-5.542-2.296c-1.48-1.48-2.295-3.448-2.295-5.541c0-2.093,0.815-4.06,2.296-5.54
			c1.528-1.529,3.534-2.292,5.541-2.292c2.006,0,4.013,0.765,5.541,2.29C404.979,113.132,404.981,118.104,401.924,121.158z"/>
	</g>
</g>
<g>
	<g>
		<path d="M132.241,379.76c-4.439-4.442-10.343-6.887-16.624-6.887c-6.28,0-12.184,2.445-16.624,6.886
			c-9.166,9.166-9.166,24.081,0.001,33.249c4.584,4.583,10.604,6.874,16.623,6.874c6.021,0,12.04-2.291,16.624-6.874
			c4.441-4.441,6.886-10.344,6.886-16.624C139.127,390.102,136.681,384.199,132.241,379.76z M121.158,401.923
			c-3.054,3.056-8.026,3.055-11.081,0.001c-3.055-3.056-3.056-8.028,0-11.082c1.48-1.481,3.448-2.296,5.541-2.296
			c2.093,0,4.062,0.815,5.542,2.296c1.48,1.48,2.295,3.448,2.295,5.541S122.639,400.444,121.158,401.923z"/>
	</g>
</g>
<g>
	<g>
		<path d="M256,101.878c-84.984,0-154.122,69.139-154.122,154.122S171.016,410.122,256,410.122S410.122,340.984,410.122,256
			S340.984,101.878,256,101.878z M263.836,117.777c42.907,2.407,80.651,24.439,104.39,57.244h-91.327v15.674h101.15
			c9.292,17.297,15.014,36.782,16.174,57.469h-90.276c-3.344-20.525-19.586-36.767-40.111-40.11V117.777z M248.163,117.778v57.243
			H143.775C167.513,142.216,205.258,120.184,248.163,117.778z M248.163,394.222c-42.906-2.406-80.65-24.437-104.388-57.243h104.388
			V394.222z M248.163,321.306H133.952c-9.293-17.297-15.014-36.784-16.174-57.469h76.573v-15.673h-76.573
			c1.16-20.687,6.882-40.172,16.174-57.469h114.212v17.359c-23.078,3.76-40.751,23.824-40.751,47.947s17.673,44.188,40.751,47.947
			V321.306z M223.086,256c0-18.149,14.766-32.914,32.914-32.914c18.149,0,32.914,14.766,32.914,32.914
			c0,18.149-14.766,32.914-32.914,32.914S223.086,274.149,223.086,256z M368.225,336.979
			c-23.738,32.807-61.483,54.837-104.388,57.244v-90.276c20.525-3.344,36.767-19.586,40.11-40.11h90.276
			c-1.16,20.686-6.882,40.172-16.174,57.469H276.898v15.673H368.225z"/>
	</g>
</g>
<g>
</g>
<g>
</g>
<g>
</g>
<g>
</g>
<g>
</g>
<g>
</g>
<g>
</g>
<g>
</g>
<g>
</g>
<g>
</g>
<g>
</g>
<g>
</g>
<g>
</g>
<g>
</g>
<g>
</g>
</svg>
