<?xml version="1.0" standalone="no"?>
<!DOCTYPE svg PUBLIC "-//W3C//DTD SVG 20010904//EN"
 "http://www.w3.org/TR/2001/REC-SVG-20010904/DTD/svg10.dtd">
<svg version="1.0" xmlns="http://www.w3.org/2000/svg"
 width="190.000000pt" height="190.000000pt" viewBox="0 0 190.000000 190.000000"
 preserveAspectRatio="xMidYMid meet">
<metadata>
Created by potrace 1.14, written by Peter Selinger 2001-2017
</metadata>
<g transform="translate(0.000000,190.000000) scale(0.100000,-0.100000)"
fill="#000000" stroke="none">
<path d="M50 953 l1 -948 62 68 c34 37 217 238 407 446 190 209 348 380 351
380 3 1 133 -201 288 -449 l282 -450 205 0 c112 0 204 2 204 4 0 3 -164 264
-365 582 -201 317 -365 580 -365 583 1 3 154 168 340 366 l340 360 -233 3
-232 3 -85 -88 c-47 -49 -238 -252 -425 -453 -187 -201 -359 -385 -382 -410
l-43 -45 0 463 c0 254 2 462 5 462 3 0 28 -11 55 -25 28 -14 50 -22 50 -17 0
4 -24 31 -53 60 l-53 52 -177 0 -177 0 0 -947z"/>
<path d="M581 452 c-7 -2 -11 -38 -11 -97 l0 -93 45 2 c25 1 45 -2 45 -7 0 -4
5 -5 12 -1 7 4 28 8 48 9 l35 1 2 92 c1 51 -2 93 -5 93 -19 3 -162 4 -171 1z"/>
<path d="M831 433 c-6 -13 -7 -23 -3 -23 4 0 6 -34 6 -75 l-2 -75 34 4 c19 2
34 -1 34 -6 0 -5 6 -6 12 -2 7 5 35 8 63 9 l50 0 0 88 c0 49 -2 92 -5 95 -3 4
-44 7 -92 7 -81 1 -88 -1 -97 -22z"/>
<path d="M570 95 l0 -95 94 0 93 0 0 95 0 95 -93 0 -94 0 0 -95z"/>
<path d="M834 98 l1 -93 95 -3 95 -3 -1 88 c-1 48 -2 91 -3 96 0 4 -43 7 -95
7 l-93 0 1 -92z"/>
</g>
</svg>
