<?xml version="1.0" standalone="no"?>
<!DOCTYPE svg PUBLIC "-//W3C//DTD SVG 20010904//EN"
 "http://www.w3.org/TR/2001/REC-SVG-20010904/DTD/svg10.dtd">
<svg version="1.0" xmlns="http://www.w3.org/2000/svg"
 width="534.000000pt" height="534.000000pt" viewBox="0 0 534.000000 534.000000"
 preserveAspectRatio="xMidYMid meet">
<metadata>
Created by potrace 1.14, written by Peter Selinger 2001-2017
</metadata>
<g transform="translate(0.000000,534.000000) scale(0.100000,-0.100000)"
fill="#000000" stroke="none">
<path d="M310 5300 l-85 -5 -1 -2167 c-1 -1193 2 -2168 5 -2168 4 0 23 17 42
39 27 30 146 161 214 235 6 6 62 67 125 136 63 69 119 130 125 136 5 6 53 57
105 114 52 57 102 111 110 120 8 9 60 65 115 126 55 60 121 132 146 159 26 28
59 64 74 80 15 17 70 77 123 134 54 57 102 109 107 115 6 6 57 63 115 126 58
63 110 120 115 126 22 25 182 198 210 228 17 18 68 74 115 126 47 51 96 105
110 119 25 26 196 213 275 300 22 24 57 63 78 85 22 23 69 75 107 116 37 41
79 87 92 101 68 74 206 224 228 248 14 15 63 69 110 120 47 52 96 105 110 120
14 14 68 73 120 130 52 58 106 116 120 131 36 38 212 229 230 250 8 9 53 59
100 110 47 51 96 104 109 119 23 25 146 158 291 316 l65 70 -250 3 -250 3 -60
-64 c-65 -69 -255 -273 -294 -316 -13 -14 -70 -75 -126 -136 -56 -60 -126
-137 -156 -169 -30 -32 -70 -76 -89 -96 -60 -64 -234 -252 -250 -270 -20 -23
-190 -208 -215 -234 -11 -12 -63 -69 -115 -126 -52 -58 -98 -107 -101 -110 -3
-3 -57 -61 -119 -130 -63 -69 -119 -130 -125 -136 -8 -9 -57 -62 -180 -198
-11 -13 -61 -67 -112 -122 -50 -54 -102 -111 -115 -125 -12 -14 -57 -63 -98
-109 -81 -89 -78 -85 -195 -214 -98 -108 -202 -217 -187 -195 7 9 9 19 6 22
-4 3 -6 618 -6 1366 l0 1361 -86 1 c-444 3 -711 3 -782 -1z"/>
<path d="M4553 5252 c-56 -62 -96 -105 -218 -237 -56 -60 -146 -159 -201 -220
-54 -60 -110 -121 -124 -135 -14 -15 -64 -69 -111 -121 -48 -52 -97 -106 -110
-120 -48 -51 -205 -222 -228 -248 -13 -14 -67 -73 -120 -130 -53 -57 -100
-109 -106 -115 -14 -16 -103 -113 -221 -241 -56 -61 -112 -122 -126 -137 -13
-14 -62 -68 -108 -118 -46 -50 -93 -102 -105 -114 -11 -12 -63 -69 -115 -125
-52 -57 -106 -116 -120 -131 -29 -32 -177 -193 -212 -231 -12 -14 -66 -72
-118 -129 -52 -56 -103 -112 -113 -124 -10 -11 -40 -43 -66 -71 -26 -27 -76
-81 -111 -120 -35 -38 -109 -119 -164 -179 -197 -214 -221 -240 -300 -327 -22
-24 -67 -73 -100 -109 -34 -36 -101 -109 -150 -162 -48 -54 -102 -113 -120
-131 -92 -100 -223 -242 -236 -257 -13 -14 -73 -80 -220 -240 -14 -15 -65 -72
-115 -126 -101 -110 -158 -172 -238 -259 l-55 -59 0 -248 c0 -137 4 -250 8
-253 4 -2 36 28 72 68 36 40 81 88 99 108 43 45 236 253 268 288 99 108 147
160 241 261 59 63 119 129 134 145 80 87 205 222 236 254 19 21 82 89 140 151
149 162 215 233 295 319 151 163 277 298 366 395 30 33 65 71 79 86 112 120
245 263 280 302 23 27 46 48 50 48 7 0 182 -275 225 -353 6 -9 120 -196 255
-415 135 -218 250 -404 255 -414 6 -10 42 -68 80 -130 39 -62 75 -121 80 -131
6 -10 70 -115 144 -235 73 -119 188 -305 254 -412 65 -107 139 -225 163 -262
24 -37 44 -72 44 -76 0 -5 257 -9 570 -9 326 0 570 4 570 9 0 5 -58 102 -128
216 -71 114 -135 218 -143 231 -8 14 -18 30 -22 35 -9 13 0 -2 -507 816 -586
945 -582 938 -695 1120 -57 91 -182 291 -278 446 -96 154 -179 290 -185 300
-12 23 -9 27 153 196 111 116 397 416 469 492 26 28 86 91 134 141 48 50 164
171 257 269 94 98 190 200 215 226 41 43 279 293 396 416 27 28 112 117 189
198 77 81 141 151 143 156 2 5 -113 9 -265 9 l-268 0 -42 -47z"/>
<path d="M2426 2197 c-40 -44 -186 -197 -386 -407 -309 -324 -389 -411 -390
-423 0 -5 -4 -5 -10 -2 -5 3 -10 1 -10 -5 0 -7 4 -10 10 -8 9 3 327 238 665
491 l140 105 40 -41 c22 -23 71 -78 109 -122 39 -44 75 -84 80 -90 6 -5 40
-44 76 -85 36 -41 70 -80 75 -86 6 -6 34 -38 64 -72 30 -34 59 -58 64 -55 6 3
7 1 4 -4 -4 -6 2 -18 12 -27 17 -15 18 -15 17 6 -2 27 -26 78 -36 78 -4 0 -10
8 -12 18 -4 14 -415 708 -453 764 -10 15 -17 11 -59 -35z m551 -819 c-3 -8 -6
-5 -6 6 -1 11 2 17 5 13 3 -3 4 -12 1 -19z"/>
<path d="M1827 1133 c-3 -7 -2 -362 2 -388 1 -7 71 -10 199 -10 l197 0 3 203
2 202 -199 0 c-110 0 -201 -3 -204 -7z"/>
<path d="M2392 938 l3 -203 197 0 c127 0 199 3 201 10 3 9 1 368 -2 388 0 4
-91 7 -201 7 l-200 0 2 -202z"/>
<path d="M1829 563 c-1 -5 -2 -95 -3 -200 l-1 -193 202 0 203 0 0 200 0 200
-200 0 c-110 0 -201 -3 -201 -7z"/>
<path d="M2390 370 l0 -200 203 0 202 0 0 200 0 200 -202 0 -203 0 0 -200z"/>
</g>
</svg>
