<?xml version="1.0" standalone="no"?>
<!DOCTYPE svg PUBLIC "-//W3C//DTD SVG 20010904//EN"
 "http://www.w3.org/TR/2001/REC-SVG-20010904/DTD/svg10.dtd">
<svg version="1.0" xmlns="http://www.w3.org/2000/svg"
 width="1414.000000pt" height="266.000000pt" viewBox="0 0 1414.000000 266.000000"
 preserveAspectRatio="xMidYMid meet">

<g transform="translate(0.000000,266.000000) scale(0.100000,-0.100000)" stroke="none">
<path d="M5280 2198 l-635 -449 -100 -229 -100 -229 -3 421 c-1 232 0 424 3
427 3 3 48 -16 100 -42 52 -26 95 -44 95 -41 0 3 -41 50 -92 105 l-91 99 -300
0 -299 0 6 -417 c3 -230 9 -472 12 -539 l6 -120 -631 -452 -631 -452 -1310 0
-1310 0 0 -110 0 -110 1708 0 1707 0 1235 911 c679 501 1241 913 1247 916 7 3
583 -407 1280 -911 l1268 -916 554 0 c539 0 553 0 530 18 -133 103 -3591 2572
-3601 2571 -7 0 -299 -203 -648 -451z" fill="#0075d2"/>
<path d="M8110 1994 c-217 -162 -395 -298 -395 -301 0 -8 401 -301 432 -315
19 -9 39 3 170 109 81 66 157 126 168 132 19 12 117 -57 1110 -773 l1090 -785
1728 -1 1727 0 0 110 0 110 -1422 0 -1423 1 -558 409 c-308 226 -564 410 -571
410 -7 0 -27 -16 -46 -35 -19 -19 -38 -35 -42 -35 -4 0 -8 169 -8 375 0 206 4
375 8 375 5 0 42 -11 83 -25 l74 -25 -75 70 -75 69 -212 1 -213 0 0 -205 c0
-113 -3 -205 -6 -205 -3 0 -257 185 -565 411 -308 225 -566 412 -572 414 -7 2
-190 -129 -407 -291z" fill="#716F70"/>
<path d="M5030 1099 c-492 -347 -899 -636 -905 -641 -5 -6 6 -2 25 9 603 354
1771 1033 1775 1033 4 0 412 -228 908 -506 1025 -576 1015 -571 1002 -557 -13
13 -1884 1283 -1899 1289 -7 3 -414 -279 -906 -627z" fill="#D1D2D4"/>
<path d="M8420 1359 c-63 -44 -116 -84 -118 -88 -1 -4 16 -20 38 -36 l40 -28
80 47 81 47 552 -312 c304 -172 568 -322 587 -332 19 -11 31 -16 25 -10 -18
18 -1153 793 -1162 793 -5 0 -60 -36 -123 -81z" fill="#D1D2D4"/>
<path d="M5500 720 l0 -190 190 0 190 0 0 190 0 190 -190 0 -190 0 0 -190z" fill="#0075d2"/>
<path d="M6030 720 l0 -190 190 0 190 0 0 190 0 190 -190 0 -190 0 0 -190z" fill="#0075d2"/>
<path d="M5500 190 l0 -190 190 0 190 0 0 190 0 190 -190 0 -190 0 0 -190z" fill="#0075d2"/>
<path d="M6030 190 l0 -190 190 0 190 0 0 190 0 190 -190 0 -190 0 0 -190z" fill="#0075d2"/>
</g>
</svg>
