<?xml version="1.0" encoding="iso-8859-1"?>
<!-- Generator: Adobe Illustrator 19.0.0, SVG Export Plug-In . SVG Version: 6.00 Build 0)  -->
<svg version="1.1" id="Layer_1" xmlns="http://www.w3.org/2000/svg" xmlns:xlink="http://www.w3.org/1999/xlink" x="0px" y="0px"
	 viewBox="0 0 487.504 487.504" style="enable-background:new 0 0 487.504 487.504;" xml:space="preserve">
<g>
	<g>
		<g>
			<path d="M420.322,94.504h-3.498v-19c0-5.523-4.478-10-10-10c-5.522,0-10,4.477-10,10v19h-15v-19c0-5.523-4.478-10-10-10
				c-5.522,0-10,4.477-10,10v19h-3.497c-5.522,0-10,4.477-10,10v18.253c0,22.606,18.392,40.998,40.997,40.998
				c22.606,0,40.998-18.392,40.998-40.998v-18.253C430.322,98.981,425.844,94.504,420.322,94.504z M410.322,122.757
				c0,11.578-9.42,20.998-20.998,20.998c-11.578,0-20.997-9.419-20.997-20.998v-8.253h41.995V122.757z"/>
			<path d="M389.724,225.504c-5.522,0-10,4.477-10,10V336.77c0,32.787-26.674,59.461-59.461,59.461h-13.557V207.243h16.576
				c5.522,0,10-4.477,10-10V10c0-5.523-4.478-10-10-10h-256.1c-5.522,0-10,4.477-10,10v187.243c0,5.523,4.478,10,10,10h16.576
				v270.261c0,5.523,4.478,10,10,10h202.947c5.522,0,10-4.477,10-10v-61.273h13.557c43.814,0,79.461-35.646,79.461-79.461V235.504
				C399.724,229.981,395.247,225.504,389.724,225.504z M103.76,467.504V207.243h182.947v260.261H103.76z M77.183,187.243V20h236.1
				v167.243H77.183z"/>
			<path d="M389.724,177.504c-5.522,0-10,4.477-10,10v16c0,5.523,4.478,10,10,10c5.522,0,10-4.477,10-10v-16
				C399.724,181.981,395.247,177.504,389.724,177.504z"/>
			<path d="M283.008,41.073H107.459c-5.522,0-10,4.477-10,10V156.17c0,5.523,4.478,10,10,10h175.548c5.522,0,10-4.477,10-10V51.073
				C293.008,45.55,288.53,41.073,283.008,41.073z M273.008,146.171H117.459V61.073h155.548V146.171z"/>
			<path d="M155.326,114.504h78c5.522,0,10-4.477,10-10c0-5.523-4.478-10-10-10h-78c-5.522,0-10,4.477-10,10
				C145.326,110.027,149.804,114.504,155.326,114.504z"/>
			<path d="M142.805,410.703C142.794,410.607,142.83,410.911,142.805,410.703L142.805,410.703z"/>
			<path d="M234.325,317.903h-48.392l54.329-54.329c3.905-3.905,3.905-10.237,0-14.143c-3.906-3.905-10.236-3.905-14.143,0
				l-71.399,71.4c-2.859,2.86-3.715,7.161-2.168,10.897c1.548,3.737,5.194,6.173,9.239,6.173h48.392l-47.458,47.458v-9.858
				c0-5.523-4.478-10-10-10c-5.522,0-10,4.477-10,10v34c0.002,0.405,0.029,0.805,0.08,1.202c0.6,4.965,4.933,8.8,9.929,8.8h33.992
				c5.522,0,10-4.477,10-10s-4.478-10-10-10h-9.858l64.528-64.529c2.859-2.86,3.715-7.162,2.168-10.898
				C242.016,320.339,238.37,317.903,234.325,317.903z"/>
		</g>
	</g>
</g>
<g>
</g>
<g>
</g>
<g>
</g>
<g>
</g>
<g>
</g>
<g>
</g>
<g>
</g>
<g>
</g>
<g>
</g>
<g>
</g>
<g>
</g>
<g>
</g>
<g>
</g>
<g>
</g>
<g>
</g>
</svg>
