<?xml version="1.0" encoding="iso-8859-1"?>
<!-- Generator: Adobe Illustrator 19.0.0, SVG Export Plug-In . SVG Version: 6.00 Build 0)  -->
<svg version="1.1" id="Layer_1" xmlns="http://www.w3.org/2000/svg" xmlns:xlink="http://www.w3.org/1999/xlink" x="0px" y="0px"
	 viewBox="0 0 512 512" style="enable-background:new 0 0 512 512;" xml:space="preserve">
<g transform="translate(1 1)">
	<g>
		<g>
			<path d="M417.133-1H92.867C40.813-1-1,40.813-1,92.867v324.267C-1,469.187,40.813,511,92.867,511h324.267
				C469.187,511,511,469.187,511,417.133V92.867C511,40.813,469.187-1,417.133-1z M417.133,16.067
				c18.265,0,34.954,6.269,48.082,16.771l-89.61,89.61C343.771,93.467,301.453,75.8,255,75.8
				c-46.453,0-88.771,17.667-120.605,46.648l-89.61-89.61c13.129-10.502,29.818-16.771,48.082-16.771H417.133z M371.571,367.716
				c-0.791,0.409-1.543,0.949-2.225,1.631s-1.221,1.434-1.631,2.225c-29.167,28.207-68.897,45.562-112.716,45.562
				s-83.549-17.354-112.716-45.562c-0.409-0.791-0.949-1.543-1.631-2.225c-0.682-0.682-1.434-1.221-2.225-1.631
				C110.221,338.549,92.867,298.819,92.867,255c0-43.876,17.401-83.652,45.674-112.83c0.762-0.394,1.494-0.898,2.113-1.516
				c0.682-0.682,1.221-1.434,1.631-2.225C171.451,110.221,211.181,92.867,255,92.867c43.819,0,83.549,17.354,112.716,45.562
				c0.409,0.791,0.949,1.543,1.631,2.225c0.756,0.756,1.517,1.335,2.347,1.756c28.136,29.156,45.44,68.835,45.44,112.591
				C417.133,298.819,399.779,338.549,371.571,367.716z M16.067,92.867c0-18.265,6.269-34.953,16.771-48.082l89.61,89.61
				C93.467,166.229,75.8,208.547,75.8,255c0,46.453,17.667,88.771,46.648,120.605l-89.61,89.61
				c-10.502-13.129-16.771-29.818-16.771-48.082V92.867z M92.867,493.933c-18.265,0-34.953-6.269-48.082-16.771l89.61-89.61
				C166.229,416.533,208.547,434.2,255,434.2c46.453,0,88.771-17.667,120.605-46.648l89.61,89.61
				c-13.129,10.502-29.818,16.771-48.082,16.771H92.867z M493.933,417.133c0,18.265-6.269,34.953-16.771,48.082l-89.61-89.61
				C416.533,343.771,434.2,301.453,434.2,255c0-46.453-17.667-88.771-46.648-120.605l89.61-89.61
				c10.502,13.129,16.771,29.818,16.771,48.082V417.133z"/>
			<path d="M255,152.6c-56.32,0-102.4,46.08-102.4,102.4S198.68,357.4,255,357.4S357.4,311.32,357.4,255S311.32,152.6,255,152.6z
				 M255,340.333c-46.933,0-85.333-38.4-85.333-85.333s38.4-85.333,85.333-85.333s85.333,38.4,85.333,85.333
				S301.933,340.333,255,340.333z"/>
			<path d="M255,195.267c-33.28,0-59.733,26.453-59.733,59.733c0,5.12,3.413,8.533,8.533,8.533c5.12,0,8.533-3.413,8.533-8.533
				c0-23.893,18.773-42.667,42.667-42.667c5.12,0,8.533-3.413,8.533-8.533C263.533,198.68,260.12,195.267,255,195.267z"/>
		</g>
	</g>
</g>
<g>
</g>
<g>
</g>
<g>
</g>
<g>
</g>
<g>
</g>
<g>
</g>
<g>
</g>
<g>
</g>
<g>
</g>
<g>
</g>
<g>
</g>
<g>
</g>
<g>
</g>
<g>
</g>
<g>
</g>
</svg>
