<?xml version="1.0" encoding="iso-8859-1"?>
<!-- Generator: Adobe Illustrator 19.0.0, SVG Export Plug-In . SVG Version: 6.00 Build 0)  -->
<svg version="1.1" id="Layer_1" xmlns="http://www.w3.org/2000/svg" xmlns:xlink="http://www.w3.org/1999/xlink" x="0px" y="0px"
	 viewBox="0 0 512 512" style="enable-background:new 0 0 512 512;" xml:space="preserve">
<g>
	<g>
		<path d="M486.013,35.387H25.987C11.658,35.387,0,47.044,0,61.374v318.479c0,14.329,11.658,25.987,25.987,25.987h115.559v54.186
			h-27.093c-4.58,0-8.294,3.713-8.294,8.294c0,4.58,3.713,8.294,8.294,8.294h283.093c4.58,0,8.294-3.713,8.294-8.294
			c0-4.58-3.713-8.294-8.294-8.294h-27.093V405.84h115.559c14.329,0,25.987-11.658,25.987-25.987V61.374
			C512,47.044,500.342,35.387,486.013,35.387z M176.933,460.026h-18.799V405.84h18.799V460.026z M318.479,460.026H193.521V405.84
			h124.959V460.026z M353.866,460.026h-18.799V405.84h18.799V460.026z M495.413,379.853c0,5.183-4.217,9.4-9.4,9.4H25.987
			c-5.183,0-9.4-4.216-9.4-9.4V61.374c0-5.183,4.217-9.4,9.4-9.4h460.026c5.183,0,9.4,4.217,9.4,9.4V379.853z"/>
	</g>
</g>
<g>
	<g>
		<path d="M468.32,70.773H43.68c-4.58,0-8.294,3.713-8.294,8.294V362.16c0,4.58,3.713,8.294,8.294,8.294H468.32
			c4.58,0,8.294-3.713,8.294-8.294V79.067C476.613,74.487,472.9,70.773,468.32,70.773z M106.16,353.866H51.974V299.68h54.186
			V353.866z M106.16,283.093H51.974v-54.186h54.186V283.093z M106.16,212.32H51.974v-54.186h54.186V212.32z M106.16,141.546H51.974
			V87.361h54.186V141.546z M176.933,353.866h-54.186V299.68h54.186V353.866z M176.933,283.093h-54.186v-54.186h54.186V283.093z
			 M176.933,212.32h-54.186v-54.186h54.186V212.32z M176.933,141.546h-54.186V87.361h54.186V141.546z M247.706,353.866h-54.186
			V299.68h54.186V353.866z M247.706,283.093h-54.186v-54.186h54.186V283.093z M247.706,212.32h-54.186v-54.186h54.186V212.32z
			 M247.706,141.546h-54.186V87.361h54.186V141.546z M318.479,353.866h-54.186V299.68h54.186V353.866z M318.479,283.093h-54.186
			v-54.186h54.186V283.093z M318.479,212.32h-54.186v-54.186h54.186V212.32z M318.479,141.546h-54.186V87.361h54.186V141.546z
			 M389.253,353.866h-54.186V299.68h54.186V353.866z M389.253,283.093h-54.186v-54.186h54.186V283.093z M389.253,212.32h-54.186
			v-54.186h54.186V212.32z M389.253,141.546h-54.186V87.361h54.186V141.546z M460.026,353.866H405.84V299.68h54.186V353.866z
			 M460.026,283.093H405.84v-54.186h54.186V283.093z M460.026,212.32H405.84v-54.186h54.186V212.32z M460.026,141.546H405.84V87.361
			h54.186V141.546z"/>
	</g>
</g>
<g>
</g>
<g>
</g>
<g>
</g>
<g>
</g>
<g>
</g>
<g>
</g>
<g>
</g>
<g>
</g>
<g>
</g>
<g>
</g>
<g>
</g>
<g>
</g>
<g>
</g>
<g>
</g>
<g>
</g>
</svg>
