<?xml version="1.0" encoding="iso-8859-1"?>
<!-- Generator: Adobe Illustrator 19.0.0, SVG Export Plug-In . SVG Version: 6.00 Build 0)  -->
<svg version="1.1" id="Layer_1" xmlns="http://www.w3.org/2000/svg" xmlns:xlink="http://www.w3.org/1999/xlink" x="0px" y="0px"
	 viewBox="0 0 512 512" style="enable-background:new 0 0 512 512;" xml:space="preserve">
<g>
	<g>
		<path d="M169.768,53.895h-43.116c-4.465,0-8.084,3.618-8.084,8.084v64.674c0,4.466,3.62,8.084,8.084,8.084
			c4.465,0,8.084-3.619,8.084-8.084V102.4h13.474c4.465,0,8.084-3.619,8.084-8.084s-3.62-8.084-8.084-8.084h-13.474V70.063h35.032
			c4.465,0,8.084-3.618,8.084-8.084C177.853,57.513,174.233,53.895,169.768,53.895z"/>
	</g>
</g>
<g>
	<g>
		<path d="M212.884,53.895c-4.465,0-8.084,3.618-8.084,8.084v64.674c0,4.466,3.62,8.084,8.084,8.084s8.084-3.619,8.084-8.084V61.979
			C220.968,57.513,217.349,53.895,212.884,53.895z"/>
	</g>
</g>
<g>
	<g>
		<path d="M308.315,105.413c5.935-5.422,9.664-13.221,9.664-21.876c0-16.344-13.297-29.642-29.642-29.642h-21.558
			c-4.465,0-8.084,3.618-8.084,8.084v43.116v21.558c0,4.466,3.62,8.084,8.084,8.084c4.465,0,8.084-3.619,8.084-8.084v-13.474h13.474
			c1.887,0,3.731-0.184,5.521-0.524l8.806,17.613c1.416,2.833,4.271,4.47,7.237,4.47c1.215,0,2.448-0.276,3.609-0.856
			c3.994-1.997,5.613-6.852,3.615-10.847L308.315,105.413z M288.337,97.011h-13.474V70.063h13.474
			c7.43,0,13.474,6.044,13.474,13.474S295.767,97.011,288.337,97.011z"/>
	</g>
</g>
<g>
	<g>
		<path d="M385.347,118.568h-24.253V102.4h13.474c4.465,0,8.084-3.619,8.084-8.084s-3.62-8.084-8.084-8.084h-13.474V70.063h24.253
			c4.465,0,8.084-3.618,8.084-8.084c0-4.466-3.62-8.084-8.084-8.084H353.01c-4.465,0-8.084,3.618-8.084,8.084v64.674
			c0,4.466,3.62,8.084,8.084,8.084h32.337c4.465,0,8.084-3.619,8.084-8.084S389.812,118.568,385.347,118.568z"/>
	</g>
</g>
<g>
	<g>
		<path d="M443.521,0H68.479c-8.042,0-14.584,6.542-14.584,14.583v482.833c0,8.042,6.542,14.584,14.584,14.584h375.043
			c8.041,0,14.584-6.542,14.584-14.583V14.583C458.105,6.542,451.564,0,443.521,0z M441.937,495.832H70.063V16.168h371.874V495.832z
			"/>
	</g>
</g>
<g>
	<g>
		<path d="M401.117,269.474H296.421v-37.726h28.945c19.602,0,36.059-16.04,35.725-35.638c-0.326-19.038-15.914-34.425-35.027-34.425
			H186.634c-19.602,0-36.059,16.04-35.725,35.638c0.326,19.038,15.914,34.425,35.027,34.425h29.642v37.726H110.884
			c-7.663,0-13.874,6.211-13.874,13.874v160.884c0,7.662,6.212,13.874,13.874,13.874h194.99c4.465,0,8.084-3.62,8.084-8.084
			c0-4.465-3.62-8.084-8.084-8.084H113.179V285.642h102.4v26.947h-23.622c-16.129,0-29.78,12.621-30.26,28.743
			c-0.498,16.753,12.985,30.541,29.629,30.541h24.253v22.984c0,11.119,9.013,20.132,20.132,20.132h40.578
			c11.119,0,20.132-9.013,20.132-20.132v-22.984h23.622c16.129,0,29.78-12.621,30.26-28.743
			c0.498-16.753-12.985-30.541-29.629-30.541h-24.253v-26.947h102.4v156.295h-60.925c-4.465,0-8.084,3.62-8.084,8.084
			c0,4.465,3.62,8.084,8.084,8.084h63.221c7.662,0,13.874-6.211,13.874-13.874V283.347
			C414.991,275.686,408.779,269.474,401.117,269.474z M215.579,355.705h-24.253c-7.43,0-13.474-6.044-13.474-13.474
			s6.044-13.474,13.474-13.474h24.253V355.705z M280.253,394.858c0,2.185-1.777,3.963-3.963,3.963h-40.578
			c-2.186,0-3.963-1.777-3.963-3.963v-163.11h48.505V394.858z M320.674,328.758c7.43,0,13.474,6.044,13.474,13.474
			s-6.044,13.474-13.474,13.474h-24.253v-26.947H320.674z M185.937,215.579c-10.401,0-18.863-8.463-18.863-18.863
			c0-10.401,8.463-18.863,18.863-18.863h140.126c10.401,0,18.863,8.463,18.863,18.863c0,10.401-8.463,18.863-18.863,18.863H185.937z
			"/>
	</g>
</g>
<g>
</g>
<g>
</g>
<g>
</g>
<g>
</g>
<g>
</g>
<g>
</g>
<g>
</g>
<g>
</g>
<g>
</g>
<g>
</g>
<g>
</g>
<g>
</g>
<g>
</g>
<g>
</g>
<g>
</g>
</svg>
