<?xml version="1.0" encoding="iso-8859-1"?>
<!-- Generator: Adobe Illustrator 19.0.0, SVG Export Plug-In . SVG Version: 6.00 Build 0)  -->
<svg version="1.1" id="Layer_1" xmlns="http://www.w3.org/2000/svg" xmlns:xlink="http://www.w3.org/1999/xlink" x="0px" y="0px"
	 viewBox="0 0 496 496" style="enable-background:new 0 0 496 496;" xml:space="preserve">
<g>
	<g>
		<g>
			<path d="M392,0H104C81.944,0,64,17.944,64,40v416c0,22.056,17.944,40,40,40h288c22.056,0,40-17.944,40-40V40
				C432,17.944,414.056,0,392,0z M160,480h-56c-13.232,0-24-10.768-24-24v-8h80V480z M208,480h-32v-32h32V480z M272,480h-48v-32h48
				V480z M320,480h-32v-32h32V480z M416,456c0,13.232-10.768,24-24,24h-56v-32h80V456z M416,432H80V40c0-13.232,10.768-24,24-24h288
				c13.232,0,24,10.768,24,24V432z"/>
			<path d="M312,48h-56h-8h-56h-8h-72v56v8v40v8v40v8v40v8v40v8v40v8v48h72h8h56h8h56h8h64v-48v-8v-40v-8v-40v-8v-40v-8v-40v-8v-40
				v-8V48h-64H312z M176,384h-16v-16h-16v16h-16v-32h48V384z M176,336h-16v-16h-16v16h-16v-32h48V336z M176,288h-16v-16h-16v16h-16
				v-32h48V288z M176,240h-16v-16h-16v16h-16v-32h48V240z M176,192h-16v-16h-16v16h-16v-32h48V192z M176,144h-16v-16h-16v16h-16v-32
				h48V144z M176,96h-16V80h-16v16h-16V64h48V96z M240,384h-16v-16h-16v16h-16v-32h48V384z M240,336h-16v-16h-16v16h-16v-32h48V336z
				 M240,288h-16v-16h-16v16h-16v-32h48V288z M240,240h-16v-16h-16v16h-16v-32h48V240z M240,192h-16v-16h-16v16h-16v-32h48V192z
				 M240,144h-16v-16h-16v16h-16v-32h48V144z M240,96h-16V80h-16v16h-16V64h48V96z M304,384h-16v-16h-16v16h-16v-32h48V384z
				 M304,336h-16v-16h-16v16h-16v-32h48V336z M304,288h-16v-16h-16v16h-16v-32h48V288z M304,240h-16v-16h-16v16h-16v-32h48V240z
				 M304,192h-16v-16h-16v16h-16v-32h48V192z M304,144h-16v-16h-16v16h-16v-32h48V144z M304,96h-16V80h-16v16h-16V64h48V96z
				 M368,384h-16v-16h-16v16h-16v-32h48V384z M368,336h-16v-16h-16v16h-16v-32h48V336z M368,288h-16v-16h-16v16h-16v-32h48V288z
				 M368,240h-16v-16h-16v16h-16v-32h48V240z M368,192h-16v-16h-16v16h-16v-32h48V192z M368,144h-16v-16h-16v16h-16v-32h48V144z
				 M368,96h-16V80h-16v16h-16V64h48V96z"/>
		</g>
	</g>
</g>
<g>
</g>
<g>
</g>
<g>
</g>
<g>
</g>
<g>
</g>
<g>
</g>
<g>
</g>
<g>
</g>
<g>
</g>
<g>
</g>
<g>
</g>
<g>
</g>
<g>
</g>
<g>
</g>
<g>
</g>
</svg>
