<?xml version="1.0" encoding="iso-8859-1"?>
<!-- Generator: Adobe Illustrator 19.0.0, SVG Export Plug-In . SVG Version: 6.00 Build 0)  -->
<svg version="1.1" id="Capa_1" xmlns="http://www.w3.org/2000/svg" xmlns:xlink="http://www.w3.org/1999/xlink" x="0px" y="0px"
	 viewBox="0 0 472 472" style="enable-background:new 0 0 472 472;" xml:space="preserve">
<path d="M464,340V220c4.418,0,8-3.582,8-8s-3.582-8-8-8v-64c0-4.418-3.582-8-8-8s-8,3.582-8,8v64h-16v-64c0-4.418-3.582-8-8-8
	s-8,3.582-8,8v64h-16v-64c0-4.418-3.582-8-8-8s-8,3.582-8,8v64h-16v-72c4.418,0,8-3.582,8-8s-3.582-8-8-8h-80c-4.418,0-8,3.582-8,8
	s3.582,8,8,8v72H184v-72c4.418,0,8-3.582,8-8s-3.582-8-8-8h-80c-4.418,0-8,3.582-8,8s3.582,8,8,8v72H88v-64c0-4.418-3.582-8-8-8
	s-8,3.582-8,8v64H56v-64c0-4.418-3.582-8-8-8s-8,3.582-8,8v64H24v-64c0-4.418-3.582-8-8-8s-8,3.582-8,8v64c-4.418,0-8,3.582-8,8
	s3.582,8,8,8v120c-4.418,0-8,3.582-8,8s3.582,8,8,8h456c4.418,0,8-3.582,8-8S468.418,340,464,340z M120,324h48v16h-48V324z M104,340
	H88v-16h16V340z M120,250v-30h16v88h-16V250z M216,308v-88h40v88H216z M200,308h-16v-57v-31h16V308z M168,251v57h-16v-88h16V251z
	 M184,324h104v16H184V324z M304,324h48v16h-48V324z M320,308h-16v-88h16V308z M336,220h16v88h-16V220z M368,324h16v16h-16V324z
	 M400,324h48v16h-48V324z M448,220v88h-16v-88H448z M416,220v88h-16v-88H416z M384,220v88h-16v-88H384z M352,204h-16v-72h16V204z
	 M304,132h16v72h-16V132z M288,308h-16v-88h16V308z M168,204h-16v-72h16V204z M120,132h16v72h-16V132z M104,220v30v58H88v-88H104z
	 M72,220v88H56v-88H72z M40,220v88H24v-88H40z M24,324h48v16H24V324z"/>
<g>
</g>
<g>
</g>
<g>
</g>
<g>
</g>
<g>
</g>
<g>
</g>
<g>
</g>
<g>
</g>
<g>
</g>
<g>
</g>
<g>
</g>
<g>
</g>
<g>
</g>
<g>
</g>
<g>
</g>
</svg>
